<svg id="Layer_1" data-name="Layer 1" xmlns="http://www.w3.org/2000/svg" viewBox="0 0 271.71 363.43"><defs><style>.cls-1,.cls-3{fill:#6ecdff;}.cls-2{fill:none;stroke:#020202;stroke-miterlimit:10;stroke-width:3px;}.cls-3,.cls-5{font-size:58px;font-family:BubblegumSans-Regular, Bubblegum Sans;}.cls-4{letter-spacing:-0.01em;}</style></defs><path class="cls-1" d="M54.32,199.12h-.23c-2.49-.16-4.4-2.83-4.28-6L53.94,90c.12-3.14,2.24-5.52,4.72-5.39s4.4,2.83,4.28,6L58.81,193.72C58.69,196.76,56.7,199.12,54.32,199.12Z"/><path class="cls-1" d="M225.78,110.76a5,5,0,0,1-2.65-.76L142.94,59.63a5,5,0,1,1,5.31-8.45l80.19,50.37a5,5,0,0,1-2.66,9.21Z"/><path class="cls-1" d="M133.77,240.73a5.52,5.52,0,0,1-4.93-2.88,5,5,0,0,1,2.54-6.83l93.08-42.13a5.65,5.65,0,0,1,7.31,2.37,5,5,0,0,1-2.54,6.83l-93.07,42.13A5.94,5.94,0,0,1,133.77,240.73Z"/><path class="cls-1" d="M130.83,290.35a5.7,5.7,0,0,1-3.08-.91l-113-73.07a5.66,5.66,0,0,1-2.59-5.06l6.78-134.4A5.67,5.67,0,0,1,22,72.14L141.8,10.81a5.71,5.71,0,0,1,5.68.29l113,73.07a5.7,5.7,0,0,1,2.59,5.06l-6.78,134.39a5.68,5.68,0,0,1-3.09,4.77L133.42,289.72A5.63,5.63,0,0,1,130.83,290.35ZM23.67,208.61l107.49,69.5L245.1,219.78l6.45-127.85L144.06,22.42,30.12,80.76Zm226.94,14.73h0Z"/><path class="cls-2" d="M130.83,286.12a5.62,5.62,0,0,1-3.08-.91l-113-73.07a5.65,5.65,0,0,1-2.59-5.06L18.94,72.69A5.65,5.65,0,0,1,22,67.92L141.8,6.59a5.66,5.66,0,0,1,5.68.29L260.48,80a5.69,5.69,0,0,1,2.59,5l-6.78,134.4a5.68,5.68,0,0,1-3.09,4.77L133.42,285.5A5.62,5.62,0,0,1,130.83,286.12ZM23.67,204.38l107.49,69.51L245.1,215.55l6.45-127.84L144.06,18.2,30.12,76.54Zm226.94,14.73h0Z"/><path class="cls-2" d="M48.56,199.12h-.29a5.68,5.68,0,0,1-5.38-6L48.09,90a5.68,5.68,0,1,1,11.34.57l-5.2,103.11A5.68,5.68,0,0,1,48.56,199.12Z"/><path class="cls-2" d="M233.69,110.64a5.61,5.61,0,0,1-3-.87L139.38,52.4a5.68,5.68,0,0,1,6.05-9.62l91.29,57.37a5.68,5.68,0,0,1-3,10.49Z"/><path class="cls-2" d="M132,248.2a5.68,5.68,0,0,1-2.49-10.79l96.55-46.82a5.68,5.68,0,0,1,5,10.23l-96.55,46.81A5.61,5.61,0,0,1,132,248.2Z"/><text class="cls-3" transform="translate(47.18 352.34)">#V12<tspan class="cls-4" x="116.06" y="0">3</tspan><tspan x="146.97" y="0">4</tspan></text><text class="cls-5" transform="translate(45.04 353.41)">#V12<tspan class="cls-4" x="116.06" y="0">3</tspan><tspan x="146.97" y="0">4</tspan></text></svg>