<svg id="Layer_1" data-name="Layer 1" xmlns="http://www.w3.org/2000/svg" viewBox="0 0 1475.18 1209.42"><defs><style>.cls-1,.cls-10,.cls-11,.cls-15,.cls-20,.cls-21,.cls-23,.cls-24,.cls-25,.cls-26,.cls-27,.cls-28,.cls-4,.cls-5,.cls-6,.cls-7,.cls-8,.cls-9{fill:none;}.cls-1,.cls-10,.cls-11,.cls-12,.cls-13,.cls-14,.cls-15,.cls-16,.cls-19,.cls-2,.cls-20,.cls-21,.cls-22,.cls-23,.cls-24,.cls-25,.cls-26,.cls-27,.cls-28,.cls-4,.cls-5,.cls-6,.cls-7,.cls-8,.cls-9{stroke:#000;stroke-linecap:round;stroke-linejoin:round;}.cls-1,.cls-10,.cls-13,.cls-2{stroke-width:3.43px;}.cls-12,.cls-14,.cls-16,.cls-18,.cls-19,.cls-2,.cls-22{fill:#fff;}.cls-3{fill:#5276c4;}.cls-16,.cls-26,.cls-4{stroke-width:3.97px;}.cls-5{stroke-width:4.32px;}.cls-10,.cls-11,.cls-26,.cls-5,.cls-6{fill-rule:evenodd;}.cls-6{stroke-width:4.68px;}.cls-7{stroke-width:4.12px;}.cls-8{stroke-width:4.12px;}.cls-9{stroke-width:5.06px;}.cls-11,.cls-14,.cls-15{stroke-width:4.32px;}.cls-12{stroke-width:2.22px;}.cls-13{fill:#f9f9f9;}.cls-17{fill:#6ecfff;}.cls-19,.cls-23{stroke-width:4.56px;}.cls-20{stroke-width:4.63px;}.cls-21{stroke-width:4.35px;}.cls-22{stroke-width:3.92px;}.cls-24{stroke-width:4.62px;}.cls-25{stroke-width:4.17px;}.cls-27{stroke-width:2.88px;}.cls-28{stroke-width:3.12px;}</style></defs><circle class="cls-1" cx="298.58" cy="212.44" r="20.72"/><circle class="cls-2" cx="347.14" cy="212.44" r="20.72"/><path class="cls-3" d="M135.93,1204.41c10.52-21.29,3.36-49.23-15-64.28s-45.85-17-67.1-6.38-35.85,32.62-39.42,56.1C55.6,1198.2,93.89,1204.68,135.93,1204.41Z"/><path class="cls-3" d="M438.34,1162.3c6-23-6.75-48.89-27.8-59.88s-48.36-7.3-67,7.43-28.46,39.25-27.17,63C358.43,1172.58,397.23,1171.13,438.34,1162.3Z"/><path class="cls-3" d="M37.24,1077c-1.58,8.12-2.16,18.61,5.15,22.48,3.16,1.67,6.93,1.47,10.5,1.73,12.08.89,22.92,7.41,34.35,11.44s25.62,5,34.31-3.4c4.87-4.73,7-11.51,9-18q45.41-149.6,85.86-300.61c8.06-30.07,16-60.39,18.34-91.44-.16,19,11.62,35.93,24.38,50s27.31,27.23,35,44.6c4.1,9.28,6,19.34,7.75,29.33a852.17,852.17,0,0,1,12.29,154.2c-.4,34.25-2.82,68.92,4.37,102.41A314.07,314.07,0,0,1,419,1063.56c-2.44-78.83-10-157.41-17.59-235.91-2.69-27.8-5.46-56-15.42-82.08-11.86-31.06-39.89-110.67-43.73-114.42-2.74-2.68-4.4-1.58-8.23-1.4-28.76,1.4-59.88-4.38-89.56-3.63-3.7.09-7.56.28-10.78,2.1-3.48,2-5.72,5.58-7.26,9.26-8.12,19.43-1.4,45.24-16.64,59.78-5.77,5.49-13.64,8.08-21.26,10.4-29.59,9-59.83,14.2-89.66,21.94-26.9,7-20.62,29.38-22.43,54.18q-7,95.29-21.3,189.86Q47.29,1025.5,37.24,1077Z"/><path class="cls-3" d="M395.17,131c-14.3-12-37-12.58-51.88-1.3-.44-11.78-4.15-24.81-14.44-30.55s-26.84,2.6-24.21,14.08a60.75,60.75,0,0,0-41.08-22.76c-8.69-.9-18.17.38-24.68,6.19s-8.48,17.1-2.33,23.3a46.25,46.25,0,0,0-48.86-.08c-6.37,4.08-11.92,10.28-12.87,17.77s4.21,15.93,11.74,16.51c-12.47,4.36-26.11,9.69-32.07,21.48s3.39,30.33,16.16,26.93c-8.17,6.57-16.18,14.9-17.09,25.33s9.45,21.77,19.2,17.94l-4.94,36.88c-.41,3.06-.76,6.4.86,9,1.88,3,5.74,4.08,9.22,4.86,8.9,2,18.18,4,27,1.77s17-10.1,16.23-19.18a15.11,15.11,0,0,0,29.41-1.59c2.49-14.36-15.47-25.44-15.13-40,.37-16.21,22.26-24.31,25.48-40.21,1.61-8,.15-19.56,8.13-21.2,7.1-1.46,11.69,8.1,18.76,9.72,3.72.85,7.54-.66,11.06-2.14,16.69-7,36.95-12.38,52-22.43C357.91,156.54,384.67,125,395.17,131Z"/><path class="cls-4" d="M415.78,444.29c30.92,5,58.89-7,83.92-28.84,14.56-12.74,23.6-30.56,29.41-48.74,7.87-24.73,12.6-51.29,11.8-77.3-4.46-1.33-10.22-1-14.93-1.26l-22.21-1.53-29.31-2c2.64,71-16.84,80.76-34.22,83"/><path class="cls-5" d="M309.17,355.23c6.82-2.75,8.79-11.63,4.38-17.51-4.66-6.22-10.9-13.25-12.92-9.45-3.36,6.31-10.79,17.12-1.42,24.34C303.17,355.66,306.12,356.46,309.17,355.23Z"/><path class="cls-6" d="M309.38,404.36a178.86,178.86,0,0,1-18.85-4.78q.53-5,1.11-9.74c4.41-35.59,14.4-33.91,14.4-33.91,10.46,7.82,17.59,26.55,22.42,49.64A62.89,62.89,0,0,1,309.38,404.36Z"/><path class="cls-6" d="M338,558.66l-33.73,40L282,555.38c.8-10.54,1.53-34.8,2.69-63.12a199.11,199.11,0,0,0,52.82-3.8C339.1,527,338,558.66,338,558.66Z"/><path class="cls-7" d="M12.37,1192.39c-6.49-22.85,5.62-49,26.42-60.5s48.17-8.42,67.14,5.88,29.35,38.58,28.61,62.32C92.5,1200.83,53.67,1200.27,12.37,1192.39Z"/><path class="cls-7" d="M316.06,1173.1c-10.52-21.29-3.35-49.23,15-64.28s45.84-17,67.09-6.38,35.86,32.62,39.43,56.11C396.4,1166.89,358.11,1173.37,316.06,1173.1Z"/><path class="cls-8" d="M392.1,121.92c-14.3-12-37-12.58-51.88-1.3-.44-11.78-4.15-24.81-14.44-30.54s-26.84,2.59-24.21,14.08a60.74,60.74,0,0,0-41.08-22.77c-8.69-.9-18.17.38-24.69,6.2s-8.47,17.09-2.32,23.29a46.27,46.27,0,0,0-48.87-.08c-6.36,4.08-11.91,10.28-12.87,17.78s4.22,15.92,11.75,16.51c-12.47,4.35-26.11,9.69-32.07,21.47s3.39,30.33,16.16,26.94c-8.17,6.56-16.18,14.89-17.09,25.33s9.45,21.76,19.2,17.93l-4.94,36.88c-.41,3.06-.76,6.4.86,9,1.88,3,5.74,4.07,9.22,4.85,8.89,2,18.18,4,27,1.77s17-10.1,16.23-19.18a15.11,15.11,0,0,0,29.41-1.59c2.49-14.36-15.47-25.44-15.13-40,.37-16.22,22.26-24.32,25.48-40.22,1.61-8,.15-19.56,8.13-21.2,7.1-1.46,11.69,8.1,18.76,9.72,3.72.85,7.54-.66,11.06-2.14,16.69-7,36.95-12.37,52-22.43C354.84,147.49,381.6,115.92,392.1,121.92Z"/><path class="cls-4" d="M220.84,363.61c23.65,15.16,44,28,69.69,36a178.86,178.86,0,0,0,18.85,4.78,62.89,62.89,0,0,0,19.08,1.21,29.6,29.6,0,0,0,14-5.05C359,388.74,363,361,367.86,342.75c1.7-6.35,6-63.92,6.54-63.94s69.08-9.93,69.08-9.93c1.52,66.74,5,184.54-76.83,211.77a247,247,0,0,1-29.19,7.81,199.11,199.11,0,0,1-52.82,3.8,157.87,157.87,0,0,1-29.63-4.8c-30.89-8.15-63.86-26.26-90.78-47.55"/><path class="cls-9" d="M403.15,249.72a83.6,83.6,0,0,1,1.39,22.68"/><path class="cls-4" d="M334,301.85c11.23,26.72,17.44,60.83,16.33,89.79"/><path class="cls-4" d="M191.15,290.21c-51.14,35.84-77.39,87.39-103,144.35C61.92,493,25,656.26,25,722.32"/><path class="cls-4" d="M67.62,725.91c-6.38,143.18-44.35,361.93-44.35,361.93,30,11.25,78.92,16.6,110.9,15.18,20.22-134.15,68.65-281.55,93.45-419.5"/><path class="cls-7" d="M80.22,1096.31l-2.62,28.62"/><path class="cls-7" d="M356.14,1067.12l3,26.59"/><path class="cls-4" d="M220.84,722.24,281,816.05l20.13,255.3c31.56,3.25,85.75-11.16,114.68-24.18L401,798.64,342.27,628.11"/><path class="cls-4" d="M230.79,479.43c-12.19,76.48-7.95,128.63-25.4,204.09"/><path class="cls-4" d="M370.29,479.43c-3.74,71.26-9.7,86.75-28,148.68"/><path class="cls-4" d="M26,721.13a289.3,289.3,0,0,0,110.68-4.87c15.78-3.81,58.49-20.11,68.69-32.74"/><path class="cls-4" d="M216.51,616.62c35.1,11.77,97.95,18.94,125.76,11.49"/><path class="cls-5" d="M335.05,306.23l12.09,20.61c-6.75,6.77-14.36,14.55-21.12,21.32-3.62-7.79-8.25-18.05-14.24-24.2Z"/><path class="cls-4" d="M344,330c11,17.65,11.53,21,21.09,24.09"/><path class="cls-4" d="M388.66,470.13c.45,83-10,161.19-21.25,231"/><path class="cls-10" d="M311.78,262.77c17.68,16.63,30.49,14.34,35.36,4.78"/><path class="cls-11" d="M291.62,329.08c-7.57,11.17-11.88,19.37-17.6,31.59a159.14,159.14,0,0,1-99.41-53.6"/><path class="cls-4" d="M232.64,349.88c.44,4.56.74,17,.52,21.56"/><path class="cls-10" d="M278.47,206.67c-9.24-3.3-19.28-3.38-29.1-3.43-6,0-12.23,0-17.68,2.51s-9.9,8.29-8.88,14.2"/><path class="cls-7" d="M523.21,188.87A166,166,0,0,0,521.13,285"/><path class="cls-7" d="M340.83,156.37c16.6,34.39,13.2,91.13,2.42,126.37-8.68,28.39-32.59,48.83-63.16,43.65-28.89-4.9-61.86-17.32-84.58-36.18"/><line class="cls-4" x1="514.68" y1="248.89" x2="514.68" y2="241.05"/><path class="cls-12" d="M375.77,177.12v.34c-3.76,0-6.81,8.12-6.81,18.14s3.05,18.14,6.81,18.14v.35h56.78v-37Z"/><path class="cls-13" d="M480.47,195.59c0,18.1,3.56,33.76,8.78,41.36h-59.1v0c-6.15-.25-11.1-18.65-11.1-41.34s4.95-41.06,11.1-41.32v0h59.1C484,161.86,480.47,177.51,480.47,195.59Z"/><path class="cls-13" d="M558.19,147.08H491.25v0a3.76,3.76,0,0,0-.65.09,5.37,5.37,0,0,0-1.06-.11c-8.92,0-16.16,21.72-16.16,48.52s7.24,48.53,16.16,48.53a6.25,6.25,0,0,0,1.06-.11,3.63,3.63,0,0,0,.65.09v0h66.94c-5.91-8.93-9.94-27.3-9.94-48.54S552.28,156,558.19,147.08Z"/><path class="cls-14" d="M312.48,191.12v.34c-3.76,0-6.81,8.12-6.81,18.14s3.05,18.15,6.81,18.15v.34h56.78v-37Z"/><path class="cls-15" d="M417.18,209.59c0,18.1,3.56,33.76,8.78,41.36h-59.1c-6.15-.26-11.1-18.66-11.1-41.35s4.95-41.06,11.1-41.32v0H426C420.74,175.86,417.18,191.51,417.18,209.59Z"/><path class="cls-16" d="M494.9,161.08H428v0a3.74,3.74,0,0,0-.66.09,5.37,5.37,0,0,0-1.06-.11c-8.92,0-16.16,21.72-16.16,48.52s7.24,48.53,16.16,48.53a6.25,6.25,0,0,0,1.06-.11,3.74,3.74,0,0,0,.66.09v0H494.9C489,249.2,485,230.83,485,209.59S489,170,494.9,161.08Z"/><path class="cls-17" d="M368.26,250.34h46.92l-8.07-20.15c-1.5-14-3.08-19-.14-32.86l7.52-22.06-51.72-1-2,6.16a41.84,41.84,0,0,0-1.68,6.79c-1.84,11.87-1.61,22.87-1,35.54.28,5.33,1.09,13.08,3.13,18l2.43,5.95C364.81,248.76,365.93,250.45,368.26,250.34Z"/><path class="cls-17" d="M428.34,257h66.78c-1.72,0-5.25-7.85-6.55-11.2-8.63-22.13-7.62-48.58-4.5-72.75,0-.3.37-4,.75-4L421,167.9c-.94,0-3.66,10.33-4,11.46-3.84,14.89-3.17,30.08-2.28,45.29.36,6.25.1,15.51,2.81,21.25l3.08,6.34C422.25,254.69,425.24,257.11,428.34,257Z"/><path class="cls-17" d="M502.9,243.34h47.2c-1.21,0-3.71-7.24-4.63-10.33-6.1-20.44-5.38-44.87-3.18-67.18,0-.28.26-3.71.53-3.71l-45.08-1c-.66,0-2.58,9.54-2.79,10.59-2.71,13.74-2.24,27.77-1.61,41.82.26,5.77.07,14.31,2,19.62L497.5,239C498.6,241.22,500.71,243.46,502.9,243.34Z"/><path class="cls-17" d="M354.29,227,312.63,227l-2.05-2.88c-3.55-10-3.55-15.68-1.62-24.73L310.5,195l43.38,1.31v2.87c-1.15,7.7,0,15.57.1,23.94Z"/><ellipse class="cls-3" cx="496.52" cy="209.6" rx="22.6" ry="54.31"/><ellipse class="cls-18" cx="490.2" cy="209" rx="12.92" ry="47.92"/><ellipse class="cls-1" cx="500.04" cy="209.6" rx="22.6" ry="54.31"/><ellipse class="cls-3" cx="559.81" cy="195.6" rx="22.6" ry="54.31"/><ellipse class="cls-18" cx="553.92" cy="200.91" rx="12.92" ry="47.92"/><ellipse class="cls-1" cx="563.33" cy="195.6" rx="22.6" ry="54.31"/><ellipse class="cls-19" cx="401.01" cy="202.6" rx="28.53" ry="46.23"/><path class="cls-4" d="M396.43,158.76a110.86,110.86,0,0,0-3.93,25.15"/><path class="cls-4" d="M411,161.36a82.87,82.87,0,0,0-1.83,21.71"/><path class="cls-20" d="M941.88,252.27a95.51,95.51,0,0,0,2.33,25.78"/><ellipse class="cls-21" cx="1158.94" cy="219.24" rx="27.73" ry="24.89"/><ellipse class="cls-22" cx="1107.36" cy="214.1" rx="26.97" ry="20.72"/><path class="cls-3" d="M1194.37,1185.85c10.52-21.29,3.36-49.23-15-64.28s-45.85-17-67.1-6.38-35.85,32.62-39.42,56.11C1114,1179.64,1152.33,1186.12,1194.37,1185.85Z"/><path class="cls-3" d="M1437,1196c6.64-22.81-5.29-49.07-26-60.68s-48.11-8.74-67.18,5.43-29.62,38.38-29,62.12C1356.79,1203.93,1395.62,1203.63,1437,1196Z"/><path class="cls-3" d="M1299.15,1112.07c9.45-5.7,20.54-7.89,31.37-10,35-6.78,70.13-13.56,105.69-16.36,1.52-.12,3.33-.44,3.9-1.85a4.17,4.17,0,0,0,0-2.35q-7.15-35.92-14.3-71.85c.6,3-105.74,10.75-115,13.56C1281.16,1032.16,1297.63,1087.82,1299.15,1112.07Z"/><path class="cls-3" d="M1086.54,1066.16c16.33-4.8,32.6,6.69,49.12,10.21,9.35,2,18.91,1.41,28.33,2.77,15.59,2.24,30.43,9.74,45.06,17.17a579.91,579.91,0,0,0,8.85-82.43q-34.9-.25-69.82-1.46c-11.07-.38-37.19-11.56-47.34-4.7C1089.23,1015.48,1092.36,1064.45,1086.54,1066.16Z"/><path class="cls-3" d="M1129.92,175.22c6.6-2.51,11.73-7.77,16.62-12.88-1.44,10.22,10.14,18.7,20.37,17.31s18.25-9.6,23.48-18.5c-4.92,11.45,7.62,24.33,20.09,24.38s23.31-8.19,32.43-16.68c-7,7.37.29,20.71,10.2,23s20-2.45,29-7.07c-6.49,5.26-8.06,15.63-3.43,22.57s14.83,9.46,22.16,5.48c-5.12,7.14-10.5,15.43-8.74,24s15.34,13.53,19.3,5.69c-6.78,6,2.32,18.3,11.26,16.8s14.51-10.49,17.62-19c4.92-13.47,4.84-31.93-7.94-38.44,10.33-3.22,17.15-15,14.78-25.58s-13.6-18.31-24.31-16.79c12.41-4.58,18-21.8,10.72-32.82s-25.38-12.52-34.41-2.85c3.92-7.86,7.91-16,8.45-24.76s-3.25-18.42-11.23-22.09-19.46,1.81-19.46,10.59a72.06,72.06,0,0,0-12-40.95c-5.5-8.24-13.82-15.8-23.72-15.83S1221.89,42.26,1227,50.77c-5.26-18.29-26.12-26.81-44.82-30.32-11.17-2.1-23.75-3-32.92,3.7s-10.27,23.82.33,27.93c-15.75-.43-31.28,9.59-37.38,24.12,1.19,5.85,8.33,9.64,13.84,7.34-13.82,3-28.75,6.72-37.61,17.75s-6.14,31.62,7.68,34.62c-5.11,3.26-11.88,12.18-10.43,18.92,2.74,12.66,7.88,3,15.72,8.37C1109.7,168.87,1117.25,180,1129.92,175.22Z"/><path class="cls-7" d="M1115.7,168.48c-16.6,34.39-9,80.68,1.8,115.92,8.68,28.39,32.59,48.84,63.17,43.65,19.22-3.26,38.11-9.59,56-17.18,9.18-3.9,18.56-7.75,26.94-13.22,18.21-11.9,27.3-27.1,24-60.93"/><path class="cls-4" d="M1028.59,444.07c-21.82-.81-43.58-7.33-60.94-20.86-19.36-15.1-30.91-36.95-37.31-60.3a284.8,284.8,0,0,1-10.55-82l60.85-4.25c.24,16.38.72,32.81,2.42,49.12.85,8.15,1.31,16.57,3.77,24.43,1.67,5.36,4.37,10.58,9.06,13.87a50.29,50.29,0,0,0,8.14,4.32"/><path class="cls-4" d="M1307.21,506.26c-54.2,32.62-135.23,41.12-200.55,25.53-52.33-12.49-118.38-137.68-99.33-223.06,0,0,65.6,11.13,66.27,11.26,1.22.17,10.61,57.45,11.81,61.77,8.58,30.87,23.72,73.31,63.92,61.6a156,156,0,0,0,55.81-30.11"/><path class="cls-4" d="M1308.67,315.88c49.34,34.59,82.65,85.73,98.1,141.32C1437.45,567.59,1443,684.1,1453,797.71c6.07,68.94,14.22,138.91,14.22,208.21,0,0-351,39.94-436-21.5,0,0,27.29-390.51,52.06-464.76"/><path class="cls-23" d="M1057.6,250.55c-1.56,6.95-5.44,58.23-4.94,65.33"/><path class="cls-4" d="M1110.52,352.05c-6.33,33.27-9.42,42.16-11.24,66.42"/><path class="cls-5" d="M1125.7,307.89l-12.09,20.61c-17.07,27.29,9.58,28.71,20.72,33.83,3.63-7.78,8.65-30.56,14.65-36.71Z"/><path class="cls-4" d="M1108.44,342.57c-4,10.24-15.53,13.9-25.17,16.5"/><path class="cls-10" d="M1149,264.43c-17.68,16.63-30.49,14.34-35.37,4.78"/><path class="cls-11" d="M1169.13,330.74c4.25,13,1.91,23,7.63,35.2,38.19-4.91,106.83-20.85,131.91-50.06l-28.29-32.66L1269.75,293"/><path class="cls-7" d="M1179.12,1185.85c10.52-21.29,3.35-49.23-15-64.28s-45.85-17-67.1-6.38-35.85,32.62-39.42,56.11C1098.79,1179.64,1137.08,1186.12,1179.12,1185.85Z"/><path class="cls-7" d="M1139,1079.87l-3,26.59"/><polyline class="cls-4" points="1087.39 1009.68 1077.18 1072.02 1212.52 1092.14 1221.44 1018.68"/><path class="cls-7" d="M1429.42,1195.52c6.49-22.85-5.62-49-26.42-60.5s-48.17-8.41-67.14,5.89-29.36,38.57-28.61,62.32C1349.29,1204,1388.12,1203.4,1429.42,1195.52Z"/><path class="cls-7" d="M1362,1104.13l2.19,23.93"/><polyline class="cls-4" points="1288.29 1022.59 1301.17 1113.76 1437.46 1092.19 1424.08 1013.53"/><path class="cls-24" d="M1171.82,702.69a775.61,775.61,0,0,1-3.4,141.15c47.81-10.14,97.15-20.23,144.31-6.09l.8-140.43"/><path class="cls-4" d="M1169.24,702.92c34.43-3.22,109.86-2.38,144.29-5.6"/><path class="cls-4" d="M1173.49,744.84c22.72-4.43,117.42-15.6,140.54-16.57"/><path class="cls-24" d="M1131.22,539.36c-20.91,160.3-19.29,304.75-9.88,466.14"/><path class="cls-24" d="M1158.06,328.85a1128.33,1128.33,0,0,0-20.3,114.1"/><path class="cls-25" d="M1119.74,167.52c6.61-2.51,11.73-7.77,16.62-12.88-1.44,10.22,10.14,18.7,20.37,17.31s18.26-9.6,23.48-18.5c-4.91,11.45,7.63,24.33,20.09,24.38s23.31-8.19,32.43-16.69c-7,7.38.29,20.72,10.2,23s20-2.45,29-7.07c-6.49,5.26-8.06,15.63-3.42,22.57s14.82,9.46,22.16,5.48c-5.12,7.14-10.51,15.43-8.75,24s15.34,13.53,19.3,5.69c-6.77,6,2.32,18.3,11.26,16.8s14.51-10.49,17.62-19c4.92-13.47,4.84-31.93-7.94-38.44,10.33-3.22,17.15-15,14.78-25.58s-13.6-18.31-24.31-16.79c12.42-4.58,18-21.8,10.72-32.82S1298,106.52,1289,116.19c3.92-7.86,7.91-16,8.46-24.76s-3.26-18.42-11.24-22.09-19.46,1.81-19.45,10.59a72.14,72.14,0,0,0-12-41c-5.5-8.24-13.81-15.8-23.72-15.83s-19.29,11.41-14.23,19.92c-5.26-18.29-26.12-26.81-44.82-30.32-11.17-2.1-23.74-3-32.91,3.7s-10.28,23.82.32,27.93C1123.61,44,1108.08,54,1102,68.5c1.18,5.85,8.33,9.64,13.84,7.34-13.83,3-28.76,6.72-37.62,17.75s-6.14,31.62,7.69,34.62c-5.11,3.26-11.89,12.18-10.44,18.92,2.74,12.66,7.88,3,15.72,8.37C1099.52,161.17,1107.07,172.34,1119.74,167.52Z"/><path class="cls-26" d="M1185.08,212s43.16-2.26,50.42,0,3.21,14.25,3.21,14.25"/><path class="cls-12" d="M1094.12,184.12v.34c3.76,0,6.8,8.12,6.8,18.14s-3,18.14-6.8,18.14v.35h-56.78v-37Z"/><path class="cls-13" d="M989.42,202.59c0,18.1-3.56,33.76-8.78,41.36h59.1c6.14-.26,11.1-18.66,11.1-41.35s-5-41.06-11.1-41.32v0h-59.1C985.86,168.86,989.42,184.51,989.42,202.59Z"/><path class="cls-13" d="M911.7,154.08h66.93v0a3.74,3.74,0,0,1,.66.09,5.27,5.27,0,0,1,1.05-.11c8.93,0,16.17,21.72,16.17,48.52s-7.24,48.53-16.17,48.53a6.24,6.24,0,0,1-1.05-.11,3.74,3.74,0,0,1-.66.09v0H911.7c5.9-8.93,9.94-27.3,9.94-48.54S917.6,163,911.7,154.08Z"/><path class="cls-14" d="M1157.41,198.12v.34c3.76,0,6.8,8.12,6.8,18.14s-3,18.15-6.8,18.15v.34h-56.78v-37Z"/><path class="cls-15" d="M1052.71,216.59c0,18.1-3.56,33.76-8.78,41.36H1103c6.14-.26,11.1-18.66,11.1-41.35s-5-41.06-11.1-41.32v0h-59.1C1049.15,182.86,1052.71,198.51,1052.71,216.59Z"/><path class="cls-16" d="M975,168.08h66.93v0a3.51,3.51,0,0,1,.65.09,5.45,5.45,0,0,1,1.06-.11c8.93,0,16.17,21.72,16.17,48.52s-7.24,48.53-16.17,48.53a6.24,6.24,0,0,1-1.05-.11,3.74,3.74,0,0,1-.66.09v0H975c5.9-8.92,9.94-27.3,9.94-48.54S980.89,177,975,168.08Z"/><path class="cls-17" d="M1101.68,257.29h-45.81l7.88-20.14c1.47-14,1.23-18.38-1.63-32.19l-4.62-22.75,49.53-1,2,6.16a42.52,42.52,0,0,1,1.64,6.79c1.8,11.87,1.57,22.86.93,35.53-.27,5.34-1.06,13.09-3,18l-2.38,6C1105,255.71,1104,257.4,1101.68,257.29Z"/><path class="cls-17" d="M1041.64,264H974.77c1.72,0,5.25-7.85,6.56-11.2,8.63-22.13,7.62-48.58,4.5-72.75,0-.3-.37-4-.75-4l64.42-.78c.94,0,5.32,13.88,5.61,15,3.84,14.89,1,26.18.07,41.39-.37,6.25-.1,15.51-2.82,21.25l-3.07,6.34C1047.73,261.69,1044.73,264.11,1041.64,264Z"/><path class="cls-17" d="M967,250.34h-47.2c1.21,0,3.7-7.24,4.63-10.33,6.09-20.44,5.38-44.87,3.17-67.18,0-.28-.26-3.71-.53-3.71l45.08-1c.67,0,2.59,9.54,2.8,10.59,2.71,13.74,2.24,27.77,1.61,41.82-.26,5.77-.07,14.31-2,19.62L972.38,246C971.29,248.22,969.17,250.46,967,250.34Z"/><path class="cls-17" d="M1115.59,234l41.67-.09,2-2.88c3.55-10,3.54-15.68,1.62-24.73l-1.55-4.37L1116,203.29l0,2.86c1.14,7.7,0,15.57-.11,23.94Z"/><ellipse class="cls-3" cx="973.37" cy="216.6" rx="22.6" ry="54.31"/><ellipse class="cls-18" cx="977.03" cy="218.01" rx="12.92" ry="47.92"/><ellipse class="cls-1" cx="969.85" cy="216.6" rx="22.6" ry="54.31"/><ellipse class="cls-3" cx="910.08" cy="202.6" rx="22.6" ry="54.31"/><ellipse class="cls-18" cx="914.71" cy="204.29" rx="12.92" ry="47.92"/><ellipse class="cls-1" cx="906.56" cy="202.6" rx="22.6" ry="54.31"/><ellipse class="cls-19" cx="1052.62" cy="238.38" rx="28.53" ry="46.23"/><path class="cls-27" d="M1044.22,196.77q.12,12.84-.6,25.66"/><path class="cls-28" d="M1060.11,192.58q.14,16.42-.65,32.83"/></svg>