<svg id="Layer_1" data-name="Layer 1" xmlns="http://www.w3.org/2000/svg" viewBox="0 0 890 892"><defs><style>.cls-1,.cls-24,.cls-26,.cls-27,.cls-30,.cls-31,.cls-32,.cls-33{fill:#fff;}.cls-1,.cls-10,.cls-11,.cls-12,.cls-13,.cls-14,.cls-15,.cls-16,.cls-17,.cls-18,.cls-19,.cls-20,.cls-21,.cls-22,.cls-23,.cls-24,.cls-25,.cls-26,.cls-27,.cls-28,.cls-29,.cls-30,.cls-31,.cls-33,.cls-34,.cls-4,.cls-5,.cls-7,.cls-8,.cls-9{stroke:#000;}.cls-1,.cls-14,.cls-18,.cls-19,.cls-20,.cls-21,.cls-22,.cls-23,.cls-24,.cls-25,.cls-27,.cls-28,.cls-29,.cls-30,.cls-31,.cls-33,.cls-34,.cls-4,.cls-5,.cls-7,.cls-9{stroke-linecap:round;stroke-linejoin:round;}.cls-1{stroke-width:3.79px;}.cls-2{fill:#4b79be;}.cls-3{fill:#80c9f1;}.cls-10,.cls-11,.cls-12,.cls-13,.cls-14,.cls-15,.cls-16,.cls-17,.cls-18,.cls-19,.cls-20,.cls-21,.cls-22,.cls-23,.cls-25,.cls-28,.cls-29,.cls-34,.cls-4,.cls-5,.cls-7,.cls-8,.cls-9{fill:none;}.cls-4,.cls-8{stroke-width:4.11px;}.cls-5{stroke-width:4.12px;}.cls-6{fill:#5b74b5;}.cls-7{stroke-width:4.98px;}.cls-10,.cls-11,.cls-12,.cls-13,.cls-15,.cls-16,.cls-17,.cls-8{stroke-miterlimit:10;}.cls-9{stroke-width:4.34px;}.cls-10{stroke-width:3px;}.cls-11{stroke-width:3.3px;}.cls-12{stroke-width:3.81px;}.cls-13{stroke-width:5.15px;}.cls-14{stroke-width:2.58px;}.cls-15{stroke-width:2.58px;}.cls-16{stroke-width:2.23px;}.cls-18{stroke-width:1.67px;}.cls-19{stroke-width:1.43px;}.cls-20{stroke-width:3.78px;}.cls-21,.cls-27{stroke-width:3.99px;}.cls-22{stroke-width:3.53px;}.cls-24,.cls-25{stroke-width:1.56px;}.cls-26,.cls-31{stroke-width:4px;}.cls-28{stroke-width:0.85px;}.cls-29,.cls-30{stroke-width:1.42px;}.cls-33,.cls-34{stroke-width:1.06px;}</style></defs><polyline class="cls-1" points="399.67 747.21 399.67 756.5 242 767.5 195 741.5 193.96 734.21"/><rect class="cls-2" x="442.62" y="518.43" width="7.78" height="60.12" transform="translate(518.62 -155.08) rotate(45)"/><ellipse class="cls-3" cx="397" cy="564.5" rx="18" ry="7" transform="translate(-292.41 533.18) rotate(-52.28)"/><polygon class="cls-2" points="520 596.5 396 576.5 409 560.5 520 561.5 520 596.5"/><path class="cls-2" d="M649.78,68.65c-5.21-8.77-4.95-19.84-2.25-29.66,1.77-6.45,4.79-13,10.34-16.67s14.11-3.51,18,1.9c3.3-5.52,6.85-11.28,12.48-14.39s14-2.3,17,3.37c5.43-2.81,11.19-5.7,17.3-5.42s12.47,5,12.18,11.13A30.93,30.93,0,0,1,762,12.34c2.77.68,5.62,1.88,7.21,4.25s1.31,6.14-1.19,7.52c5-2.13,11.23,1.34,13.26,6.41s.6,11-2.36,15.61-7.3,8.11-11.55,11.55"/><path class="cls-3" d="M682.72,258q-4.86,30-9.73,60c-.35,2.12-.61,4.55.79,6.18a7.23,7.23,0,0,0,2.65,1.7,137.05,137.05,0,0,0,95.94,5.61c-3-36.42,3-72.91,9-109a234.59,234.59,0,0,1-69.73,52.1c-3,1.47-6.46,2.91-9.63,1.81-2.52-.88-4.24-3.16-5.8-5.32l-13.62-18.82"/><path class="cls-2" d="M629,69.21c-6.9-3.7-16.48-1.15-20.62,5.5a16.18,16.18,0,0,0,4.15,20.93c-6.19,4.19-10,11.9-8.93,19.29s7.56,13.85,15,14.29,14.9-5.79,15.12-13.26c8.18,2.3,17.53-5,17.34-13.45,6.74,4.63,17,3,22-3.41,1.3-1.68,2.41-3.72,4.39-4.52,3.35-1.34,7.26,1.67,10.66.45,5.66-2,4-13,9.94-14,2.35-.42,4.51,1.17,6.59,2.36A22.51,22.51,0,0,0,728.55,82c1.28,9.63,13.65,15.83,22.13,11.08A25.7,25.7,0,0,0,765.77,111c-6.16,10.63-3.17,24,0,35.86.51,1.93-4.06-.91-2.76.61,4.32,5.05,17.86,6.11,22.23,1.1,9-10.35,11.38-28.8-.1-36.37,9.44-6.11,8.24-22.91-2-27.63-3.11-1.44-7-2.11-8.69-5.11-1.42-2.53-.64-5.78-1.7-8.48-2.23-5.65-11.12-6.26-13.23-12-.79-2.13-.43-4.61-1.5-6.61-2.41-4.53-10.1-3.66-12.63-8.13-1-1.83-.89-4.11-1.64-6.07-1.93-5-8.83-6-14-4.39s-9.64,5-14.93,6c-6.35,1.21-12.81-1.23-19.27-1.38s-14.19,3.74-14,10.2c-2.5-4.56-8.71-6-13.72-4.54s-9.08,5-13,8.41l-10.79,9.55a22.61,22.61,0,0,0-20.2,5.5"/><path class="cls-3" d="M660,217.5c-37,33.15-72.12,141-65.09,131-.28,7.74,1.86,6.26,2.09,14,6.81-5.42,10.19-7.58,17-13,4-3.21,26.23-20.66,29-25,4-6.35,7-11.53,8-19,2.61-20,5.59-60.25,13-79,1.74-4.4-4.36,2.43-6-2"/><path class="cls-4" d="M792,209.5c57.71,47,54.78,80.75,61,232.54,5.3,129.52,29.82,209.87,29.82,209.87"/><path class="cls-5" d="M765.54,207.45c.46-31.95.46-25.95.46-55.95"/><path class="cls-4" d="M542,659.5c10.19-25.48,19.92-38.32,45.16-155.22C609.93,398.81,591,339.5,654,261.5"/><path class="cls-6" d="M666.32,851.43c6.89-15.59.91-35.41-12.72-45.64s-33.39-10.8-48.31-2.54-24.72,24.48-26.57,41.42C608.52,849.41,636.18,852.9,666.32,851.43Z"/><path class="cls-6" d="M586.7,773a628.42,628.42,0,0,0,67.36,2.6,6.79,6.79,0,0,0,3.84-.83c1.24-.87,1.77-2.42,2.22-3.87,10.73-34.58,17.76-61.75,23.88-97.44-16.12,3.07-31.1-3.63-47.48-3.85-10.39-.15-28.38-6.15-36,3.09C594.68,679.77,591.75,773.51,586.7,773Z"/><line class="cls-7" x1="721.5" y1="121" x2="758.5" y2="116"/><path class="cls-8" d="M595,665.5c.72,18.37-2.69,20-12.75,107.23"/><path class="cls-8" d="M684,673.5c-1.63,10.78-12,65.94-14.61,91.79"/><path class="cls-9" d="M542,659.5c118.19,15.46,233.09,24.59,340.82-7.59"/><path class="cls-4" d="M582.35,772.35a138.86,138.86,0,0,0,87-7.06"/><path class="cls-10" d="M632.5,776c1.06,9.69.19,12.29-1,21.26"/><path class="cls-11" d="M662.24,850.75c6.9-15.59.91-35.41-12.72-45.64s-33.39-10.81-48.3-2.54S576.49,827,574.64,844C604.45,848.73,632.1,852.21,662.24,850.75Z"/><ellipse class="cls-12" cx="700.45" cy="126.74" rx="21.03" ry="10.94" transform="translate(0.5 256.23) rotate(-20.74)"/><path class="cls-13" d="M672,138a8.33,8.33,0,0,1,11.52-4.36"/><path class="cls-14" d="M661.23,214.72c-3.6,13.49,35.57,60.17,59.27,64.28"/><path class="cls-15" d="M661.23,214.72c1.27-4.72,2.48-7.52,8.43-9.74"/><path class="cls-8" d="M684,183.44c16,.53,29.65-11.56,35.77-25.94"/><path class="cls-8" d="M722,343.5c.69,63.73,1.1,117.75-1.45,181"/><line class="cls-4" x1="720.55" y1="519.87" x2="714.23" y2="669.61"/><path class="cls-16" d="M757,505.5c0,10.44,5.94,62.45,6,72.9a287.79,287.79,0,0,0,62.8-3.81,5.59,5.59,0,0,0,3.55-1.54,5.65,5.65,0,0,0,.83-3.66c0-7.9,8.88-61,8.85-68.89"/><path class="cls-4" d="M705.38,206.08c-13.85,12.62-28.28,5.18-36.91-4.32-23.25-25.63-34.25-73.37-34.07-72.86,0,0-4-15,3.28-13.67"/><ellipse class="cls-12" cx="654.34" cy="142.76" rx="21.03" ry="10.94" transform="matrix(0.94, -0.35, 0.35, 0.94, -8.16, 240.94)"/><path class="cls-6" d="M750.94,854.05c-6.89-15.59-.91-35.41,12.72-45.65s33.39-10.8,48.31-2.54,24.72,24.48,26.57,41.43C808.74,852,781.08,855.51,750.94,854.05Z"/><path class="cls-6" d="M830.47,775.67C807.84,777.79,750,781.5,748,755.5c-2.78-36.14-6.89-44.27-13-80,16.29,3,28.76-3,45.32-3.27,10.51-.16,28.7-6.21,36.42,3C822.61,682.29,825.37,776.15,830.47,775.67Z"/><path class="cls-8" d="M822.22,663.72C821.5,682.09,825,688.13,835,775.34"/><path class="cls-8" d="M733.93,672.22c1.63,10.78,11.29,69.83,13.94,95.68"/><path class="cls-4" d="M834.91,775a138.86,138.86,0,0,1-87-7.06"/><path class="cls-10" d="M784.5,778c-1.06,9.69.07,12.9,1.25,21.87"/><path class="cls-11" d="M755,853.36c-6.9-15.59-.91-35.41,12.72-45.64s33.39-10.8,48.3-2.54,24.73,24.48,26.58,41.42C812.82,851.34,785.16,854.83,755,853.36Z"/><path d="M855.9,319.73a1.5,1.5,0,0,0,0-3,1.5,1.5,0,0,0,0,3Z"/><path d="M610.11,100.81c-6.61,7.61-9.7,19.79-5,29.16a12,12,0,0,0,11.68,6.74,17.56,17.56,0,0,0,12.16-6.3c4-4.73,5.85-10.71,7.59-16.53l-2.51.66a13,13,0,0,0,22.57-8.18l-2.56,1.06A14.53,14.53,0,0,0,680,97.12l-2.56,1.06a16,16,0,0,0,16.49,3.87,15.63,15.63,0,0,0,7.52-23,1.5,1.5,0,0,0-2.59,1.51c4.84,10.29,20.7,12.52,28.23,4l-2.51-.66a15.32,15.32,0,0,0,28.45,5l-2.59-1.51a16.23,16.23,0,0,0,1.66,17c1.69,2.15,4,3.93,5.27,6.39,1.41,2.79-1,5-1.12,7.82-.22,4.61,3.83,8,5.82,11.77a4.75,4.75,0,0,1-.25,5.53c-1.66,2.22-3.43,4-3.08,7,.62,5.28,6.72,9.52,11.7,6.9l-2.26-1.3a9.32,9.32,0,0,0,10.77,8c1.9-.33,1.1-3.22-.79-2.9a6.29,6.29,0,0,1-7-5.12,1.52,1.52,0,0,0-2.25-1.29c-3.39,1.78-8-2.38-7.14-6a8.31,8.31,0,0,1,1.92-3,9.36,9.36,0,0,0,1.95-3.39,8.11,8.11,0,0,0-.88-5.82,45.09,45.09,0,0,0-3.31-5c-1-1.53-2.23-3.28-2.23-5.2a8.73,8.73,0,0,1,1-3.17,7.14,7.14,0,0,0,.56-4.1c-.43-2.46-2.17-4.45-3.81-6.23-2.05-2.23-4-4.31-4.76-7.32a13.18,13.18,0,0,1,.82-9.18c.84-1.71-1.61-3.2-2.59-1.51a12.33,12.33,0,0,1-23-4.26,1.5,1.5,0,0,0-2.5-.66c-6.32,7.13-19.48,5.18-23.52-3.42l-2.59,1.51a12.94,12.94,0,0,1-2.29,16.69c-4.87,4.07-12.7,3.33-17-1.17A1.51,1.51,0,0,0,677,97.12a11.56,11.56,0,0,1-20.81,8.18c-.87-1.11-2.49-.09-2.56,1.06a10,10,0,0,1-17.45,6.06,1.51,1.51,0,0,0-2.5.67c-2.42,8.07-5.58,18.08-14.86,20.31-3.92.94-8-.13-10.33-3.61-2.47-3.74-2.86-8.72-2.35-13.08a25.8,25.8,0,0,1,6.1-13.78c1.26-1.45-.85-3.58-2.12-2.12Z"/><path d="M610.09,99.49c-3-7.44-5.3-15.81-2.61-23.69,2.09-6.14,7.3-11.17,14.1-10.82a10.53,10.53,0,0,1,8.27,4.33,1.52,1.52,0,0,0,2.59,0c2.38-4.61,5.06-9.88,9.9-12.36,3.53-1.81,8.91-1.73,11.28,1.9a1.52,1.52,0,0,0,2.74-.36,17.77,17.77,0,0,1,28.57-9.64,1.52,1.52,0,0,0,2.36-.3c4.82-9.64,17-13.86,27.12-10.92A19.62,19.62,0,0,1,722.18,42a1.52,1.52,0,0,0,2.35-.3c3.29-4.43,9.37-8.22,15-6.34,4.3,1.42,7.85,6.88,5.56,11.25-.56,1.06.39,2.68,1.69,2.2a7.67,7.67,0,0,1,8.93,11.86c-1,1.35.85,2.59,2,2.05,3.49-1.57,8.65-1.49,11.12,1.87,1.93,2.63,1.55,7-1.51,8.6a1.51,1.51,0,0,0,.75,2.8c3.82,0,9.32.2,11.64,3.83,1.44,2.26,1.4,6.59-1.71,7.39-1.15.3-1.58,2.22-.35,2.74,6.59,2.85,14.65,6.18,18,13.09,2.28,4.77,1.79,12.65-3.78,15a1.52,1.52,0,0,0-.36,2.74c5.69,4,8.05,12.33,5.08,18.67a15.61,15.61,0,0,1-17.52,8.26c-1.87-.47-2.67,2.42-.8,2.89a18.75,18.75,0,0,0,18-5.38,17.77,17.77,0,0,0,3.44-18.32,18.35,18.35,0,0,0-6.65-8.71l-.36,2.74c5.27-2.21,7.65-7.8,7.2-13.31-.54-6.48-4.72-11.38-10-14.85a68,68,0,0,0-10.67-5.4l-.36,2.74c4.77-1.22,5.78-7.11,3.9-11.06-2.51-5.29-9.48-6.07-14.63-6,.26.93.51,1.86.76,2.79,4.51-2.31,5.34-8.73,2.59-12.7-3.38-4.89-10.21-5.2-15.22-3l2.05,2.05A10.65,10.65,0,0,0,746,45.87l1.69,2.2c3.11-5.94-.88-13.13-6.76-15.44-7.14-2.8-14.85,1.87-19,7.51l2.36-.31c-9-8.25-23.68-7.84-33.15-.55A22.47,22.47,0,0,0,684.7,47l2.35-.3a20.77,20.77,0,0,0-33.58,11l2.74-.36c-3-4.64-9.27-5.51-14.15-3.53-6,2.43-9.38,8.52-12.21,14h2.59c-4.06-6-12.5-7.35-18.75-4.12-7.31,3.77-10.61,12.51-10.4,20.34a47.52,47.52,0,0,0,3.91,16.27c.71,1.77,3.61,1,2.89-.8Z"/><path d="M676.62,207.58c-4.26,3-4.14,8.84-1.64,13a32.11,32.11,0,0,0,5.34,6.18l7.06,7,14.49,14.24,7.06,7,3.36,3.3c1,1,2.07,2.06,3.6,2.13a7.52,7.52,0,0,0,3.7-1.29c1.22-.66,2.42-1.33,3.62-2,2.46-1.4,4.87-2.88,7.25-4.42A159.51,159.51,0,0,0,744,242.7a154.14,154.14,0,0,0,23.53-23.83q2.9-3.65,5.56-7.45c1.79-2.56,3.52-5.47,3.5-8.69,0-4.7-6.42-7.64-10.47-6.18-1.8.65-1,3.55.8,2.9a5.78,5.78,0,0,1,4.68.67c1.79,1,2.28,2.27,1.78,4.28-.62,2.49-2.25,4.64-3.72,6.7s-2.95,4-4.51,6a153.55,153.55,0,0,1-20.73,21.39,151.36,151.36,0,0,1-24.51,17,19.73,19.73,0,0,1-3.27,1.74c-1.27.41-2.27-1.17-3.09-2l-6.36-6.26-12.72-12.5c-4.6-4.52-9.31-9-13.81-13.59-1.85-1.91-3.72-4.07-4.3-6.73-.45-2.06,0-4.64,1.79-5.93,1.57-1.1.07-3.71-1.51-2.59Z"/><path d="M721.9,280.45a120.09,120.09,0,0,0,34.51-22.17,136,136,0,0,0,25.4-31.84,156,156,0,0,0,10.14-21c.71-1.8-2.19-2.58-2.9-.8a145.62,145.62,0,0,1-19.48,34.8A123.35,123.35,0,0,1,741,266.69a114.31,114.31,0,0,1-19.91,10.86,1.57,1.57,0,0,0-1.05,1.85,1.52,1.52,0,0,0,1.85,1.05Z"/><path class="cls-3" d="M789.5,207c30,19,57,44,69.7,83.94,8.85,27.82,12.74,56.95,16.83,85.86-15.14,0-64.4.24-79.53.2"/><path d="M788.74,208.3c19,12.07,36.76,26.63,50,45a134.4,134.4,0,0,1,16.88,31.72c5.07,13.7,8.39,28.12,11.16,42.44,3.2,16.46,5.47,33.09,7.82,49.69l1.45-1.9c-9.75,0-19.5,0-29.25.06l-36.1.13q-7.08,0-14.18,0a1.5,1.5,0,0,0,0,3c9.75,0,19.5,0,29.25-.06q18-.06,36.09-.13,7.1,0,14.19,0a1.52,1.52,0,0,0,1.44-1.9c-4.21-29.76-8-60.06-17.74-88.63a143.09,143.09,0,0,0-39-59,214.66,214.66,0,0,0-30.48-23c-1.64-1-3.14,1.56-1.52,2.6Z"/><path d="M663.05,228.6c-4.9,24.53-9.52,49.14-10.73,74.17-.36,7.4-.45,14.82-.32,22.23,0,1.93,3,1.93,3,0a328.66,328.66,0,0,1,1.5-38.17c1.18-11.93,3-23.77,5.21-35.55,1.34-7.31,2.78-14.6,4.24-21.88.37-1.89-2.52-2.69-2.9-.8Z"/><path d="M680,252c-2.32,20.32-4.15,40.68-4.86,61.12q-.32,9.15-.41,18.29a1.5,1.5,0,0,0,3,0q.35-30.68,3.32-61.21.9-9.12,2-18.2c.22-1.91-2.78-1.9-3,0Z"/><path d="M785.29,218a473.39,473.39,0,0,1-5,90.51q-1.95,12.78-4.59,25.43c-.4,1.89,2.49,2.69,2.89.8a479.7,479.7,0,0,0,10.06-90.9q.18-12.91-.34-25.84c-.08-1.92-3.08-1.93-3,0Z"/><path d="M801.28,219.88c2.19,15.16,1.8,30.7.72,45.94a495.24,495.24,0,0,1-6.2,49.27q-2.13,12.3-4.75,24.51c-.4,1.88,2.49,2.69,2.9.8q4.92-22.95,8.08-46.24a372.88,372.88,0,0,0,3.78-50,175.86,175.86,0,0,0-1.64-25.12c-.28-1.91-3.17-1.1-2.89.79Z"/><path d="M676.5,328.5a17.43,17.43,0,0,1,8.67,2.63c2.65,1.58,5.14,3.4,7.94,4.73a64.91,64.91,0,0,0,19.33,5.42c14.13,1.92,28.54.64,42.57-1.52,7.67-1.19,15.29-2.7,22.89-4.31,1.89-.4,1.09-3.3-.8-2.9-13.64,2.9-27.4,5.51-41.34,6.37-13.4.83-27.71.3-40.18-5.2-3.22-1.43-6-3.48-9-5.27a20.58,20.58,0,0,0-10-2.95c-1.93-.06-1.93,2.94,0,3Z"/><path d="M804,377.19q1.83-25.26,3.64-50.52c.14-1.92-2.86-1.91-3,0q-1.82,25.26-3.64,50.52c-.13,1.93,2.87,1.92,3,0Z"/><path d="M791.93,341.37a21.88,21.88,0,0,1,7.73,11c.56,1.84,3.46,1.05,2.89-.8a25.16,25.16,0,0,0-9.11-12.81,1.51,1.51,0,0,0-2.05.54,1.53,1.53,0,0,0,.54,2.05Z"/><path d="M765.5,189.5a64.12,64.12,0,0,1,8.43.24,22,22,0,0,1,7.9,2.71c3.79,2.15,9.51,6.76,7.37,11.79a1.58,1.58,0,0,0,.54,2.06,1.53,1.53,0,0,0,2.06-.54c2.66-6.27-2.09-11.82-7.12-15.09a24.94,24.94,0,0,0-9.22-3.71,58.16,58.16,0,0,0-10-.46,1.5,1.5,0,0,0,0,3Z"/><path d="M752.82,505.51a143.26,143.26,0,0,0,68.09,2.21,141.31,141.31,0,0,0,18.73-5.33c1.8-.66,1-3.56-.8-2.9a139,139,0,0,1-85.22,3.13,1.5,1.5,0,0,0-.8,2.89Z"/><path d="M650.93,63.19c-4.8-8.24-4.68-18.29-2.41-27.31,2-7.87,6.12-17.21,15-19,3.88-.79,8.5.1,11,3.41a1.52,1.52,0,0,0,2.59,0c3.24-5.42,6.91-11.78,13-14.38,4.62-2,11.19-1.41,13.86,3.37a1.52,1.52,0,0,0,2.05.53c5.34-2.76,11.63-6.15,17.87-5.07,4.64.8,9.49,4.38,9.35,9.49a1.52,1.52,0,0,0,2.56,1.06A29.57,29.57,0,0,1,756,8.33c3.38.13,7.39.71,10.19,2.78,2,1.49,3.64,5.32.88,7-1.39.84-.48,3.39,1.15,2.74a8.48,8.48,0,0,1,8.66,1.7,11.18,11.18,0,0,1,3.58,9.83c-.8,8.6-8.12,14.49-14.35,19.52-1.5,1.22.63,3.33,2.12,2.13,5.85-4.73,11.93-9.83,14.34-17.24,2.1-6.46.7-13.92-5.36-17.69A11,11,0,0,0,767.44,18c.39.92.78,1.83,1.16,2.75a6.64,6.64,0,0,0,2.64-7.54c-.9-3.24-3.86-5.23-6.86-6.33-6.45-2.36-14.09-1.93-20.49.36a32.43,32.43,0,0,0-10.25,6l2.56,1.06C736.36,8,731,3.28,725.33,2c-7.31-1.69-14.56,2-20.87,5.23l2.06.54c-3.21-5.75-10.82-7-16.65-5-7.28,2.6-11.64,9.69-15.4,16h2.59a13.37,13.37,0,0,0-11.18-5.16A17.52,17.52,0,0,0,653.74,19c-3.5,3.54-5.69,8.16-7.19,12.85A52,52,0,0,0,644,47.44a33.88,33.88,0,0,0,4.34,17.26,1.5,1.5,0,0,0,2.59-1.51Z"/><path class="cls-3" d="M659.5,219c-51,29-73.31,102.83-87.65,141A92,92,0,0,1,599,365.23"/><path d="M658.74,217.7a116.27,116.27,0,0,0-27,21.7,176.67,176.67,0,0,0-21.23,28.25A286.4,286.4,0,0,0,594,299.11c-4.6,10.13-8.76,20.46-12.69,30.87-3.36,8.9-6.53,17.88-9.84,26.8-.34,1-.7,1.89-1.05,2.83a1.52,1.52,0,0,0,1.45,1.9,92.11,92.11,0,0,1,26.73,5.16c1.82.65,2.61-2.25.79-2.89a95,95,0,0,0-27.52-5.27l1.44,1.9c3.2-8.52,6.23-17.11,9.4-25.64,3.77-10.14,7.71-20.21,12.07-30.1a306.08,306.08,0,0,1,15.83-31.31,184.78,184.78,0,0,1,20.27-28.53,118.51,118.51,0,0,1,25.76-22.36c1.19-.75,2.41-1.47,3.64-2.17a1.51,1.51,0,0,0-1.52-2.6Z"/><path d="M652.44,323.94a80.76,80.76,0,0,1-20.53,17.53c-6.95,4.17-14.28,7.66-21.06,12.1a109.49,109.49,0,0,0-13.41,10.37c-1.44,1.3.69,3.41,2.12,2.12a120,120,0,0,1,23-15.91c7-3.86,14.06-7.59,20.36-12.59a80.36,80.36,0,0,0,11.68-11.5c1.23-1.47-.88-3.6-2.12-2.12Z"/><path class="cls-2" d="M595.22,502.74l25.17,22.92-.13.12a4.83,4.83,0,0,1,.42.37c4.84,5.36-12.53,29.22-38.82,53.28s-51.53,39.2-56.37,33.84a3.26,3.26,0,0,1-.76-1.77l-63.74-89c7,.58,25.7-10.75,45.12-27.77,21.22-18.61,35.62-37.29,33.28-42.89L585,493.47"/><path class="cls-2" d="M601.79,494.67a6,6,0,0,1-1.55,3.93L589.62,489c-.79-13.64-5-49.18-27.44-66.89-13.74-10.83-32.48-13.34-55.71-7.43-12.76,3.24-22.05,9.93-27.62,19.89-12.93,23.16-2.69,56.61-2.59,56.94a6,6,0,1,1-11.45,3.59c-.49-1.57-11.86-38.76,3.57-66.38,7.23-12.95,19.05-21.59,35.13-25.68,27.06-6.87,49.31-3.61,66.14,9.68C602.28,438.5,601.83,492.39,601.79,494.67Z"/><path class="cls-17" d="M599.79,492.67a6,6,0,0,1-1.55,3.93L587.62,487c-.79-13.64-5-49.18-27.44-66.89-13.74-10.83-32.48-13.34-55.71-7.43-12.76,3.24-22.05,9.93-27.62,19.89-12.93,23.16-2.69,56.61-2.59,56.94a6,6,0,1,1-11.45,3.59c-.49-1.57-11.86-38.76,3.57-66.38,7.23-12.95,19.05-21.59,35.13-25.68,27.06-6.87,49.31-3.61,66.14,9.68C600.28,436.5,599.83,490.39,599.79,492.67Z"/><ellipse class="cls-18" cx="497.68" cy="478.68" rx="55.5" ry="11.5" transform="translate(-192.01 444.73) rotate(-41.07)"/><ellipse class="cls-3" cx="499.7" cy="479.68" rx="55.5" ry="11.5" transform="translate(-192.17 446.31) rotate(-41.07)"/><path class="cls-18" d="M598.24,496.6l26.25,23.75-.14.13a4,4,0,0,1,.44.38c5.05,5.56-13.07,30.28-40.49,55.22s-53.75,40.63-58.8,35.07a3.3,3.3,0,0,1-.79-1.83l-66.49-92.19c7.31.6,26.81-11.14,47.06-28.78,22.14-19.29,37.16-38.65,34.72-44.45L587.62,487"/><polygon class="cls-18" points="419.49 562.35 430.49 563.35 468.53 531.43 458.22 517.13 419.49 562.35"/><polyline class="cls-18" points="514.08 596.85 400.49 573.35 409.18 560.85 497.68 571.84"/><path class="cls-19" d="M391.71,561c-6.68,9-9.57,18.18-6.44,20.5s11.08-3.09,17.77-12.09,9.57-18.17,6.44-20.5S398.4,552,391.71,561Z"/><path d="M586.41,361.91a62,62,0,0,1-11.11,7c-4.45,2.29-8.85,4.67-13.29,7-9,4.66-18.22,8.9-28.15,11.18-8.72,2-17.72,2.58-26.35,5-6.42,1.79-13.09,4.1-18.44,8.19-6.5,5-10,12.3-12.05,20.1-.72,2.81,3.62,4,4.34,1.2,1.68-6.51,4.4-12.7,9.61-17.09,4.66-3.93,11-6.11,16.93-7.83,8.46-2.47,17.29-3.08,25.88-4.94C543.71,389.56,553,385.53,562,381c5-2.55,10-5.24,15-7.83a71.22,71.22,0,0,0,12.6-8,2.26,2.26,0,0,0,0-3.18,2.3,2.3,0,0,0-3.18,0Z"/><path class="cls-8" d="M553.53,440.43s-6.38-23.75,38.05-29.9,82,32.8,167.73,12.38c42.88-10.21,64.56-30.47,74.69-46.41"/><path d="M389.1,551.41c-9.2.68-19,5.53-23.53,13.84-.32.56.55,1.07.86.5,4.39-8,13.82-12.68,22.67-13.34.64,0,.65-1,0-1Z"/><path d="M382,568.28a22,22,0,0,0-4.71,1.31,12,12,0,0,0-3.44,2c-.37.32.16.85.53.53a11.34,11.34,0,0,1,3.36-1.88,21.58,21.58,0,0,1,4.45-1.22c.48-.07.28-.79-.19-.72Z"/><rect class="cls-20" x="179" y="250.26" width="198.57" height="12.57"/><polygon class="cls-21" points="193.96 734.21 247.4 760.21 399.67 747.21 315.17 722.49 193.96 734.21"/><polygon class="cls-21" points="4.84 848.78 85.64 873.93 388 843.75 388 856.32 83.04 886.5 4.84 856.32 4.84 848.78"/><polyline class="cls-21" points="4.84 848.78 299.38 816.09 388 843.75 362.66 846.28 296.77 826.14 29.08 856.32"/><polyline class="cls-22" points="166.3 122 223.79 163.88 223.79 151.68 186.65 122"/><polyline class="cls-22" points="236.82 296.2 284.96 262.83 298.57 262.83 236.82 309.33"/><polyline class="cls-22" points="223.79 491.39 172.96 458.21 189.91 457.34 223 478.5"/><polygon class="cls-22" points="236.82 795.86 285 757.5 301 756.5 237 809.5 236.82 795.86"/><polygon class="cls-3" points="258.34 641.21 243.69 615.71 247.62 606.21 254.69 613.95 266.05 641.21 258.34 641.21"/><polygon class="cls-3" points="313 641.21 313.9 616.35 328.19 609.7 329.26 624.21 324.42 641.21 313 641.21"/><polygon class="cls-3" points="320.04 608.71 325.74 543.25 346.19 531.17 357.44 552.96 346.19 607.78 360.39 584.96 375.45 580.88 378.37 591.71 350.48 642.21 336.4 639.21 336.4 601.21 330.84 597.12 320.04 608.71"/><polygon class="cls-3" points="288.19 585.55 270.47 532.38 276.95 516.21 291.72 525.48 290.86 497.06 319.3 476.79 326.67 492.66 339.69 516.21 333.19 534.68 317.69 549.71 314.14 571.56 300.58 560.65 288.19 585.55"/><polygon class="cls-3" points="258.91 609.21 254.69 595.47 249.9 559.21 271.38 568.51 277.52 586.3 272.69 624.21 258.91 609.21"/><polygon class="cls-3" points="274.79 644.61 264.19 622.21 277.52 586.3 290.38 593.21 288.19 578.21 300.58 560.65 313 576.21 309.46 642.21 274.79 644.61"/><polygon class="cls-18" points="296.97 642.21 288.19 578.21 300.58 560.65 316.19 573.21 312.53 642.21 296.97 642.21"/><polyline class="cls-23" points="288.19 578.21 300.58 580.88 309.46 579.55 316.19 573.21"/><polyline class="cls-23" points="302.19 640.33 300.58 580.88 300.58 560.65 309.46 579.55 309.46 642.21"/><polyline class="cls-18" points="340.09 642.21 361.69 549.71 357.69 539.71 344.69 527.71 324.6 542.71 317.69 610.71"/><polyline class="cls-23" points="335.19 639.21 353.19 556.21 343.19 559.21 333.19 607.21"/><polyline class="cls-23" points="324.69 603.71 333.19 556.21 324.6 542.71 353.19 556.21 344.69 527.71"/><line class="cls-23" x1="353.19" y1="556.21" x2="361.69" y2="549.71"/><line class="cls-23" x1="343.19" y1="559.21" x2="333.19" y2="556.21"/><polyline class="cls-18" points="283.19 593.21 271.19 562.21 262.19 529.21 274.19 512.21 288.19 522.8 291.72 573.21"/><polyline class="cls-18" points="288.19 522.8 288.19 498.55 316.19 479.4 331.19 509.21 328.67 539.66"/><polyline class="cls-18" points="326.67 500.24 331.19 497.06 343.19 505.27 339.69 531.44"/><polyline class="cls-18" points="281.19 516.21 284.79 509.53 288.19 511.21"/><polyline class="cls-18" points="350.48 597.71 357.44 580.88 371.19 576.21 380.99 586.96 350.48 642.21"/><polyline class="cls-18" points="258.91 642.21 243.19 616.21 248.19 606.21 258.91 609.21 271.38 642.21"/><polyline class="cls-18" points="253.81 607.78 250.19 599.21 245.5 566.21 247.62 552.71 259.19 551.21 271.19 562.21"/><polyline class="cls-18" points="264.19 622.21 276.95 591.44 290.86 597.71"/><polyline class="cls-18" points="334.93 642.21 333.19 601.21 324.19 604.21 313.9 616.35 327.19 611.32"/><polyline class="cls-23" points="274.31 514.25 283.74 527.71 272.69 532.71 262.19 529.21"/><line class="cls-23" x1="272.69" y1="532.71" x2="285.88" y2="595.47"/><polyline class="cls-23" points="288.19 576.21 283.74 527.71 287.03 523.48"/><line class="cls-23" x1="262.69" y1="529.71" x2="282.69" y2="527.71"/><polyline class="cls-23" points="267.48 642.21 254.69 612.71 250.69 615.71 262.69 641.71"/><line class="cls-23" x1="243.69" y1="615.71" x2="250.69" y2="615.71"/><line class="cls-23" x1="254.69" y1="612.71" x2="258.91" y2="609.21"/><polyline class="cls-18" points="346.19 641.21 372.19 589.21 371.19 576.21"/><polyline class="cls-18" points="307.49 566.21 303.69 516.21 299.19 500.21 288.19 498.55"/><polyline class="cls-18" points="299.19 500.21 316.19 479.4 320.04 514.25 314.14 571.56"/><polyline class="cls-18" points="331.19 509.21 320.04 516.21 303.69 516.21 288.19 500.29"/><polyline class="cls-18" points="333.19 534.68 336.4 512.21 343.19 505.27"/><line class="cls-18" x1="336.4" y1="512.21" x2="331.19" y2="512.21"/><polyline class="cls-18" points="380.99 586.96 364.19 590.21 357.44 580.88"/><line class="cls-18" x1="342.15" y1="642.21" x2="364.19" y2="590.21"/><polyline class="cls-18" points="319.3 641.21 324.42 632.53 327.19 620.21 327.19 611.32 332.19 603.21"/><line class="cls-18" x1="324.19" y1="633.21" x2="334.33" y2="628"/><line class="cls-18" x1="328.19" y1="620.21" x2="333.49" y2="622.21"/><line class="cls-23" x1="326.47" y1="642.21" x2="333.49" y2="629.61"/><polyline class="cls-23" points="282.01 642.21 274.88 620.21 280.69 598.71 290.38 606.21 291.72 604.8"/><line class="cls-23" x1="266.05" y1="619.62" x2="274.88" y2="620.21"/><line class="cls-23" x1="277.53" y1="593.21" x2="280.69" y2="598.71"/><line class="cls-23" x1="290.38" y1="606.21" x2="292.96" y2="642.21"/><polyline class="cls-23" points="265.45 616.21 253.69 587.71 258.34 580.3 269.69 583.71 274.19 595.96"/><line class="cls-23" x1="250.69" y1="595.96" x2="253.69" y2="590.21"/><polyline class="cls-23" points="254.69 584.96 252.19 568.51 263.94 573.21 266.7 582.81"/><polyline class="cls-23" points="279.11 591.44 270.47 571.56 272.13 564.65"/><line class="cls-23" x1="263.94" y1="573.21" x2="270.47" y2="571.56"/><polyline class="cls-23" points="271.19 605.34 263.94 588.9 255.88 591.44"/><line class="cls-23" x1="263.94" y1="588.9" x2="269.69" y2="583.71"/><line class="cls-23" x1="252.19" y1="568.51" x2="247.62" y2="552.71"/><path class="cls-24" d="M358.94,663.8l-9,59.6h0c-1.57,10.37-9.39,17.93-18.55,17.93H280.19c-9.16,0-17-7.56-18.55-17.93h0l-9-59.6-2.14-14.17a6.45,6.45,0,0,1,6.38-7.42H354.7a6.45,6.45,0,0,1,6.38,7.42Z"/><path class="cls-6" d="M363.29,666.46l-8.44,57.19h0c-1.46,9.92-9.24,17.21-18.35,17.21h-46c-9.11,0-16.88-7.29-18.35-17.21h0l-8.44-57.19-3.06-20.72H366.35Z"/><path class="cls-25" d="M358.51,663.48l-9,59.6h0c-1.57,10.37-9.4,17.93-18.55,17.93H279.76c-9.16,0-17-7.56-18.55-17.93h0l-9-59.6L250,649.31a6.46,6.46,0,0,1,6.38-7.42h97.85a6.45,6.45,0,0,1,6.38,7.42Z"/><polygon class="cls-3" points="120.02 365.6 132.45 343.97 129.11 335.92 123.12 342.48 113.48 365.6 120.02 365.6"/><polygon class="cls-3" points="119.54 338.46 123.12 326.8 127.18 296.06 108.97 303.94 103.75 319.03 107.85 351.18 119.54 338.46"/><path class="cls-26" d="M196,34.09h-3.35a39.07,39.07,0,0,0-39.07,39.07V814.83a39.08,39.08,0,0,0,39.07,39.08H196a39.08,39.08,0,0,0,39.08-39.08V73.16A39.08,39.08,0,0,0,196,34.09Zm30.08,780.74A30.11,30.11,0,0,1,196,844.91h-3.35a30.11,30.11,0,0,1-30.07-30.08V73.16a30.1,30.1,0,0,1,30.07-30.07H196a30.11,30.11,0,0,1,30.08,30.07Z"/><path class="cls-26" d="M196,25.09h-3.35a48.12,48.12,0,0,0-48.07,48.07V814.83a48.13,48.13,0,0,0,48.07,48.08H196a48.14,48.14,0,0,0,48.08-48.08V73.16A48.13,48.13,0,0,0,196,25.09Zm30.08,789.74A30.11,30.11,0,0,1,196,844.91h-3.35a30.11,30.11,0,0,1-30.07-30.08V73.16a30.1,30.1,0,0,1,30.07-30.07H196a30.11,30.11,0,0,1,30.08,30.07Z"/><polygon class="cls-27" points="4.84 446.41 59.58 464.01 231.38 455.21 171.66 443.9 4.84 446.41"/><polygon class="cls-3" points="73.66 365.6 72.9 344.51 60.78 338.88 59.88 351.18 63.98 365.6 73.66 365.6"/><polygon class="cls-3" points="67.69 338.04 62.86 282.52 45.52 272.27 35.98 290.75 45.52 337.25 33.48 317.89 20.7 314.43 18.23 323.62 41.88 366.44 53.82 363.9 53.82 331.67 58.54 328.2 67.69 338.04"/><polygon class="cls-3" points="94.71 318.39 109.74 273.3 104.23 259.59 91.71 267.45 92.44 243.35 68.33 226.16 62.07 239.61 51.03 259.59 56.54 275.25 69.69 288 72.69 306.53 84.19 297.28 94.71 318.39"/><polygon class="cls-3" points="106.07 368.48 115.06 349.48 103.75 319.03 92.84 324.89 94.71 312.17 84.19 297.28 73.66 310.47 76.66 366.44 106.07 368.48"/><polygon class="cls-28" points="87.26 366.44 94.71 312.17 84.19 297.28 70.96 307.93 74.06 366.44 87.26 366.44"/><polyline class="cls-28" points="94.71 312.17 84.19 314.43 76.66 313.3 70.96 307.93"/><polyline class="cls-28" points="82.83 364.85 84.19 314.43 84.19 297.28 76.66 313.3 76.66 366.44"/><polyline class="cls-28" points="50.69 366.44 32.37 288 35.77 279.52 46.79 269.34 63.83 282.06 69.69 339.73"/><polyline class="cls-28" points="54.85 363.9 39.58 293.51 48.06 296.06 56.54 336.76"/><polyline class="cls-28" points="63.75 333.79 56.54 293.51 63.83 282.06 39.58 293.51 46.79 269.34"/><line class="cls-28" x1="39.58" y1="293.51" x2="32.37" y2="288"/><line class="cls-28" x1="48.06" y1="296.06" x2="56.54" y2="293.51"/><polyline class="cls-28" points="98.95 324.89 109.12 298.6 116.76 270.61 106.58 256.2 94.71 265.18 91.71 307.93"/><polyline class="cls-28" points="94.71 265.18 94.71 244.61 70.96 228.37 58.24 253.65 60.37 279.48"/><polyline class="cls-28" points="62.07 246.04 58.24 243.35 48.06 250.31 51.03 272.51"/><polyline class="cls-28" points="100.64 259.59 97.59 253.93 94.71 255.35"/><polyline class="cls-28" points="41.88 328.71 35.98 314.43 24.32 310.47 16 319.59 41.88 366.44"/><polyline class="cls-28" points="119.54 366.44 132.87 344.4 128.63 335.92 119.54 338.46 108.97 366.44"/><polyline class="cls-28" points="123.86 337.25 126.93 329.98 130.91 301.99 129.11 290.54 119.3 289.27 109.12 298.6"/><polyline class="cls-28" points="115.06 349.48 104.23 323.39 92.44 328.71"/><polyline class="cls-28" points="55.06 366.44 56.54 331.67 64.18 334.22 72.9 344.51 61.63 340.25"/><polyline class="cls-28" points="106.47 257.93 98.48 269.34 107.85 273.58 116.76 270.61"/><line class="cls-28" x1="107.85" y1="273.58" x2="96.66" y2="326.8"/><polyline class="cls-28" points="94.71 310.47 98.48 269.34 95.69 265.75"/><line class="cls-28" x1="116.33" y1="271.04" x2="99.37" y2="269.34"/><polyline class="cls-28" points="112.27 366.44 123.12 341.43 126.51 343.97 116.33 366.02"/><line class="cls-28" x1="132.45" y1="343.97" x2="126.51" y2="343.97"/><line class="cls-28" x1="123.12" y1="341.43" x2="119.54" y2="338.46"/><polyline class="cls-28" points="45.52 365.6 23.47 321.5 24.32 310.47"/><polyline class="cls-28" points="78.34 301.99 81.56 259.59 85.38 246.02 94.71 244.61"/><polyline class="cls-28" points="85.38 246.02 70.96 228.37 67.69 257.93 72.69 306.53"/><polyline class="cls-28" points="58.24 253.65 67.69 259.59 81.56 259.59 94.71 246.09"/><polyline class="cls-28" points="56.54 275.25 53.82 256.2 48.06 250.31"/><line class="cls-28" x1="53.82" y1="256.2" x2="58.24" y2="256.2"/><polyline class="cls-28" points="16 319.59 30.25 322.35 35.98 314.43"/><line class="cls-28" x1="48.94" y1="366.45" x2="30.25" y2="322.35"/><polyline class="cls-28" points="68.33 365.6 63.98 358.24 61.63 347.79 61.63 340.25 57.39 333.37"/><line class="cls-29" x1="64.18" y1="358.81" x2="55.58" y2="354.39"/><line class="cls-29" x1="60.78" y1="347.79" x2="56.29" y2="349.48"/><line class="cls-28" x1="62.24" y1="366.45" x2="56.29" y2="355.76"/><polyline class="cls-28" points="99.95 366.44 105.99 347.79 101.07 329.55 92.84 335.92 91.71 334.72"/><line class="cls-28" x1="113.48" y1="347.29" x2="105.99" y2="347.79"/><line class="cls-28" x1="103.75" y1="324.89" x2="101.07" y2="329.55"/><line class="cls-28" x1="92.84" y1="335.91" x2="90.66" y2="366.45"/><polyline class="cls-28" points="113.99 344.4 123.97 320.23 120.02 313.94 110.4 316.83 106.58 327.22"/><line class="cls-28" x1="126.51" y1="327.22" x2="123.97" y2="322.35"/><polyline class="cls-28" points="123.12 317.89 125.24 303.94 115.27 307.93 112.93 316.07"/><polyline class="cls-28" points="102.41 323.39 109.74 306.53 108.32 300.67"/><line class="cls-28" x1="115.27" y1="307.93" x2="109.74" y2="306.53"/><polyline class="cls-28" points="109.12 335.17 115.27 321.24 122.11 323.39"/><line class="cls-28" x1="115.27" y1="321.23" x2="110.4" y2="316.83"/><line class="cls-28" x1="125.24" y1="303.94" x2="129.11" y2="290.54"/><polygon class="cls-30" points="29.85 384.76 38.63 435.3 41.28 450.51 122.02 450.51 124.67 435.3 133.46 384.76 136.64 366.44 26.66 366.44 29.85 384.76"/><polygon class="cls-6" points="37.6 387.75 45.83 438.29 48.31 453.5 123.93 453.5 126.4 438.29 134.63 387.75 137.61 369.44 34.62 369.44 37.6 387.75"/><polygon class="cls-29" points="29.74 384.48 38.53 435.03 41.17 450.24 121.92 450.24 124.57 435.03 133.35 384.48 136.54 366.17 26.56 366.17 29.74 384.48"/><rect class="cls-1" x="4.84" y="109.43" width="201.16" height="13.07"/><polygon class="cls-1" points="232 464.5 61 474.5 61 465.5 231 455.5 232 464.5"/><polyline class="cls-1" points="61 474.5 5 454.5 4.84 446.41"/><polygon class="cls-31" points="400 747.5 245 759.5 245 767.5 400 755.5 400 747.5"/><polygon class="cls-3" points="275.54 184.5 272.57 180.55 270.16 144.24 275.54 133.67 281.13 136.13 288.68 142.32 282.81 150.45 295.04 146.24 310.41 145.71 319.94 145.1 325.11 141.13 336.6 154.9 342.5 155 337.02 183.69 275.54 184.5"/><polygon class="cls-32" points="305 185.5 291 184.5 282 149.5 291 145.5 305 185.5"/><polygon class="cls-3" points="313 123.5 319.94 142.48 327.66 138.74 313 123.5"/><polygon class="cls-3" points="321.43 119.77 325.72 105.72 333.48 105.72 340.95 95.87 348.13 112.49 335.66 141.65 332.83 139.94 327.43 120.47 321.43 119.77"/><polygon class="cls-3" points="284.45 130.67 284.45 109.46 287.77 105.38 293.26 105.38 295.72 107.66 295.04 125.59 290.41 137.45 288.68 131.99 284.45 132.91 284.45 130.67"/><polygon class="cls-3" points="298 145.5 301.67 113.54 307.54 121.57 310.41 123.38 317.76 142.48 298 145.5"/><polygon class="cls-28" points="281.44 186.8 275.24 181.84 273.5 149.07 274.69 140.33 277.47 134.24 283.83 131.99 291.77 133.58 294.55 139.94 290.58 148.67 297.97 181.84 300.11 184.42 292.56 187.99 281.44 186.8"/><polyline class="cls-28" points="275.24 181.84 282.63 179.25 287.87 180.55 295.01 186.84"/><polyline class="cls-28" points="281.44 186.8 287.87 180.55 297.97 181.84 306.97 183.67 313.07 186.84"/><polyline class="cls-28" points="287.87 180.55 285.13 136.13 291.77 133.58"/><polyline class="cls-28" points="293.25 142.79 285.13 136.13 277.47 134.24 282.63 179.25"/><polyline class="cls-28" points="273.5 149.07 277.07 143.91 277.47 134.24"/><polyline class="cls-28" points="283.83 131.99 285.13 110.4 295.01 97.4 303.69 109.35 302.1 120.47 294.55 139.94"/><polyline class="cls-28" points="285.13 110.4 291.77 107.66 296.91 107.66 300.11 109.03 303.69 109.35"/><polyline class="cls-28" points="295.51 137.45 296.91 107.66 295.01 97.4 291.77 107.66 288.45 132.91"/><polyline class="cls-28" points="300.11 125.59 300.11 109.03 297.97 101.49"/><polyline class="cls-28" points="300.11 184.42 302.49 189.19 310.83 193.16 320.37 191.57 323.02 187.99 323.94 145.1 329.76 141.65 336.83 139.94 329.11 121.66 316.79 115.31 305.67 111.73 302.1 120.47"/><polyline class="cls-28" points="302.49 189.19 306.97 183.67 300.11 145.93 304.25 115.22"/><polyline class="cls-28" points="310.83 193.16 313.07 186.84 318.47 183.05 310.83 145.93 311.63 118.67 305.67 111.73"/><polyline class="cls-28" points="290.58 148.67 300.11 145.93 310.83 145.93 323.94 145.1 314.41 119.28 311.63 118.67"/><line class="cls-28" x1="314.41" y1="119.28" x2="329.1" y2="121.66"/><polyline class="cls-28" points="323.94 120.83 326.72 138.74 311.43 125.59"/><polyline class="cls-28" points="323.02 187.99 329.9 191.97 338.27 193.16 344.37 190.57 343.41 186.84 348.57 153.44 348.57 147.06 336.83 139.94 345.81 107.66 344.79 93.77 338.24 105.38 332.54 129.78"/><polyline class="cls-28" points="329.9 191.97 333.47 186.01 341.02 153.04 326.72 138.74"/><line class="cls-28" x1="348.57" y1="153.44" x2="341.02" y2="153.04"/><polyline class="cls-28" points="323.21 179.25 333.47 186.01 343.41 186.84"/><polyline class="cls-28" points="325.43 118.67 328.31 105.78 335.06 99.82 344.79 93.77 354 113.54 341.02 142.48"/><polyline class="cls-28" points="328.31 105.78 338.24 105.38 345.81 107.66 350.79 111.73 354 113.54"/><polyline class="cls-28" points="339.66 141.65 350.79 111.73 348.39 101.49"/><line class="cls-28" x1="335.06" y1="99.82" x2="338.24" y2="105.38"/><polygon class="cls-33" points="270.59 198.39 277.16 236.16 279.13 247.52 339.46 247.52 341.44 236.16 348.01 198.39 350.38 184.71 268.21 184.71 270.59 198.39"/><polygon class="cls-6" points="276.39 200.35 282.54 237.36 284.38 248.5 340.89 248.5 342.74 237.36 348.89 200.35 351.11 186.94 274.16 186.94 276.39 200.35"/><polygon class="cls-34" points="270.51 198.18 277.08 235.95 279.06 247.31 339.39 247.31 341.36 235.95 347.93 198.18 350.31 184.5 268.14 184.5 270.51 198.18"/></svg>