<svg xmlns="http://www.w3.org/2000/svg" viewBox="0 0 216 153.14"><defs><style>.cls-1{font-size:13.45px;font-family:Nefelibata-SansCd, Nefelibata;}.cls-2,.cls-4,.cls-7,.cls-8{fill:none;}.cls-2,.cls-4,.cls-6,.cls-7,.cls-8{stroke:#000;}.cls-2,.cls-4,.cls-6,.cls-8{stroke-miterlimit:10;}.cls-2{stroke-width:0.26px;}.cls-3{fill:#2082d8;}.cls-4{stroke-width:1.03px;}.cls-5,.cls-6{fill:#85d2fb;}.cls-6{stroke-width:0.92px;}.cls-7{stroke-linecap:round;stroke-linejoin:round;}.cls-7,.cls-8{stroke-width:1.23px;}.cls-9{fill:#fdfdff;}</style></defs><g id="Pict_1"><text class="cls-1" transform="translate(48.46 40.37)">Sample-01</text><line class="cls-2" x1="98.8" y1="30.35" x2="98.8" y2="42.96"/><path class="cls-3" d="M25.93,24.57,192,24.76h.13l.09.07A20,20,0,0,1,197,30.16,14.27,14.27,0,0,1,199.13,37a12,12,0,0,1-.36,3.58,14,14,0,0,1-1.29,3.36,22.68,22.68,0,0,1-4.32,5.64l-.12.12h-.17l-83.46.79-41.73.24L26,50.86h-.12l-.07-.07a23.7,23.7,0,0,1-4.15-6.12,18,18,0,0,1-1.79-7.14,14.88,14.88,0,0,1,1.61-7.15A21,21,0,0,1,25.93,24.57Zm0,.1a21,21,0,0,0-4.34,5.81,14.67,14.67,0,0,0-1.48,7,17.8,17.8,0,0,0,1.86,7,24,24,0,0,0,4.12,5.93l-.19-.07,41.73-.51,41.73-.44,83.46-.58-.29.12a21.94,21.94,0,0,0,4.19-5.42A13.58,13.58,0,0,0,198,40.34a11.55,11.55,0,0,0,.36-3.36,13.55,13.55,0,0,0-2-6.42,19.4,19.4,0,0,0-4.51-5.12l.22.07Z"/><path class="cls-4" d="M28.48,32.58a4.72,4.72,0,0,0-.62.78c-3.12,5,4.46,9.91,7.09,4.68a4.64,4.64,0,0,0,0-4C33.7,31.49,30.62,30.45,28.48,32.58Z"/><path class="cls-4" d="M34.13,39.78,37,43.22"/><path class="cls-5" d="M105.43,73.25V84.84s7.46.48,10.28,0,1.48-12,1.48-12Z"/><path class="cls-5" d="M105.43,89.52v11.59s7.46.48,10.28,0,1.48-12,1.48-12Z"/><path class="cls-5" d="M105.43,104.64v11.58s7.46.48,10.28,0,1.48-12,1.48-12Z"/><path class="cls-5" d="M105.43,118.76v11.59s7.46.48,10.28,0,1.48-12,1.48-12Z"/><path class="cls-3" d="M84.62,77.76s24.92,16.69,50.82-.15a30.72,30.72,0,0,1-.35,5.54c-.45,2.08-25.46,17.11-50.47-1.22Z"/><path class="cls-3" d="M84.62,93.22s25.91,16.18,50,2.15l-.23,4.28S112.9,113,85.12,100.76Z"/><path class="cls-3" d="M84.15,108.37s21.8,17.38,50.49.44c0,0,.6,4-.53,6S99.7,126,84.62,113.59Z"/><ellipse class="cls-6" cx="109.19" cy="65.74" rx="25.92" ry="7.51"/><path class="cls-7" d="M110,90.73c-17.09.9-25.88-8.8-25.88-8.8V92.88s22.6,17.4,50.95,2.25l-.24-13C134.05,86,128.44,89.77,110,90.73Z"/><path class="cls-8" d="M110.5,105.34C96,105.6,84.15,102,84.15,97.83V109s21.15,17.28,50.95-.84V98.42C134.29,102.36,120.74,105.17,110.5,105.34Z"/><path class="cls-8" d="M110.5,119.7c-14.53.79-26.35-3.36-26.35-7.51v11.17s25.71,15.4,50.95-1.2v-8.75C134.29,117.35,119.88,119.19,110.5,119.7Z"/><path class="cls-8" d="M135.1,65.09V78s-22.45,16-51.8.6l0-12.82"/><ellipse class="cls-9" cx="109.3" cy="65.74" rx="21.33" ry="5.64"/></g></svg>