<svg id="Layer_1" data-name="Layer 1" xmlns="http://www.w3.org/2000/svg" viewBox="0 0 696.91 198.31"><defs><style>.cls-1,.cls-9{fill:#75d3f7;}.cls-2{font-size:58px;font-family:BubblegumSans-Regular, Bubblegum Sans;}.cls-13,.cls-3,.cls-4,.cls-6,.cls-7,.cls-8{fill:none;}.cls-10,.cls-11,.cls-12,.cls-13,.cls-3,.cls-4,.cls-6,.cls-7,.cls-8{stroke:#000;}.cls-10,.cls-13,.cls-3,.cls-6,.cls-8{stroke-miterlimit:10;}.cls-10,.cls-3,.cls-4{stroke-width:2px;}.cls-11,.cls-12,.cls-4,.cls-7{stroke-linecap:round;stroke-linejoin:round;}.cls-10,.cls-5{fill:#0087d9;}.cls-10,.cls-11,.cls-12,.cls-5,.cls-6,.cls-7,.cls-8,.cls-9{fill-rule:evenodd;}.cls-11,.cls-12,.cls-13,.cls-7,.cls-8{stroke-width:2.93px;}.cls-11{fill:#fdfeff;}.cls-12{fill:#fff;}</style></defs><rect class="cls-1" x="18.23" y="22.93" width="124.8" height="153.6" rx="12"/><text class="cls-2" transform="translate(33.47 81.6)">App<tspan x="0" y="64" xml:space="preserve">   1</tspan></text><rect class="cls-3" x="13.43" y="15.25" width="124.8" height="153.6" rx="12"/><rect class="cls-1" x="563.73" y="22.93" width="124.8" height="153.6" rx="12"/><text class="cls-2" transform="translate(578.98 81.6)">App<tspan x="0" y="64" xml:space="preserve">   2</tspan></text><rect class="cls-4" x="558.93" y="15.25" width="124.8" height="153.6" rx="12"/><path class="cls-5" d="M164.83,129.88a.16.16,0,0,0-.12,0,.15.15,0,0,0-.11.18c-.12.1-.32-.07.34.62a1.26,1.26,0,0,0,.58.24,14.9,14.9,0,0,0,3.09.16l12.32-.13c12.64-.11,25.28.59,37.92.38,2.23,0,4.44-.07,6.66-.28,1-.1,1.88-.27,2.84-.42a.29.29,0,0,0,.29-.3.3.3,0,0,0-.3-.29c-1-.11-1.89-.26-2.85-.33-2.2-.17-4.41-.2-6.62-.27-12.65-.37-25.3-.8-38-.84l-12.37.19a20.41,20.41,0,0,0-3.06.43c-.23.06-.39.35-.49.23C164.6,129,164.72,129.63,164.83,129.88Z"/><path class="cls-5" d="M228.71,116l.06.07c1.48,1.68,3,3.33,4.58,5s3.16,3.2,4.76,4.76c1.93,1.88,3.94,3.73,6,5.47a67.47,67.47,0,0,0,6.6,4.86c.28.18,1.34.8,2,1.21q-2.28,1.54-4.47,3.23c-1.63,1.25-3.21,2.55-4.76,3.88l-12,12c0-2.43.22-9.9-.17-13-.19-1.51-.93-2.27-1.29-2.36-1.29-.36-8.22-.53-17-.52-13,0-30.27.33-39.06.31l-14.93.55,1.2-10.51c1.31-.13,3.94-.4,7.35-.85,1.68-.22,3.51-.55,5.49-.84a.22.22,0,0,0,.21-.24.22.22,0,0,0-.23-.21c-2-.08-3.87-.18-5.56-.19-5,0-8.33.22-8.33.22a1.1,1.1,0,0,0-1,1l-1.6,12.72a1.19,1.19,0,0,0,1.22,1.31L174,143.3c10.12,0,31.43-.33,44.65-.3,5,0,8.84,0,10.35.22,0,.14.06.32.08.47.44,3.29.25,11.48.26,13.19a9.44,9.44,0,0,0,.16,2.16,1.12,1.12,0,0,0,1.54.75,9.35,9.35,0,0,0,1.83-1.51c3.21-3.12,10.64-11,12-12.22s3.07-2.58,4.67-3.81,3.21-2.4,4.88-3.51a2.6,2.6,0,0,0,.8-.76,1.29,1.29,0,0,0,.14-.79,2.2,2.2,0,0,0-.82-1.26,23.72,23.72,0,0,0-2.71-1.59,64.84,64.84,0,0,1-6.38-4.72c-2.05-1.71-4-3.52-5.9-5.37-1.58-1.55-3.16-3.12-4.7-4.72s-3-3.22-4.51-4.88c-.15-.18-1.22-1.31-1.76-1.4a1.18,1.18,0,0,0-1.13.37,6,6,0,0,0-1.07,4.08c0,2.82.64,6.68,1,9.76.15,1.2.13,2.25.24,3.1.06.41.25.54.31.88a.15.15,0,0,0,.07.21.14.14,0,0,0,.2-.07,1.56,1.56,0,0,0,.78-.55,5.44,5.44,0,0,0,.52-3c.06-2.94-.8-6.77-.93-9.71A10.69,10.69,0,0,1,228.71,116Z"/><path class="cls-5" d="M161.39,131.2a8.7,8.7,0,0,0,.16-.86c.07-.63-.34-1.05-.82.35a.15.15,0,0,0,.08.2h0a13.41,13.41,0,0,1-.78,1.82l-.39.86a6.39,6.39,0,0,0-.52,1.05.54.54,0,0,1,.07-.12l0,.08.11-.06a2.54,2.54,0,0,1,.22.78.57.57,0,0,0,.26,0,10.32,10.32,0,0,0-1.06,1.91.59.59,0,0,0,.06.6.86.86,0,0,0,.49.25l-.89,1.44-.43.73a1.4,1.4,0,0,1-.12.18h0c-1.74,2.07-2,3-1.54,3,0,.49.71.08,2.3-1.9l0,0,.11-.15.09-.1.16-.22-.07.1-.14.2-.17.23,0,0,0,0,.2-.17c.39-.15.63,1,.63,1l.08-.09.33-.43.65-.89,1.74-2.11,1.68-2.44c.85-1,1.75-1.91,2.66-2.78l1.76-1.43-.36.41-3.92,5-2,2.52-.78.92a6.5,6.5,0,0,0-.45.66.65.65,0,0,0,0,.5.53.53,0,0,0,.5.33.55.55,0,0,0,.43-.17l7.29-8.5,1.9-1.64-3.65,4.48c-.83.91-2.41,2.39-3.56,3.75a8.34,8.34,0,0,0-1.35,2,.66.66,0,0,0,1,.81,7,7,0,0,0,.56-.55l.23-.23,0,.06a.88.88,0,0,0,1.22.43,3.31,3.31,0,0,0,.61-.3.88.88,0,0,0,.29-.09,1.79,1.79,0,0,0,.44-.38c.44-.31,1-.71,1.59-1.22a28.17,28.17,0,0,0,2.54-2.36c1.19-1.22,2.32-2.51,3.48-3.72.73-.77,1.8-1.64,2.63-2.56a6.77,6.77,0,0,0,1-1.41.59.59,0,0,0-.31-.92,1.73,1.73,0,0,0-.78.09l-.1.06c-.09-.48-.62-1-1.93-.27l-.91.54-.44.33a1.68,1.68,0,0,0,.12-.59.67.67,0,0,0-.85-.61,3.79,3.79,0,0,0-1.6.9l-.6.55a1.91,1.91,0,0,0,.13-.6.65.65,0,0,0-.91-.52c-.36.16-1.25.67-1.28.69l-1.33,1.12a4.56,4.56,0,0,0,.37-.67,1,1,0,0,0,0-1c-.16-.23-.66-.3-1.22.11a4.59,4.59,0,0,0-.46.38,1.3,1.3,0,0,0,0-.5c0-.3-.36-.65-.95-.31a4.42,4.42,0,0,0-.52.37,1.39,1.39,0,0,0,0-.91.7.7,0,0,0-1.1-.1,21.26,21.26,0,0,0-1.68,1.83Zm4.09,1.06a3.28,3.28,0,0,0-.54.42c-.69.78-1.32,1.6-1.92,2.43-1,1.43-2,2.9-3,4.32l1.16-1.49,4.11-5.51Zm-4.28.84c-.2.26-.4.52-.58.78a4,4,0,0,0-.29.47l0,.08-.08.18.12-.2Z"/><path class="cls-5" d="M178.72,130.38,177,131.73l-2.24,2.34q-.72.65-1.41,1.32c-.92.91-1.8,1.86-2.66,2.85-.38.43-1,1-1.43,1.52a3.68,3.68,0,0,0-.55.91.61.61,0,0,0,0,.5.63.63,0,0,0,1.09.22l.17-.21,0,.07a.8.8,0,0,0,1.38.25c.07-.08.31-.44.42-.56l.61-.64a.83.83,0,0,0,.05,1.08.85.85,0,0,0,1.17.08l.55-.5a.72.72,0,0,0,.05.6.7.7,0,0,0,1,.32,3.39,3.39,0,0,0,.88-.62l.06-.06a.75.75,0,0,0-.1.2.59.59,0,0,0,.29.82.61.61,0,0,0,.58,0,4.73,4.73,0,0,0,.57-.5l.68-.59,2.9-2.74c1.28-1.07,2.56-2.13,3.9-3.12.52-.39,1-.76,1.58-1.11l-1.26,1.15-2.19,2.17-2.81,2.62c-.55.53-.8.79-.91.9l-.14.15a.61.61,0,0,0-.16.49.66.66,0,0,0,.48.66.91.91,0,0,0,.8-.11,11.63,11.63,0,0,0,1.18-1.07l.45-.45a3.79,3.79,0,0,0-.27.53.64.64,0,0,0,.82.84,2.86,2.86,0,0,0,.37-.26l.59-.48a.65.65,0,0,0,.48.74.87.87,0,0,0,.78-.15,2.23,2.23,0,0,0,.27-.23.81.81,0,0,0,0,.44.71.71,0,0,0,.48.43,1.73,1.73,0,0,0,.89-.32l1.12-.83.48-.45a.72.72,0,0,0,.48.51.84.84,0,0,0,.41,0l-.08.06a3.09,3.09,0,0,0-.41.37.58.58,0,0,0,.3,1,.6.6,0,0,0,.47,0,6.15,6.15,0,0,0,1.45-1l.52-.51,1.57-1.3a.34.34,0,0,0,.06.12.52.52,0,0,0,.73.11c1.24-.81,2.48-1.61,3.67-2.5,1.76-1.33,3.41-2.78,5.17-4.11a19.35,19.35,0,0,0,2.6-1.87,1.85,1.85,0,0,0,.63-1.15c0-.65-.34-.91-.93-.85a5.07,5.07,0,0,0-1.17.48l-.69.43a4.71,4.71,0,0,0,.45-.65.54.54,0,0,0-.21-.84.58.58,0,0,0-.45,0,3.65,3.65,0,0,0-.46.29c-.07-.41-.35-.55-.81-.45a5.77,5.77,0,0,0-1.16.59c-.37.19-.74.4-1.11.62-.15-.46-.51-.56-1-.36a5.39,5.39,0,0,0-.86.56.73.73,0,0,0-.23-.64.72.72,0,0,0-.65-.17,4.71,4.71,0,0,0-1.26.59l-.51.33-.11-.15a1.33,1.33,0,0,0-1.44-.12,11.93,11.93,0,0,0-1.86,1,.73.73,0,0,0-.52-.52,2,2,0,0,0-1.5.22,7.44,7.44,0,0,0-.92.55.69.69,0,0,0-.17-.86.74.74,0,0,0-.68-.15,4.61,4.61,0,0,0-1.25.52.4.4,0,0,0,0-.13.83.83,0,0,0-1.07-.22,9.2,9.2,0,0,0-1,.5,1,1,0,0,0,.15-.42.69.69,0,0,0-.49-.78,1.82,1.82,0,0,0-1.26.12,8.34,8.34,0,0,0-1.3.74l0-.11c.2-.58-.14-.73-.46-.75a2.24,2.24,0,0,0-.67.28l-.56.33,0,0a.46.46,0,0,0,0-.26c-.07-.15-.27-.41-.54-.15A1.41,1.41,0,0,0,178.72,130.38Zm1.22,7.17-.29.26-1,1-1.44,1.31c.43-.35.89-.68,1.09-.89l2.1-2Zm-6.78,1.91h0l-.41.45.57-.6Zm16.16-5.26c-.57.42-1.12.85-1.67,1.29q-1.53,1.23-3,2.52l-.31.31c.85-.66,1.71-1.26,2.24-1.72l1.43-1.18Zm-7.63-.14c-.48.36-.95.74-1.41,1.13s-1,.85-1.45,1.29l-.9.9c.52-.46,1-.91,1.57-1.35Z"/><path class="cls-5" d="M209.71,130.6a1,1,0,0,0-1.33-.32c-.53.22-1.54.78-2.24,1.16a.68.68,0,0,0-.17-.77.7.7,0,0,0-.72-.19,4.46,4.46,0,0,0-.59.37l-.49.32,0,0a3.06,3.06,0,0,0-1.78.67,47.22,47.22,0,0,0-3.82,2.79c-.7.48-1.38,1-2.06,1.47-1.19.88-2.35,1.8-3.48,2.8a20.39,20.39,0,0,0-2.36,2,1.94,1.94,0,0,0-.55,1.15c0,.81.44,1,.87,1a1.14,1.14,0,0,0,.64-.18,15.92,15.92,0,0,0,1.3-1.18l.62-.56a1,1,0,0,0-.09.32.87.87,0,0,0,.61,1,1.64,1.64,0,0,0,1.47-.38,20.18,20.18,0,0,0,1.89-1.9c1.08-1.05,2.18-2.05,3.33-3l-.35.32c-1.05,1-2.11,2.12-2.59,2.67l-.3.39a1.16,1.16,0,0,0-.18.51,1,1,0,0,0,.68,1.09,1.31,1.31,0,0,0,1.2-.21,17.33,17.33,0,0,0,1.66-1.63l1.26-1.15a5.73,5.73,0,0,0-.82,1.39,1,1,0,0,0,1.38,1.28,8.7,8.7,0,0,0,1.06-1l1.49-1.37.25-.2-.31.31a8,8,0,0,0-1,1,1.21,1.21,0,0,0-.15.82,1.08,1.08,0,0,0,.74.85,1.34,1.34,0,0,0,1.21-.2,6.85,6.85,0,0,0,.69-.58,1.31,1.31,0,0,0,.16,1.09,1.24,1.24,0,0,0,1.59.14,9.28,9.28,0,0,0,1.33-1.12,1.11,1.11,0,0,0,.68.9,1.42,1.42,0,0,0,1.2-.17,14.46,14.46,0,0,0,2-1.68.92.92,0,0,0,1.33.93l.11-.06a1.06,1.06,0,0,0,0,.39,1,1,0,0,0,.71.87,1.82,1.82,0,0,0,1.57-.43,13.09,13.09,0,0,0,1.46-1.37,2,2,0,0,0,0,.25,1.17,1.17,0,0,0,.81,1,1.53,1.53,0,0,0,1.29-.23,29,29,0,0,0,2.54-2.21l1.52-1.28a1.07,1.07,0,0,0,.32-.16l3.07-2.26,2.32-1.72a1.29,1.29,0,0,0,.5-1.54,1.28,1.28,0,0,0-.58-.6,9.69,9.69,0,0,0,1.33-1.36,1.43,1.43,0,0,0,.22-1.39,1.32,1.32,0,0,0-1.78-.44,29.82,29.82,0,0,0-2.69,1.68,1,1,0,0,0-.16-.52c-.17-.24-.42.86-.8.85s-1.25-.72-1.63-.42l-.56.46a1.1,1.1,0,0,0-1.45-.3c-.41.21-1.14.68-1.72,1.06a1.05,1.05,0,0,0-.15-1,1.19,1.19,0,0,0-1.38-.12,8.74,8.74,0,0,0-.81.49,1.08,1.08,0,0,0-.66-.84,1.2,1.2,0,0,0-.85,0,6.3,6.3,0,0,0-.91.55l0,0v0a.82.82,0,0,0-.6-.9,1,1,0,0,0-.65.05,11.84,11.84,0,0,0-1.2.88l-1.06.72a2.23,2.23,0,0,0,.22-.86,1.2,1.2,0,0,0-1.7-1c-.46.22-1.6.9-1.65.93Zm-14.46,10.87c-.13.17-.17.32-.05.42C195.54,142.19,195.45,141.86,195.25,141.47Zm8.29-9.94c.1,0,.15-.09.11-.16S203.55,131.39,203.54,131.53Z"/><path class="cls-5" d="M229.47,116.35a1.31,1.31,0,0,0-.11.12,22.5,22.5,0,0,0-1.22,2.38,2.73,2.73,0,0,0-.09,2.26,1.23,1.23,0,0,0,1,.25l0,0a3.08,3.08,0,0,0-.42,1.63,1.06,1.06,0,0,0,.5,1,4.76,4.76,0,0,0-.31.47,3.42,3.42,0,0,0-.54,2.11,1.27,1.27,0,0,0,1.08,1.24l.2,0a21.3,21.3,0,0,0-1.19,1.88,2.24,2.24,0,0,0-.24,1.8,1.49,1.49,0,0,0,1.11.75l-.19.22-2.5,3.14a9.29,9.29,0,0,0-1.24,1.93,1.64,1.64,0,0,0-.1.78,9.91,9.91,0,0,0-3,.58,1.64,1.64,0,0,0-1.11,1.67,1.23,1.23,0,0,0,1.48.93,15.58,15.58,0,0,0,3.11-.87l0,0,.05,0a.94.94,0,0,0,0,.36,2.07,2.07,0,0,0,1.41,1c1,.29,2.86.37,3.29.7a4.35,4.35,0,0,1,.43.91,2,2,0,0,0-.12,1.73,1.24,1.24,0,0,0,.41.5,1,1,0,0,0,.74.19c1.25-.24,1.53-.9,1.35-1.8a2.88,2.88,0,0,0-.21-.6c.71-.64,1.72-1.36,1.92-1.57l6.22-6.94a26.12,26.12,0,0,0,2.56-3.2,1.53,1.53,0,0,0,.22-1.11,1,1,0,0,0-1-.79,3.12,3.12,0,0,0-1.66.57h0a4.43,4.43,0,0,0,.43-.83,1.14,1.14,0,0,0-.58-1.62,1.29,1.29,0,0,0-.64,0,2,2,0,0,0,.2-.62c.13-1-.39-1.23-.89-1.29a1.26,1.26,0,0,0-.73.13,1.79,1.79,0,0,0-.24.15,7.86,7.86,0,0,1-.49-.89.78.78,0,0,1,0-.18,1.35,1.35,0,0,0-.34-1.29L238,124a2,2,0,0,0-.77-1,1.92,1.92,0,0,0-1.56-.37,1.05,1.05,0,0,0-.26-.52,1.36,1.36,0,0,0-1.5-.31,2.73,2.73,0,0,0,.15-1.71,1.82,1.82,0,0,0-1.34-.84,2.89,2.89,0,0,0,.07-1.34,1.23,1.23,0,0,0-1.91-.49c-.27.18-.67.49-1.08.82a10.3,10.3,0,0,0,.31-1.28S229,115.26,229.47,116.35Zm2.95,28.22c0,.09,0,.17.17.21s-.07-.12-.08-.17Zm-2.08-3.73-.07,0h0l.06-.08Zm-2-1.29-.06,0,0,0h0v0l0,0,0-.07ZM234.49,125l-.29.37.23-.19.06-.17Zm-5-3.27c-.25,0-.45,0-.28.21S229.41,121.94,229.5,121.77Zm0-2.08c0,.28,0,.45.26.44s-.09-.35-.17-.41Zm2.11-.52h.06c.06,0,.51.15.39,0S231.76,119.05,231.57,119.17Z"/><path class="cls-5" d="M231.8,145a11.65,11.65,0,0,0-1.33,2.41c-1.08,2.83-.51,2.89,1.24.7.06-.08.24-.37.26-.39l.81-1.2,2.41-3,2.94-3.37c1-1,2-1.82,2.84-2.55l.62-.56-4.9,6.06c-1.05,1.45-2.36,2.75-3.46,4.19a17.26,17.26,0,0,0-1.35,2.05c-.07.12-.55,1.29-1,2.22-.21.37-.43.78-.55,1a.8.8,0,0,0,.26,1,.91.91,0,0,0,.7-.23c-.3.35-.6.71-.85,1.07a6.27,6.27,0,0,0-.84,1.48.66.66,0,0,0,.4.94.7.7,0,0,0,.56-.07,2.2,2.2,0,0,0,.32-.29,1,1,0,0,0-.14.35.66.66,0,0,0,1,.64,5.32,5.32,0,0,0,1.57-1.31c.95-1.08,1.89-2.55,2.55-3.32,1.45-1.67,3-3.33,4.52-4.94l.9-.92a.86.86,0,0,0,1.07-.06,9.06,9.06,0,0,0,1.37-1.34l2-2.11,1-1.1.06,0,.11,0,.09,0a.72.72,0,0,0,.53,0,3.14,3.14,0,0,0,.56-.4h0c.6-.47,1.58-1.33,1.67-1.41.51-.44,1.57-1.11,2.33-1.78a3.23,3.23,0,0,0,1-1.23.81.81,0,0,0-.57-.9.61.61,0,0,0-.45-.56.83.83,0,0,0-.33,0,1,1,0,0,0-1.25-.8,2.74,2.74,0,0,0-1,.46c.24-.36.62-.92.82-1.19l.13-.18a.41.41,0,0,0,.06-.11.72.72,0,0,0-.42-1,1.7,1.7,0,0,0-1.36.35c-.32.2-.72.51-1.15.85q-.1-.27-.24-.54l-.05-.08a1.47,1.47,0,0,0,.2-.43.79.79,0,0,0-.54-1,1,1,0,0,0-.71.11l0,0v0a1.12,1.12,0,0,0-.56-.59l0-.08c0-.09,0-.14,0-.17a.86.86,0,0,0-.07-.65.9.9,0,0,0-1-.56,1,1,0,0,0-.8.54l-.19.37c-.36.49-1.28,1.29-1.67,1.94l-.12.22L240.39,135c-1,.91-1.93,1.84-2.84,2.79l3.29-4.38c.29-.39,1-1.51,1.61-2.39a.15.15,0,0,0,.12-.14.61.61,0,0,1,.05-.12l0-.06c.2-.25.63-.47.79-.66s.21-.56-.18-.77c-.09,0-.41,0-.74.35-.69.69-2.11,2.57-2.57,3.1l-5.58,7.19-1.75,2.63-1.08,1.85a.43.43,0,0,0,.1.55A.61.61,0,0,0,231.8,145Zm8.37-2.54-3.94,4.12-1.29,1.55-2,2.51-.41.73-.41.75-.08.21-.06.16-.06.12c.29-.33.56-.64.77-.93ZM243,129.88c.06-.09.07-.16,0-.21S242.87,129.8,243,129.88Z"/><polygon class="cls-6" points="156.63 129.66 155.05 144.78 228.26 144.67 228.64 161.37 256.52 137.19 228.65 113.25 227.56 128.58 156.63 129.66"/><path class="cls-5" d="M455.21,62a.16.16,0,0,0-.12,0,.15.15,0,0,0-.12.18c-.11.1-.31-.06.35.62a1,1,0,0,0,.58.24,14.88,14.88,0,0,0,3.09.16l12.31-.13c12.65-.11,25.29.6,37.93.38,2.22,0,4.44-.07,6.65-.28,1-.09,1.89-.27,2.85-.42a.29.29,0,1,0,0-.58c-1-.11-1.89-.27-2.85-.34-2.21-.17-4.42-.2-6.63-.26-12.64-.38-25.29-.81-37.94-.85l-12.38.19a21.77,21.77,0,0,0-3.05.43c-.23.07-.4.35-.5.24C455,61.13,455.09,61.79,455.21,62Z"/><path class="cls-5" d="M519.08,48.18l.07.07c1.48,1.69,3,3.33,4.58,5s3.15,3.2,4.75,4.76c1.94,1.89,3.95,3.73,6,5.47a67.34,67.34,0,0,0,6.59,4.86c.28.18,1.35.81,2,1.21q-2.28,1.55-4.47,3.23c-1.62,1.25-3.21,2.55-4.76,3.88L522,88.58c0-2.43.21-9.9-.17-13a2.83,2.83,0,0,0-1.29-2.36c-1.3-.36-8.23-.52-17-.52-13,0-30.28.33-39.06.31l-14.93.55L450.69,63c1.3-.13,3.93-.4,7.34-.85,1.68-.22,3.51-.55,5.5-.84a.23.23,0,0,0,0-.45c-2-.08-3.87-.18-5.56-.19-5,0-8.33.22-8.33.22a1.11,1.11,0,0,0-1,1L447,74.61a1.19,1.19,0,0,0,.3.94,1.21,1.21,0,0,0,.91.37l16.18-.46c10.12,0,31.43-.33,44.65-.3,5,0,8.83,0,10.34.22a3.7,3.7,0,0,1,.09.48c.43,3.28.25,11.47.25,13.18a9.44,9.44,0,0,0,.16,2.16,1.12,1.12,0,0,0,1.55.75,9.44,9.44,0,0,0,1.82-1.51c3.21-3.12,10.65-11,12-12.22s3.08-2.58,4.67-3.81,3.22-2.39,4.89-3.5a2.73,2.73,0,0,0,.79-.77,1.22,1.22,0,0,0,.14-.79A2.18,2.18,0,0,0,545,68.1a21.84,21.84,0,0,0-2.72-1.6,65.92,65.92,0,0,1-6.37-4.72c-2-1.71-4-3.52-5.91-5.37q-2.37-2.32-4.7-4.72c-1.54-1.6-3-3.22-4.5-4.88-.15-.17-1.23-1.31-1.76-1.4a1.2,1.2,0,0,0-1.14.37,6,6,0,0,0-1.07,4.09c0,2.81.64,6.68,1,9.75.14,1.2.13,2.25.24,3.1,0,.41.25.54.3.89a.15.15,0,0,0,.07.2.15.15,0,0,0,.21-.07,1.54,1.54,0,0,0,.78-.55,5.44,5.44,0,0,0,.52-3c.06-2.94-.81-6.77-.93-9.71A10.76,10.76,0,0,1,519.08,48.18Z"/><path class="cls-5" d="M451.77,63.36a8.29,8.29,0,0,0,.15-.86c.07-.63-.33-1-.81.35a.15.15,0,0,0,.07.2h0a13.19,13.19,0,0,1-.78,1.81l-.39.87a6.66,6.66,0,0,0-.51,1c0-.06,0-.1.07-.11l0,.07.11,0a2.64,2.64,0,0,1,.21.77.57.57,0,0,0,.26,0,10.26,10.26,0,0,0-1.05,1.91.56.56,0,0,0,.06.6.82.82,0,0,0,.48.25l-.89,1.44-.42.74-.13.17h0c-1.74,2.07-2,3-1.54,3,0,.49.71.08,2.3-1.9l.05,0,.11-.15.08-.1.17-.22-.07.11-.14.19-.17.23,0,0,0,0,.19-.17c.4-.15.64,1,.64,1l.08-.09.33-.43.65-.88,1.74-2.12,1.68-2.44c.85-1,1.74-1.91,2.66-2.78l1.76-1.43-.36.41-3.92,5-2,2.52-.78.92a7.13,7.13,0,0,0-.45.66.57.57,0,0,0,0,.5.52.52,0,0,0,.5.33.56.56,0,0,0,.43-.17l7.28-8.49,1.9-1.65-3.64,4.48c-.83.91-2.41,2.39-3.56,3.75a8.13,8.13,0,0,0-1.36,2,.66.66,0,0,0,1,.81c.1-.06.42-.41.56-.54l.23-.24,0,.06a.88.88,0,0,0,1.22.43,2.74,2.74,0,0,0,.6-.3,1,1,0,0,0,.29-.08,1.9,1.9,0,0,0,.44-.39c.45-.31,1-.71,1.59-1.21a31.4,31.4,0,0,0,2.54-2.36c1.19-1.22,2.33-2.51,3.48-3.73.74-.77,1.81-1.64,2.64-2.56a7.41,7.41,0,0,0,1-1.4.6.6,0,0,0-.31-.93,1.78,1.78,0,0,0-.79.09l-.09.06c-.1-.48-.62-1-1.93-.27l-.91.54-.45.34a1.38,1.38,0,0,0,.12-.59.65.65,0,0,0-.84-.61,3.73,3.73,0,0,0-1.61.89l-.6.55a1.62,1.62,0,0,0,.13-.6.63.63,0,0,0-.91-.51c-.36.15-1.25.66-1.27.68l-1.34,1.12a3.88,3.88,0,0,0,.38-.67,1.05,1.05,0,0,0,0-1c-.16-.23-.66-.3-1.23.11-.14.11-.3.23-.46.38a1,1,0,0,0,.05-.49c0-.3-.36-.66-.94-.32a5.38,5.38,0,0,0-.53.37,1.33,1.33,0,0,0,0-.91.7.7,0,0,0-1.09-.1A19.69,19.69,0,0,0,452.05,63Zm4.08,1.06a3.94,3.94,0,0,0-.54.42c-.69.79-1.31,1.6-1.91,2.44-1,1.42-1.95,2.89-3,4.31l1.17-1.49,4.1-5.5Zm-4.27.85c-.21.25-.4.51-.58.77s-.21.32-.3.47l0,.08-.09.18.13-.2Z"/><path class="cls-5" d="M469.1,62.54l-1.72,1.35-2.25,2.34c-.48.43-.94.87-1.4,1.32-.92.91-1.81,1.87-2.67,2.85-.37.43-1,1-1.42,1.52a3.68,3.68,0,0,0-.55.91.66.66,0,0,0,1.08.72l.16-.21,0,.07a.79.79,0,0,0,1.37.25c.08-.08.32-.43.43-.56l.6-.64A.85.85,0,0,0,464,73.62l.54-.5a.71.71,0,0,0,.06.6.69.69,0,0,0,1,.32,3.19,3.19,0,0,0,.87-.62l.06,0a1.74,1.74,0,0,0-.1.19.6.6,0,0,0,.3.82.61.61,0,0,0,.58,0,4.61,4.61,0,0,0,.57-.5l.68-.59,2.9-2.74c1.27-1.07,2.56-2.13,3.9-3.12.51-.38,1-.75,1.58-1.11l-1.27,1.15-2.18,2.18-2.82,2.61-.91.91-.13.14a.61.61,0,0,0-.16.49.67.67,0,0,0,.47.67,1,1,0,0,0,.81-.12,10.37,10.37,0,0,0,1.17-1.07l.46-.45a2.41,2.41,0,0,0-.27.53.64.64,0,0,0,.82.84,4,4,0,0,0,.36-.25l.59-.49a.67.67,0,0,0,.48.74.83.83,0,0,0,.78-.15,3.24,3.24,0,0,0,.28-.22.74.74,0,0,0,.05.44.72.72,0,0,0,.48.42,1.7,1.7,0,0,0,.88-.32l1.12-.83.49-.45a.71.71,0,0,0,.47.51.76.76,0,0,0,.41,0l-.07.06a3.24,3.24,0,0,0-.42.37.59.59,0,0,0,.31,1,.55.55,0,0,0,.47,0A6.11,6.11,0,0,0,481,74c.18-.16.35-.33.53-.51l1.56-1.3a.24.24,0,0,0,.07.12.51.51,0,0,0,.72.11c1.25-.81,2.49-1.61,3.68-2.5,1.75-1.32,3.41-2.78,5.16-4.1a20.74,20.74,0,0,0,2.6-1.88,1.85,1.85,0,0,0,.64-1.15c0-.65-.34-.9-.94-.85a4.64,4.64,0,0,0-1.16.49l-.69.42a7.49,7.49,0,0,0,.45-.65.55.55,0,0,0-.21-.84.61.61,0,0,0-.46,0,3.65,3.65,0,0,0-.46.29c-.07-.41-.35-.55-.81-.45a6,6,0,0,0-1.15.59c-.38.2-.75.4-1.11.62-.15-.46-.52-.56-1.05-.36a6,6,0,0,0-.86.57.77.77,0,0,0-.22-.65.75.75,0,0,0-.66-.17,4.83,4.83,0,0,0-1.26.6l-.51.32-.11-.15a1.35,1.35,0,0,0-1.44-.12,11.85,11.85,0,0,0-1.85,1,.74.74,0,0,0-.52-.52,2,2,0,0,0-1.51.22,8.81,8.81,0,0,0-.91.55.69.69,0,0,0-.18-.86.73.73,0,0,0-.68-.15,4.69,4.69,0,0,0-1.24.52,1,1,0,0,0,0-.13.83.83,0,0,0-1.07-.22,10.23,10.23,0,0,0-1,.5,1,1,0,0,0,.15-.42.7.7,0,0,0-.49-.78,1.8,1.8,0,0,0-1.27.13,8.33,8.33,0,0,0-1.3.73l0-.1c.21-.59-.14-.74-.46-.76a2.3,2.3,0,0,0-.66.28l-.56.33,0,0a.38.38,0,0,0,0-.26c-.06-.15-.26-.41-.54-.15A2.76,2.76,0,0,0,469.1,62.54Zm1.22,7.17L470,70l-1,1-1.43,1.31c.43-.35.88-.68,1.09-.88l2.1-2.05Zm-6.78,1.91h0l-.41.45.58-.6Zm16.16-5.26q-.85.63-1.68,1.29c-1,.82-2,1.67-3,2.53l-.31.3c.85-.66,1.71-1.26,2.25-1.72l1.43-1.18Zm-7.63-.14q-.72.54-1.41,1.14c-.49.41-1,.85-1.46,1.29l-.9.89c.52-.46,1-.91,1.57-1.35Z"/><path class="cls-5" d="M500.08,62.76a1.05,1.05,0,0,0-1.32-.32c-.53.23-1.55.78-2.24,1.17a.75.75,0,0,0-.9-1A4.46,4.46,0,0,0,495,63l-.49.32,0,0a3.19,3.19,0,0,0-1.79.67c-1.15.73-2.75,1.93-3.82,2.79-.69.48-1.38,1-2,1.47-1.2.88-2.36,1.8-3.49,2.8A22.48,22.48,0,0,0,481,73a2,2,0,0,0-.55,1.15c0,.81.45,1,.87,1A1.09,1.09,0,0,0,482,75a15.8,15.8,0,0,0,1.29-1.18l.62-.55a.86.86,0,0,0-.08.31.88.88,0,0,0,.61,1,1.66,1.66,0,0,0,1.46-.39,20.59,20.59,0,0,0,1.9-1.9q1.61-1.56,3.32-3l-.35.33a32.41,32.41,0,0,0-2.58,2.67,2.82,2.82,0,0,0-.3.38.94.94,0,0,0-.18.51,1,1,0,0,0,.67,1.09,1.29,1.29,0,0,0,1.2-.2,16.4,16.4,0,0,0,1.67-1.64l1.26-1.14a5.38,5.38,0,0,0-.82,1.38.94.94,0,0,0,.48,1.3,1,1,0,0,0,.9,0,10.52,10.52,0,0,0,1.06-1l1.48-1.37.26-.21-.31.31a9,9,0,0,0-1,1,1.15,1.15,0,0,0-.14.82,1.08,1.08,0,0,0,.73.86,1.37,1.37,0,0,0,1.22-.21,6.85,6.85,0,0,0,.69-.58,1.3,1.3,0,0,0,.16,1.09,1.24,1.24,0,0,0,1.59.14,9.28,9.28,0,0,0,1.33-1.12,1.06,1.06,0,0,0,.68.9,1.42,1.42,0,0,0,1.2-.17A14.46,14.46,0,0,0,504,72.66a.84.84,0,0,0,.12.59.87.87,0,0,0,1.21.34l.11-.06a.88.88,0,0,0,0,.39,1,1,0,0,0,.7.87,1.84,1.84,0,0,0,1.58-.43A14,14,0,0,0,509.11,73a1.85,1.85,0,0,0,0,.24,1.16,1.16,0,0,0,.81,1,1.48,1.48,0,0,0,1.3-.23,30.77,30.77,0,0,0,2.54-2.2l1.51-1.29a1,1,0,0,0,.32-.16l3.08-2.25L521,66.36a1.28,1.28,0,0,0,.5-1.55,1.18,1.18,0,0,0-.58-.59,9.82,9.82,0,0,0,1.34-1.37,1.39,1.39,0,0,0,.21-1.39,1.32,1.32,0,0,0-1.78-.43A30.15,30.15,0,0,0,518,62.7a.86.86,0,0,0-.16-.51c-.16-.25-.41.85-.79.84s-1.26-.72-1.63-.42l-.57.46a1.11,1.11,0,0,0-1.45-.3c-.4.21-1.14.68-1.71,1.06a1.06,1.06,0,0,0-.16-1,1.18,1.18,0,0,0-1.38-.12,8.78,8.78,0,0,0-.8.49,1.09,1.09,0,0,0-.67-.84,1.2,1.2,0,0,0-.85,0,6.89,6.89,0,0,0-.91.55l0,0v0a.81.81,0,0,0-.61-.89.91.91,0,0,0-.64,0,10.93,10.93,0,0,0-1.2.89l-1.07.71a2.26,2.26,0,0,0,.23-.86,1.21,1.21,0,0,0-1.7-1c-.46.22-1.6.9-1.65.93ZM485.63,73.63c-.13.17-.17.32-.06.42C485.92,74.35,485.83,74,485.63,73.63Zm8.29-9.94c.09,0,.14-.09.1-.15S493.93,63.56,493.92,63.69Z"/><path class="cls-5" d="M519.85,48.51a.47.47,0,0,0-.11.13A22.75,22.75,0,0,0,518.51,51a2.72,2.72,0,0,0-.08,2.26,1.22,1.22,0,0,0,1,.25l0,0a3.1,3.1,0,0,0-.42,1.63,1.06,1.06,0,0,0,.5,1,4.87,4.87,0,0,0-.32.47,3.44,3.44,0,0,0-.53,2.11A1.27,1.27,0,0,0,519.7,60l.21,0a21.3,21.3,0,0,0-1.19,1.88,2.26,2.26,0,0,0-.25,1.8,1.55,1.55,0,0,0,1.12.76l-.2.22-2.49,3.14a9.34,9.34,0,0,0-1.25,1.92,1.5,1.5,0,0,0-.09.78,9.84,9.84,0,0,0-2.95.58,1.64,1.64,0,0,0-1.11,1.68,1.22,1.22,0,0,0,1.47.92,15.63,15.63,0,0,0,3.12-.87l0,0,0,0a1.13,1.13,0,0,0,.05.35,2,2,0,0,0,1.41,1c1,.29,2.85.37,3.29.7a5,5,0,0,1,.43.91,2,2,0,0,0-.12,1.74,1.29,1.29,0,0,0,.41.49,1,1,0,0,0,.74.19c1.25-.24,1.52-.9,1.34-1.79a3.33,3.33,0,0,0-.2-.61c.7-.64,1.72-1.36,1.92-1.57l6.21-6.94a28.55,28.55,0,0,0,2.57-3.19,1.47,1.47,0,0,0,.21-1.11,1,1,0,0,0-1-.8,3.09,3.09,0,0,0-1.66.57h0a6.11,6.11,0,0,0,.43-.83,1.14,1.14,0,0,0-.58-1.61,1.29,1.29,0,0,0-.64,0,2.24,2.24,0,0,0,.2-.62c.13-1-.4-1.23-.89-1.29a1.24,1.24,0,0,0-.73.13l-.24.15a6.53,6.53,0,0,1-.49-.89l-.06-.18a1.35,1.35,0,0,0-.33-1.29l0-.14a2.06,2.06,0,0,0-.78-1,1.9,1.9,0,0,0-1.55-.37,1.2,1.2,0,0,0-.26-.52,1.35,1.35,0,0,0-1.5-.3,2.88,2.88,0,0,0,.15-1.71,1.79,1.79,0,0,0-1.34-.85,2.85,2.85,0,0,0,.06-1.33,1.22,1.22,0,0,0-1.91-.5c-.26.18-.67.49-1.08.82a9.32,9.32,0,0,0,.32-1.27S519.4,47.42,519.85,48.51Zm2.94,28.22a.21.21,0,0,0,.17.21c.07,0-.06-.11-.08-.17ZM520.71,73l-.06,0h0l.07-.08Zm-2-1.29-.06,0,0,0h0l0,0,0,0,0-.07Zm6.18-14.5-.28.36.23-.19.05-.17Zm-5-3.27c-.26,0-.45,0-.28.2S519.79,54.1,519.88,53.94Zm0-2.09c0,.28,0,.45.25.44s-.09-.34-.16-.4S519.88,51.86,519.84,51.85Zm2.11-.52H522s.5.15.38,0S522.13,51.21,522,51.33Z"/><path class="cls-5" d="M522.17,77.16a12.07,12.07,0,0,0-1.32,2.41c-1.09,2.83-.52,2.89,1.23.7a4.33,4.33,0,0,0,.26-.39l.82-1.2,2.41-3,2.94-3.38c1-1,2-1.82,2.83-2.55l.63-.56-4.9,6.06c-1.06,1.45-2.36,2.75-3.47,4.19a16,16,0,0,0-1.34,2c-.07.12-.55,1.29-1,2.23-.21.36-.44.77-.56,1a.8.8,0,0,0,.26,1,.85.85,0,0,0,.7-.23c-.3.36-.59.72-.85,1.08a6.31,6.31,0,0,0-.83,1.47.65.65,0,0,0,.39.94.66.66,0,0,0,.56-.07,2.14,2.14,0,0,0,.33-.29,1.11,1.11,0,0,0-.14.35.63.63,0,0,0,.27.59.62.62,0,0,0,.69,0,5.2,5.2,0,0,0,1.58-1.31c.95-1.08,1.89-2.55,2.55-3.32,1.45-1.67,3-3.33,4.51-4.94l.9-.91a.88.88,0,0,0,1.08-.06,10.08,10.08,0,0,0,1.37-1.35l2-2.1,1-1.11.06,0,.11,0,.09,0a.7.7,0,0,0,.52,0,2.73,2.73,0,0,0,.56-.39h0c.6-.47,1.57-1.33,1.66-1.41.51-.44,1.58-1.11,2.34-1.78a3.43,3.43,0,0,0,1-1.23.81.81,0,0,0-.57-.89.63.63,0,0,0-.46-.57.78.78,0,0,0-.32,0,.47.47,0,0,0,0-.14,1.06,1.06,0,0,0-1.21-.66,2.71,2.71,0,0,0-1,.46c.25-.36.63-.92.83-1.19l.13-.18.06-.11a.72.72,0,0,0-.42-1,1.73,1.73,0,0,0-1.37.35c-.31.21-.71.51-1.15.86a4.41,4.41,0,0,0-.24-.54l0-.08a1.94,1.94,0,0,0,.19-.44.79.79,0,0,0-.53-1,1,1,0,0,0-.72.11l0,0v0a1.15,1.15,0,0,0-.56-.59l0-.08a1.2,1.2,0,0,0,.06-.17.91.91,0,0,0-.07-.65.92.92,0,0,0-1-.56,1,1,0,0,0-.8.54c0,.06-.11.22-.19.37-.37.49-1.28,1.3-1.68,1.94l-.12.22-1.47,1.42q-1.47,1.36-2.85,2.79l3.3-4.37c.29-.4,1-1.52,1.6-2.4A.15.15,0,0,0,533,63a.31.31,0,0,1,0-.12l0-.07c.2-.25.63-.47.8-.66s.21-.56-.18-.76c-.1,0-.41,0-.75.34-.69.69-2.11,2.58-2.56,3.1l-5.58,7.2L523,74.69l-1.08,1.86a.41.41,0,0,0,.1.54Zm8.37-2.54-3.94,4.12-1.29,1.55-2,2.51-.4.73-.42.75-.07.22-.07.16,0,.12c.29-.34.55-.65.77-.94ZM533.34,62c.06-.09.06-.16,0-.2S533.25,62,533.34,62Z"/><polygon class="cls-6" points="447.01 61.83 445.43 76.94 518.64 76.83 519.01 93.53 546.9 69.35 519.02 45.41 517.94 60.74 447.01 61.83"/><path class="cls-5" d="M537.11,129.88a.19.19,0,0,1,.13,0,.15.15,0,0,1,.11.18c.11.1.31-.07-.34.62a1.26,1.26,0,0,1-.58.24,15,15,0,0,1-3.1.16L521,130.93c-12.64-.11-25.29.59-37.93.38-2.22,0-4.44-.07-6.65-.28-1-.1-1.89-.27-2.84-.42a.28.28,0,0,1-.29-.3.29.29,0,0,1,.3-.29c.95-.11,1.88-.26,2.84-.33,2.21-.17,4.42-.2,6.63-.27,12.65-.37,25.29-.8,37.95-.84l12.37.19a20.16,20.16,0,0,1,3.05.43c.24.06.4.35.5.23C537.35,129,537.23,129.63,537.11,129.88Z"/><path class="cls-5" d="M473.24,116l-.06.07q-2.24,2.52-4.59,5c-1.56,1.61-3.15,3.2-4.75,4.76-1.93,1.88-3.95,3.73-6,5.47a67.47,67.47,0,0,1-6.6,4.86c-.28.18-1.35.8-2,1.21q2.28,1.54,4.47,3.23c1.62,1.25,3.21,2.55,4.76,3.88l11.95,12c0-2.43-.21-9.9.18-13,.18-1.51.93-2.27,1.29-2.36,1.29-.36,8.22-.53,17-.52,13,0,30.28.33,39.07.31l14.92.55-1.2-10.51c-1.3-.13-3.93-.4-7.34-.85-1.68-.22-3.51-.55-5.5-.84a.24.24,0,0,1-.21-.24.23.23,0,0,1,.24-.21c2-.08,3.87-.18,5.56-.19,5,0,8.33.22,8.33.22a1.1,1.1,0,0,1,1,1l1.6,12.72a1.18,1.18,0,0,1-.31.93,1.17,1.17,0,0,1-.91.38l-16.18-.46c-10.11,0-31.42-.33-44.65-.3-5,0-8.83,0-10.34.22,0,.14-.07.32-.09.47-.43,3.29-.24,11.48-.25,13.19a9.44,9.44,0,0,1-.16,2.16,1.12,1.12,0,0,1-1.55.75,9.78,9.78,0,0,1-1.82-1.51c-3.21-3.12-10.65-11-12-12.22s-3.08-2.58-4.67-3.81-3.22-2.4-4.88-3.51a2.49,2.49,0,0,1-.8-.76,1.29,1.29,0,0,1-.14-.79,2.2,2.2,0,0,1,.82-1.26,22.88,22.88,0,0,1,2.71-1.59,66,66,0,0,0,6.38-4.72c2.05-1.71,4-3.52,5.9-5.37,1.58-1.55,3.16-3.12,4.7-4.72s3.05-3.22,4.5-4.88c.16-.18,1.23-1.31,1.77-1.4a1.18,1.18,0,0,1,1.13.37,6,6,0,0,1,1.07,4.08c0,2.82-.64,6.68-1,9.76-.15,1.2-.14,2.25-.25,3.1-.05.41-.25.54-.3.88a.16.16,0,1,1-.28.14,1.61,1.61,0,0,1-.78-.55,5.62,5.62,0,0,1-.52-3c-.05-2.94.81-6.77.94-9.71A10.69,10.69,0,0,0,473.24,116Z"/><path class="cls-5" d="M540.27,130.81a21.26,21.26,0,0,0-1.68-1.83.69.69,0,0,0-1.09.1,1.39,1.39,0,0,0,0,.91,4.42,4.42,0,0,0-.52-.37c-.59-.34-.91,0-1,.31a1.13,1.13,0,0,0,0,.5,4.59,4.59,0,0,0-.46-.38c-.57-.41-1.06-.34-1.23-.11a1,1,0,0,0,0,1,4.67,4.67,0,0,0,.38.67l-1.34-1.12s-.91-.53-1.27-.69a.65.65,0,0,0-.91.52,1.91,1.91,0,0,0,.13.6l-.6-.55a3.84,3.84,0,0,0-1.6-.9.67.67,0,0,0-.85.61,1.48,1.48,0,0,0,.12.59l-.45-.33-.91-.54c-1.3-.75-1.83-.21-1.92.27l-.1-.06a1.78,1.78,0,0,0-.79-.09.59.59,0,0,0-.3.92,6.71,6.71,0,0,0,1,1.41c.83.92,1.9,1.79,2.64,2.56,1.16,1.21,2.29,2.5,3.48,3.72a28.17,28.17,0,0,0,2.54,2.36c.62.51,1.15.91,1.59,1.22a1.63,1.63,0,0,0,.44.38.81.81,0,0,0,.29.09,3,3,0,0,0,.61.3.88.88,0,0,0,1.22-.43l0-.06.22.23a7,7,0,0,0,.57.55.61.61,0,0,0,.51.09.61.61,0,0,0,.45-.9,8.13,8.13,0,0,0-1.36-2c-1.15-1.36-2.72-2.84-3.56-3.75L531,132.11l1.9,1.64,7.29,8.5a.55.55,0,0,0,.43.17.5.5,0,0,0,.49-.33.57.57,0,0,0,0-.5,5,5,0,0,0-.44-.66l-.79-.92-2-2.52-3.93-5c-.09-.12-.22-.26-.36-.41l1.77,1.43c.91.87,1.8,1.8,2.65,2.78l1.68,2.44,1.75,2.11.65.89.32.43.08.09s.24-1.11.64-1l.2.17,0,0,0,0-.17-.23-.14-.2-.08-.1.17.22.08.1.12.15,0,0c1.59,2,2.3,2.39,2.3,1.9.47,0,.21-.89-1.54-3h0a1.4,1.4,0,0,1-.12-.18l-.43-.73-.89-1.44a.82.82,0,0,0,.48-.25.57.57,0,0,0,.06-.6,10.26,10.26,0,0,0-1-1.91.57.57,0,0,0,.26,0,2.77,2.77,0,0,1,.21-.78l.11.06,0-.08a.33.33,0,0,1,.06.12,6.32,6.32,0,0,0-.51-1.05l-.39-.86a13.41,13.41,0,0,1-.78-1.82h0a.15.15,0,0,0,.08-.2c-.49-1.4-.89-1-.82-.35a6.5,6.5,0,0,0,.16.86Zm-3.66,1.62,4.11,5.51,1.16,1.49c-1-1.42-1.94-2.89-3-4.32a29.1,29.1,0,0,0-1.91-2.43,3.28,3.28,0,0,0-.54-.42Zm5,2,.12.2-.09-.18,0-.08c-.09-.16-.19-.31-.29-.47s-.38-.52-.59-.78Z"/><path class="cls-5" d="M523.05,130.15c-.28-.26-.47,0-.54.15a.38.38,0,0,0,0,.26l0,0-.56-.33a2.19,2.19,0,0,0-.66-.28c-.32,0-.66.17-.46.75l0,.11a9.37,9.37,0,0,0-1.3-.74,1.82,1.82,0,0,0-1.26-.12.7.7,0,0,0-.5.78,1.26,1.26,0,0,0,.16.42,10.17,10.17,0,0,0-1-.5.83.83,0,0,0-1.07.22.4.4,0,0,0,0,.13,4.89,4.89,0,0,0-1.25-.52.74.74,0,0,0-.68.15.7.7,0,0,0-.18.86,7.35,7.35,0,0,0-.91-.55,2,2,0,0,0-1.51-.22.73.73,0,0,0-.51.52,11.93,11.93,0,0,0-1.86-1,1.33,1.33,0,0,0-1.44.12l-.11.15-.51-.33a4.71,4.71,0,0,0-1.26-.59.72.72,0,0,0-.65.17.73.73,0,0,0-.23.64,5.39,5.39,0,0,0-.86-.56c-.53-.2-.9-.1-1.05.36-.36-.22-.73-.43-1.11-.62a6,6,0,0,0-1.15-.59c-.46-.1-.74,0-.81.45a3.65,3.65,0,0,0-.46-.29.62.62,0,0,0-.46,0,.54.54,0,0,0-.2.84,4.71,4.71,0,0,0,.45.65l-.69-.43a5.25,5.25,0,0,0-1.17-.48c-.59-.06-.94.2-.93.85a1.8,1.8,0,0,0,.63,1.15,19.35,19.35,0,0,0,2.6,1.87c1.76,1.33,3.41,2.78,5.17,4.11,1.18.89,2.43,1.69,3.67,2.5a.52.52,0,0,0,.73-.11.34.34,0,0,0,.06-.12l1.57,1.3.52.51a6,6,0,0,0,1.45,1,.57.57,0,0,0,.46,0,.59.59,0,0,0,.31-1,2.68,2.68,0,0,0-.42-.37l-.07-.06a.87.87,0,0,0,.41,0,.73.73,0,0,0,.47-.51l.49.45,1.12.83a1.73,1.73,0,0,0,.88.32.75.75,0,0,0,.49-.43.82.82,0,0,0,0-.44l.28.23a.87.87,0,0,0,.78.15.66.66,0,0,0,.48-.74l.59.48a2.86,2.86,0,0,0,.37.26A.58.58,0,0,0,520,142a.61.61,0,0,0,.21-.75,3.79,3.79,0,0,0-.27-.53l.45.45a9.78,9.78,0,0,0,1.18,1.07.91.91,0,0,0,.8.11.65.65,0,0,0,.47-.66s.06-.21-.16-.49l-.13-.15-.91-.9-2.81-2.62-2.19-2.17-1.26-1.15c.53.35,1.06.72,1.58,1.11,1.34,1,2.62,2,3.9,3.12l2.89,2.74.68.59a7,7,0,0,0,.57.5.63.63,0,0,0,.59,0,.6.6,0,0,0,.29-.82,1.24,1.24,0,0,0-.1-.2l.06.06a3.39,3.39,0,0,0,.88.62.69.69,0,0,0,1-.32.71.71,0,0,0,.06-.6l.55.5a.85.85,0,0,0,1.22-1.16l.6.64c.12.12.35.48.43.56a.79.79,0,0,0,1.37-.25l0-.07.16.21a.64.64,0,0,0,1.1-.22.66.66,0,0,0,0-.5,3.74,3.74,0,0,0-.56-.91c-.44-.56-1-1.09-1.42-1.52-.86-1-1.74-1.94-2.67-2.85-.45-.45-.92-.89-1.4-1.32L525,131.73l-1.72-1.35Zm-1.47,7,2.09,2c.21.21.66.54,1.09.89l-1.43-1.31-1-1-.29-.26Zm7,2.13.58.6-.41-.45h0Zm-14.69-3.9,1.43,1.18c.53.46,1.39,1.06,2.24,1.72l-.31-.31c-1-.86-2-1.7-3-2.52q-.82-.66-1.68-1.29Zm8.51.61c.53.44,1,.89,1.57,1.35l-.9-.9c-.48-.44-1-.87-1.46-1.29s-.92-.77-1.41-1.13Z"/><path class="cls-5" d="M492.08,130.5c-.05,0-1.18-.71-1.65-.93a1.2,1.2,0,0,0-1.7,1,2.26,2.26,0,0,0,.23.86l-1.07-.72a11.74,11.74,0,0,0-1.19-.88,1,1,0,0,0-.65-.05.81.81,0,0,0-.6.9v0l0,0a6.89,6.89,0,0,0-.91-.55,1.2,1.2,0,0,0-.85,0,1.09,1.09,0,0,0-.67.84,7.59,7.59,0,0,0-.8-.49,1.18,1.18,0,0,0-1.38.12,1.05,1.05,0,0,0-.15,1c-.58-.38-1.32-.85-1.72-1.06a1.1,1.1,0,0,0-1.45.3l-.56-.46c-.38-.3-1.38.42-1.64.42s-.63-1.09-.79-.85a1,1,0,0,0-.16.52,31.28,31.28,0,0,0-2.69-1.68,1.32,1.32,0,0,0-1.78.44,1.4,1.4,0,0,0,.22,1.39,8.68,8.68,0,0,0,1.33,1.36,1.21,1.21,0,0,0-.08,2.14l2.32,1.72,3.07,2.26a1.07,1.07,0,0,0,.32.16l1.51,1.28a30.56,30.56,0,0,0,2.54,2.21,1.55,1.55,0,0,0,1.3.23,1.17,1.17,0,0,0,.81-1,1,1,0,0,0,0-.25,14,14,0,0,0,1.46,1.37,1.84,1.84,0,0,0,1.58.43,1,1,0,0,0,.7-.87,1,1,0,0,0,0-.39l.11.06a.86.86,0,0,0,1.2-.34.91.91,0,0,0,.13-.59,14.43,14.43,0,0,0,1.94,1.68,1.42,1.42,0,0,0,1.2.17,1.08,1.08,0,0,0,.68-.9,9.28,9.28,0,0,0,1.34,1.12,1.22,1.22,0,0,0,1.58-.14,1.3,1.3,0,0,0,.17-1.09,6.89,6.89,0,0,0,.68.58,1.36,1.36,0,0,0,1.22.2,1.08,1.08,0,0,0,.74-.85,1.21,1.21,0,0,0-.15-.82,8,8,0,0,0-1-1l-.31-.31.25.2,1.48,1.37a8.71,8.71,0,0,0,1.07,1,.92.92,0,0,0,.89,0,.94.94,0,0,0,.49-1.3,5.49,5.49,0,0,0-.83-1.39l1.27,1.15a17.33,17.33,0,0,0,1.66,1.63,1.31,1.31,0,0,0,1.2.21,1,1,0,0,0,.68-1.09,1.09,1.09,0,0,0-.19-.51,3.44,3.44,0,0,0-.3-.39,36,36,0,0,0-2.58-2.67l-.35-.32c1.15.94,2.25,1.94,3.32,3a20.59,20.59,0,0,0,1.9,1.9,1.62,1.62,0,0,0,1.46.38.88.88,0,0,0,.62-1,1.34,1.34,0,0,0-.09-.32l.62.56a15.8,15.8,0,0,0,1.29,1.18,1.19,1.19,0,0,0,.65.18c.42,0,.9-.21.87-1a2,2,0,0,0-.55-1.15,20.39,20.39,0,0,0-2.36-2c-1.13-1-2.29-1.92-3.48-2.8-.68-.5-1.36-1-2.06-1.47a47.22,47.22,0,0,0-3.82-2.79,3.06,3.06,0,0,0-1.78-.67l0,0-.49-.32a4.46,4.46,0,0,0-.59-.37.7.7,0,0,0-.72.19.68.68,0,0,0-.18.77c-.69-.38-1.71-.94-2.23-1.16a1,1,0,0,0-1.33.32Zm14.67,11.39c.12-.1.07-.25-.06-.42C506.49,141.86,506.41,142.19,506.75,141.89Zm-8.45-10.52c0,.07,0,.12.11.16C498.4,131.39,498.36,131.27,498.3,131.37Z"/><path class="cls-5" d="M471.87,117a8.76,8.76,0,0,0,.31,1.28c-.41-.33-.81-.64-1.08-.82a1.22,1.22,0,0,0-1.91.49,2.89,2.89,0,0,0,.06,1.34,1.82,1.82,0,0,0-1.34.84,2.88,2.88,0,0,0,.15,1.71,1.37,1.37,0,0,0-1.5.31,1.14,1.14,0,0,0-.25.52,1.91,1.91,0,0,0-1.56.37,2.06,2.06,0,0,0-.78,1l-.05.14a1.35,1.35,0,0,0-.33,1.29,1.89,1.89,0,0,1-.06.18,5.59,5.59,0,0,1-.49.89,1.05,1.05,0,0,0-.24-.15,1.22,1.22,0,0,0-.72-.13c-.5.06-1,.34-.89,1.29a1.92,1.92,0,0,0,.19.62,1.26,1.26,0,0,0-.63,0,1.15,1.15,0,0,0-.59,1.62,5.33,5.33,0,0,0,.44.83h0a3.12,3.12,0,0,0-1.67-.57,1,1,0,0,0-1,.79,1.51,1.51,0,0,0,.21,1.11,27.53,27.53,0,0,0,2.57,3.2l6.22,6.94c.2.21,1.21.93,1.91,1.57a3.51,3.51,0,0,0-.2.6c-.18.9.1,1.56,1.35,1.8a1,1,0,0,0,.74-.19,1.22,1.22,0,0,0,.4-.5,2,2,0,0,0-.11-1.73,3.89,3.89,0,0,1,.43-.91c.43-.33,2.25-.41,3.29-.7a2.1,2.1,0,0,0,1.41-1,.94.94,0,0,0,0-.36l0,0,0,0a15.63,15.63,0,0,0,3.12.87,1.22,1.22,0,0,0,1.47-.93,1.63,1.63,0,0,0-1.1-1.67,9.91,9.91,0,0,0-3-.58,1.5,1.5,0,0,0-.09-.78,9.08,9.08,0,0,0-1.25-1.93l-2.49-3.14-.2-.22a1.52,1.52,0,0,0,1.12-.75,2.26,2.26,0,0,0-.25-1.8,18.83,18.83,0,0,0-1.18-1.88l.2,0a1.27,1.27,0,0,0,1.08-1.24,3.42,3.42,0,0,0-.54-2.11,3.55,3.55,0,0,0-.32-.47,1.06,1.06,0,0,0,.5-1,3.07,3.07,0,0,0-.41-1.63l0,0a1.23,1.23,0,0,0,1-.25,2.73,2.73,0,0,0-.09-2.26,22.2,22.2,0,0,0-1.23-2.38.58.58,0,0,0-.1-.12C472.92,115.26,471.87,117,471.87,117Zm-2.43,27.61s-.15.19-.08.17.18-.12.17-.21Zm2.15-3.79.06.08h0l-.06,0Zm2.07-1.22,0,.07,0,0,0,0h0l0,0-.06,0Zm-6.2-14.55.06.17.23.19-.29-.37Zm5.27-3.07c.17-.16,0-.21-.29-.21C472.54,121.94,472.64,122.07,472.73,122Zm-.34-2.26c-.07.06-.37.39-.16.41s.27-.16.26-.44Zm-2.46-.56c-.12.17.33,0,.38,0h.07C470.19,119.05,470,119,469.93,119.16Z"/><path class="cls-5" d="M470.28,144.93a.42.42,0,0,0,.1-.55l-1.08-1.85-1.75-2.63L462,132.71c-.46-.53-1.88-2.41-2.57-3.1-.33-.33-.65-.39-.74-.35-.4.21-.47.45-.19.77s.6.41.8.66l0,.06a.31.31,0,0,1,.05.12.16.16,0,0,0,.13.14c.61.88,1.32,2,1.6,2.39l3.3,4.38c-.92-.95-1.87-1.88-2.84-2.79l-1.48-1.42-.12-.22c-.4-.65-1.31-1.45-1.68-1.94a3.89,3.89,0,0,0-.19-.37,1,1,0,0,0-.8-.54.89.89,0,0,0-1,.56.86.86,0,0,0-.07.65.82.82,0,0,0,.05.17l0,.08a1.06,1.06,0,0,0-.55.59l0,0,0,0a1,1,0,0,0-.71-.11.78.78,0,0,0-.54,1,1.72,1.72,0,0,0,.19.43l0,.08q-.14.27-.24.54c-.43-.34-.83-.65-1.15-.85a1.73,1.73,0,0,0-1.37-.35.72.72,0,0,0-.42,1,.58.58,0,0,0,.07.11l.13.18c.19.27.58.83.82,1.19a2.71,2.71,0,0,0-1-.46,1.06,1.06,0,0,0-1.21.66.26.26,0,0,0,0,.14.83.83,0,0,0-.33,0,.61.61,0,0,0-.45.56.83.83,0,0,0-.58.9,3.43,3.43,0,0,0,1,1.23c.77.67,1.83,1.34,2.34,1.78.09.08,1.07.94,1.67,1.41h0a2.82,2.82,0,0,0,.56.4.73.73,0,0,0,.53,0l.09,0,.11,0,.06,0,1,1.1,2,2.11a9.62,9.62,0,0,0,1.37,1.34.87.87,0,0,0,1.08.06l.9.92c1.56,1.61,3.07,3.27,4.51,4.94.67.77,1.6,2.24,2.56,3.32a5.2,5.2,0,0,0,1.57,1.31.62.62,0,0,0,.69,0,.64.64,0,0,0,.28-.59,1.11,1.11,0,0,0-.15-.35,2.14,2.14,0,0,0,.33.29.7.7,0,0,0,.56.07.66.66,0,0,0,.4-.94,6.27,6.27,0,0,0-.84-1.48c-.26-.36-.55-.72-.85-1.07a.89.89,0,0,0,.7.23.8.8,0,0,0,.26-1c-.12-.24-.35-.65-.55-1-.42-.93-.91-2.1-1-2.22a17.26,17.26,0,0,0-1.35-2.05c-1.11-1.44-2.41-2.74-3.46-4.19l-4.9-6.06.62.56c.8.73,1.8,1.59,2.83,2.55l2.95,3.37,2.4,3,.82,1.2.26.39c1.75,2.19,2.32,2.13,1.24-.7a11.65,11.65,0,0,0-1.33-2.41Zm-1.06,6.75c.22.29.49.6.77.93l-.05-.12-.06-.16-.08-.21-.42-.75-.4-.73-2-2.51-1.29-1.55-3.94-4.12Zm-10.22-22c-.08.05-.07.12,0,.21C459.08,129.8,459.1,129.62,459,129.67Z"/><polygon class="cls-6" points="545.31 129.66 546.9 144.78 473.69 144.67 473.31 161.37 445.43 137.19 473.3 113.25 474.39 128.58 545.31 129.66"/><path class="cls-5" d="M246.74,62a.16.16,0,0,1,.24.16c.11.1.31-.06-.35.62a1.08,1.08,0,0,1-.58.24,14.9,14.9,0,0,1-3.09.16l-12.32-.13c-12.64-.11-25.28.6-37.92.38-2.22,0-4.44-.07-6.66-.28-1-.09-1.88-.27-2.84-.42a.29.29,0,0,1-.29-.3.28.28,0,0,1,.3-.28c1-.11,1.89-.27,2.85-.34,2.2-.17,4.41-.2,6.63-.26,12.64-.38,25.29-.81,37.94-.85l12.37.19a21.66,21.66,0,0,1,3.06.43c.23.07.4.35.49.24C247,61.13,246.85,61.79,246.74,62Z"/><path class="cls-5" d="M182.86,48.18l-.06.07c-1.48,1.69-3,3.33-4.58,5s-3.15,3.2-4.75,4.76c-1.94,1.89-3.95,3.73-6.05,5.47a67.47,67.47,0,0,1-6.6,4.86c-.27.18-1.34.81-2,1.21,1.51,1,3,2.11,4.46,3.23,1.63,1.25,3.22,2.55,4.76,3.88l12,12c0-2.43-.22-9.9.17-13,.19-1.51.93-2.26,1.29-2.36,1.3-.36,8.23-.52,17-.52,13,0,30.27.33,39.06.31l14.93.55L251.26,63c-1.31-.13-3.94-.4-7.35-.85-1.67-.22-3.5-.55-5.49-.84a.22.22,0,0,1-.21-.24.22.22,0,0,1,.23-.21c2-.08,3.87-.18,5.57-.19,5,0,8.32.22,8.32.22a1.11,1.11,0,0,1,1,1l1.6,12.72a1.17,1.17,0,0,1-.31.94,1.18,1.18,0,0,1-.91.37l-16.17-.46c-10.12,0-31.43-.33-44.65-.3-5,0-8.83,0-10.35.22,0,.15-.06.32-.08.48-.44,3.28-.25,11.47-.26,13.18A9.44,9.44,0,0,1,182,91.2a1.11,1.11,0,0,1-1.54.75,9.35,9.35,0,0,1-1.83-1.51c-3.21-3.12-10.64-11-12-12.22s-3.07-2.58-4.67-3.81-3.21-2.39-4.88-3.5a2.76,2.76,0,0,1-.8-.77,1.22,1.22,0,0,1-.13-.79A2.08,2.08,0,0,1,157,68.1a22.59,22.59,0,0,1,2.71-1.6,64.84,64.84,0,0,0,6.38-4.72c2-1.71,4-3.52,5.9-5.37q2.38-2.32,4.7-4.72c1.54-1.6,3-3.22,4.51-4.88.15-.17,1.22-1.31,1.76-1.4a1.18,1.18,0,0,1,1.13.37,6,6,0,0,1,1.07,4.09c0,2.81-.64,6.68-1,9.75-.15,1.2-.13,2.25-.24,3.1-.06.41-.25.54-.3.89a.15.15,0,0,1-.08.2.14.14,0,0,1-.2-.07,1.54,1.54,0,0,1-.78-.55,5.44,5.44,0,0,1-.52-3c-.06-2.94.81-6.77.93-9.71A10.69,10.69,0,0,0,182.86,48.18Z"/><path class="cls-5" d="M249.9,63a19.69,19.69,0,0,0-1.68-1.84.69.69,0,0,0-1.09.1,1.28,1.28,0,0,0,0,.91,5.38,5.38,0,0,0-.53-.37c-.59-.34-.9,0-.95.32a1.26,1.26,0,0,0,0,.49,4.85,4.85,0,0,0-.46-.38c-.56-.41-1.06-.34-1.22-.11a1,1,0,0,0,0,1,4.56,4.56,0,0,0,.37.67l-1.33-1.12s-.92-.53-1.28-.68a.64.64,0,0,0-.91.51,2.15,2.15,0,0,0,.13.6l-.6-.55a3.66,3.66,0,0,0-1.6-.89.67.67,0,0,0-.85.61,1.77,1.77,0,0,0,.12.59l-.44-.34-.91-.54c-1.31-.75-1.84-.21-1.93.27l-.1-.06a1.73,1.73,0,0,0-.78-.09.6.6,0,0,0-.31.93,7,7,0,0,0,1,1.4c.83.92,1.9,1.79,2.63,2.56,1.16,1.22,2.29,2.51,3.48,3.73a33.3,33.3,0,0,0,2.55,2.36c.61.5,1.14.9,1.58,1.21a2.12,2.12,0,0,0,.44.39,1.15,1.15,0,0,0,.29.08,3,3,0,0,0,.61.3.88.88,0,0,0,1.22-.43l0-.06.23.24c.14.13.46.48.56.54a.66.66,0,0,0,1-.81,8.34,8.34,0,0,0-1.35-2c-1.15-1.36-2.73-2.84-3.56-3.75l-3.65-4.48,1.9,1.65,7.29,8.49a.55.55,0,0,0,.43.17.53.53,0,0,0,.5-.33.57.57,0,0,0,0-.5c-.06-.11-.33-.5-.45-.66l-.78-.92-2-2.52-3.92-5-.36-.41L245,65.66c.91.87,1.81,1.8,2.66,2.78l1.68,2.44L251.09,73l.65.88.33.43.08.09s.24-1.11.63-1l.2.17,0,0,0,0-.17-.23-.14-.19-.07-.11.16.22.09.1.11.15.05,0c1.59,2,2.3,2.39,2.3,1.9.46,0,.2-.89-1.54-3h0l-.12-.17-.43-.74-.89-1.44a.86.86,0,0,0,.49-.25.58.58,0,0,0,.06-.6,10.32,10.32,0,0,0-1.06-1.91.57.57,0,0,0,.26,0,2.42,2.42,0,0,1,.22-.77l.11,0,0-.07s0,0,.07.11a5.94,5.94,0,0,0-.52-1l-.39-.87a13.19,13.19,0,0,1-.78-1.81h0a.14.14,0,0,0,.08-.2c-.48-1.4-.89-1-.82-.35,0,.22.09.53.16.86Zm-3.67,1.62,4.11,5.5,1.16,1.49c-1-1.42-1.93-2.89-2.95-4.31-.6-.84-1.23-1.65-1.92-2.44a3.22,3.22,0,0,0-.53-.42Zm5,2,.12.2-.08-.18,0-.08c-.09-.15-.19-.31-.3-.47s-.38-.52-.58-.77Z"/><path class="cls-5" d="M232.67,62.31c-.27-.26-.47,0-.54.15a.46.46,0,0,0,0,.26l0,0-.56-.33a2.24,2.24,0,0,0-.67-.28c-.32,0-.66.17-.46.76l0,.1a7.51,7.51,0,0,0-1.3-.73,1.77,1.77,0,0,0-1.26-.13.7.7,0,0,0-.49.78,1,1,0,0,0,.15.42c-.39-.21-.76-.4-1-.5a.83.83,0,0,0-1.07.22.4.4,0,0,0,0,.13,4.61,4.61,0,0,0-1.25-.52.71.71,0,0,0-.67.15.68.68,0,0,0-.18.86,8.93,8.93,0,0,0-.92-.55,2,2,0,0,0-1.5-.22.74.74,0,0,0-.52.52,12.32,12.32,0,0,0-1.85-1,1.35,1.35,0,0,0-1.44.12.72.72,0,0,0-.11.15l-.52-.32a4.69,4.69,0,0,0-1.25-.6.73.73,0,0,0-.66.17.74.74,0,0,0-.23.65,6,6,0,0,0-.85-.57c-.54-.2-.9-.1-1.05.36-.37-.22-.74-.42-1.11-.62a5.77,5.77,0,0,0-1.16-.59c-.45-.1-.74,0-.8.45a4.4,4.4,0,0,0-.47-.29.58.58,0,0,0-.45,0,.54.54,0,0,0-.21.84,5.79,5.79,0,0,0,.45.65l-.69-.42a4.55,4.55,0,0,0-1.17-.49c-.59,0-.93.2-.93.85a1.82,1.82,0,0,0,.63,1.15,19.9,19.9,0,0,0,2.61,1.88c1.75,1.32,3.41,2.78,5.16,4.1,1.19.89,2.43,1.69,3.67,2.5a.52.52,0,0,0,.73-.11.35.35,0,0,0,.07-.12l1.56,1.3c.17.18.35.35.52.51a6.15,6.15,0,0,0,1.45,1,.56.56,0,0,0,.47,0,.58.58,0,0,0,.3-1,3.09,3.09,0,0,0-.41-.37l-.07-.06a.76.76,0,0,0,.41,0,.71.71,0,0,0,.47-.51l.48.45,1.12.83a1.76,1.76,0,0,0,.89.32.72.72,0,0,0,.48-.42.74.74,0,0,0,.05-.44,2.2,2.2,0,0,0,.28.22.82.82,0,0,0,.77.15.65.65,0,0,0,.48-.74l.59.49a4,4,0,0,0,.37.25.64.64,0,0,0,.82-.84,3,3,0,0,0-.27-.53l.45.45a11.63,11.63,0,0,0,1.18,1.07,1,1,0,0,0,.8.12.67.67,0,0,0,.48-.67.61.61,0,0,0-.16-.49l-.14-.14c-.11-.12-.36-.37-.91-.91l-2.81-2.61-2.19-2.18L225,66.32c.54.36,1.06.73,1.58,1.11,1.34,1,2.62,2,3.9,3.12l2.9,2.74.68.59a4.61,4.61,0,0,0,.57.5.61.61,0,0,0,.58,0,.59.59,0,0,0,.29-.82.82.82,0,0,0-.09-.19l.06,0a3.19,3.19,0,0,0,.87.62.69.69,0,0,0,1-.32.68.68,0,0,0,0-.6l.55.5a.84.84,0,0,0,1.17-.08.83.83,0,0,0,.05-1.08l.61.64c.11.13.35.48.42.56a.8.8,0,0,0,1.38-.25l0-.07c.06.09.13.17.16.21a.63.63,0,0,0,1.09-.22.61.61,0,0,0,0-.5,3.68,3.68,0,0,0-.55-.91c-.45-.56-1.05-1.09-1.43-1.52-.86-1-1.74-1.94-2.66-2.85-.46-.45-.93-.89-1.4-1.32l-2.25-2.34-1.72-1.35A1.41,1.41,0,0,0,232.67,62.31Zm-1.47,7,2.1,2.05c.21.2.66.53,1.09.88L233,71l-1-1-.29-.26Zm7.06,2.13.57.6-.41-.45h0Zm-14.7-3.9L225,68.76c.53.46,1.39,1.06,2.24,1.72l-.31-.3c-1-.86-2-1.71-3-2.53q-.83-.66-1.68-1.29Zm8.52.61c.52.44,1,.89,1.56,1.35l-.9-.89c-.47-.44-1-.88-1.45-1.29s-.93-.78-1.41-1.14Z"/><path class="cls-5" d="M201.71,62.66c-.05,0-1.19-.71-1.65-.93a1.21,1.21,0,0,0-1.7,1,2.23,2.23,0,0,0,.22.86l-1.06-.71a12,12,0,0,0-1.2-.89.94.94,0,0,0-.65,0,.8.8,0,0,0-.6.89v0l0,0a5.8,5.8,0,0,0-.91-.55,1.2,1.2,0,0,0-.85,0,1.08,1.08,0,0,0-.66.84c-.31-.21-.6-.38-.8-.49a1.2,1.2,0,0,0-1.39.12,1.09,1.09,0,0,0-.15,1c-.57-.38-1.31-.85-1.72-1.06a1.11,1.11,0,0,0-1.45.3l-.56-.46c-.38-.3-1.38.42-1.63.42s-.63-1.09-.8-.84a.93.93,0,0,0-.16.51A28.7,28.7,0,0,0,181.27,61a1.33,1.33,0,0,0-1.79.43,1.43,1.43,0,0,0,.22,1.39A9.82,9.82,0,0,0,181,64.22a1.2,1.2,0,0,0-.59.59,1.31,1.31,0,0,0,.5,1.55l2.32,1.72,3.07,2.25a1.07,1.07,0,0,0,.32.16l1.52,1.29a29.17,29.17,0,0,0,2.54,2.2,1.46,1.46,0,0,0,1.29.23,1.16,1.16,0,0,0,.81-1,.93.93,0,0,0,0-.24,14,14,0,0,0,1.46,1.36,1.83,1.83,0,0,0,1.58.43,1,1,0,0,0,.7-.87,1.06,1.06,0,0,0,0-.39l.11.06a.86.86,0,0,0,1.2-.34.84.84,0,0,0,.13-.59,14.46,14.46,0,0,0,1.95,1.68,1.42,1.42,0,0,0,1.2.17,1.08,1.08,0,0,0,.68-.9,9.28,9.28,0,0,0,1.33,1.12,1.24,1.24,0,0,0,1.59-.14,1.3,1.3,0,0,0,.16-1.09,6.85,6.85,0,0,0,.69.58,1.35,1.35,0,0,0,1.21.21,1.09,1.09,0,0,0,.74-.86,1.11,1.11,0,0,0-.15-.82,8.82,8.82,0,0,0-1-1l-.31-.31.26.21,1.48,1.37a9.55,9.55,0,0,0,1.06,1,1,1,0,0,0,.9,0,1,1,0,0,0,.48-1.3,5.38,5.38,0,0,0-.82-1.38l1.26,1.14A16.4,16.4,0,0,0,212.4,74a1.27,1.27,0,0,0,1.19.2,1,1,0,0,0,.68-1.09.94.94,0,0,0-.18-.51c-.05-.07-.15-.2-.3-.38a32.85,32.85,0,0,0-2.59-2.67l-.35-.33q1.72,1.42,3.33,3a20.18,20.18,0,0,0,1.89,1.9,1.68,1.68,0,0,0,1.47.39.89.89,0,0,0,.61-1,.94.94,0,0,0-.09-.31l.63.55A15.8,15.8,0,0,0,220,75a1.06,1.06,0,0,0,.64.18c.43,0,.9-.21.87-1a1.94,1.94,0,0,0-.55-1.15A21.49,21.49,0,0,0,218.58,71c-1.13-1-2.29-1.92-3.48-2.8-.67-.5-1.36-1-2.06-1.47-1.07-.86-2.66-2.06-3.81-2.79a3.19,3.19,0,0,0-1.79-.67l0,0-.49-.32a3.9,3.9,0,0,0-.59-.37.74.74,0,0,0-.89,1c-.69-.39-1.71-.94-2.24-1.17a1.07,1.07,0,0,0-1.33.32Zm14.66,11.39c.12-.1.08-.25-.05-.42C216.12,74,216,74.35,216.37,74.05Zm-8.45-10.51c0,.06,0,.11.11.15C208,63.56,208,63.44,207.92,63.54Z"/><path class="cls-5" d="M181.49,49.17a9.32,9.32,0,0,0,.32,1.27c-.42-.33-.82-.64-1.09-.82a1.21,1.21,0,0,0-1.9.5,2.72,2.72,0,0,0,.06,1.33,1.79,1.79,0,0,0-1.34.85,2.73,2.73,0,0,0,.15,1.71,1.35,1.35,0,0,0-1.5.3,1.2,1.2,0,0,0-.26.52,1.92,1.92,0,0,0-1.56.37,2.1,2.1,0,0,0-.77,1l0,.14a1.38,1.38,0,0,0-.34,1.29.78.78,0,0,1-.05.18,6.53,6.53,0,0,1-.49.89l-.24-.15a1.24,1.24,0,0,0-.73-.13c-.5.06-1,.34-.89,1.29a2.24,2.24,0,0,0,.2.62,1.28,1.28,0,0,0-.64,0,1.14,1.14,0,0,0-.58,1.61,4.43,4.43,0,0,0,.43.83h0a3.09,3.09,0,0,0-1.66-.57,1,1,0,0,0-1,.8,1.47,1.47,0,0,0,.21,1.11,27,27,0,0,0,2.56,3.19l6.22,6.94c.2.21,1.21.93,1.92,1.57a2.71,2.71,0,0,0-.2.61c-.18.89.09,1.55,1.34,1.79a1,1,0,0,0,.74-.19,1.29,1.29,0,0,0,.41-.49,2,2,0,0,0-.12-1.74,4.35,4.35,0,0,1,.43-.91c.43-.33,2.25-.41,3.29-.7a2.07,2.07,0,0,0,1.41-1,.91.91,0,0,0,0-.35l.05,0,0,0a15.76,15.76,0,0,0,3.11.87,1.23,1.23,0,0,0,1.48-.92,1.64,1.64,0,0,0-1.11-1.68,9.84,9.84,0,0,0-3-.58,1.64,1.64,0,0,0-.1-.78,9.07,9.07,0,0,0-1.24-1.92l-2.5-3.14-.19-.22a1.57,1.57,0,0,0,1.12-.76,2.31,2.31,0,0,0-.25-1.8A21.3,21.3,0,0,0,182,60l.2,0a1.27,1.27,0,0,0,1.08-1.24,3.45,3.45,0,0,0-.54-2.11,4.76,4.76,0,0,0-.31-.47,1.06,1.06,0,0,0,.5-1,3.1,3.1,0,0,0-.42-1.63l0,0a1.23,1.23,0,0,0,1-.25,2.73,2.73,0,0,0-.09-2.26,21.21,21.21,0,0,0-1.22-2.37.47.47,0,0,0-.11-.13C182.55,47.42,181.49,49.17,181.49,49.17Zm-2.43,27.6c0,.06-.14.19-.08.17s.18-.11.17-.21ZM181.21,73l.06.08h0l-.07,0Zm2.08-1.22,0,.07,0,0v0h0l0,0-.06,0Zm-6.21-14.55.06.17.23.19-.29-.36Zm5.27-3.07c.17-.16,0-.21-.28-.2C182.16,54.1,182.26,54.23,182.35,54.14ZM182,51.89c-.08.06-.38.38-.17.4s.27-.16.26-.44C182.06,51.86,182,51.87,182,51.89Zm-2.47-.57c-.11.17.33,0,.39,0H180C179.81,51.21,179.65,51.18,179.55,51.32Z"/><path class="cls-5" d="M179.91,77.09a.41.41,0,0,0,.1-.54l-1.08-1.86-1.75-2.62-5.58-7.2c-.46-.52-1.88-2.41-2.57-3.1-.33-.33-.65-.39-.74-.34-.39.2-.46.44-.18.76s.59.41.79.66l0,.07A.61.61,0,0,1,169,63a.14.14,0,0,0,.13.13c.6.88,1.31,2,1.6,2.4l3.3,4.37q-1.38-1.43-2.85-2.79l-1.48-1.42-.12-.22c-.39-.64-1.31-1.45-1.67-1.94l-.19-.37a1,1,0,0,0-.8-.54,1,1,0,0,0-1,1.21s0,.08,0,.17l0,.08a1.15,1.15,0,0,0-.56.59v0l0,0a1,1,0,0,0-.71-.11.79.79,0,0,0-.54,1,1.64,1.64,0,0,0,.2.44l0,.08a3.25,3.25,0,0,0-.23.54c-.44-.35-.84-.65-1.16-.86a1.7,1.7,0,0,0-1.36-.35.72.72,0,0,0-.42,1,.41.41,0,0,0,.06.11l.13.18c.2.27.58.83.82,1.19a2.74,2.74,0,0,0-1-.46,1.08,1.08,0,0,0-1.22.66s0,.08,0,.14a.76.76,0,0,0-.32,0,.62.62,0,0,0-.46.57.8.8,0,0,0-.57.89,3.33,3.33,0,0,0,1,1.23c.76.67,1.82,1.34,2.34,1.78.08.08,1.06.94,1.66,1.41h0a2.77,2.77,0,0,0,.57.39.7.7,0,0,0,.52,0l.09,0,.11,0,.06,0,1,1.11,2,2.1a10.08,10.08,0,0,0,1.37,1.35.89.89,0,0,0,1.08.06c.3.3.6.6.89.91,1.56,1.61,3.07,3.27,4.52,4.94.66.77,1.6,2.24,2.55,3.32a5.17,5.17,0,0,0,1.57,1.31.64.64,0,0,0,.7,0,.63.63,0,0,0,.27-.59,1.11,1.11,0,0,0-.14-.35,2.2,2.2,0,0,0,.32.29.66.66,0,0,0,.56.07.65.65,0,0,0,.4-.94,6.31,6.31,0,0,0-.83-1.47c-.26-.36-.56-.72-.85-1.08a.84.84,0,0,0,.69.23.81.81,0,0,0,.27-1c-.13-.24-.35-.65-.56-1-.42-.94-.9-2.11-1-2.23a17.26,17.26,0,0,0-1.35-2c-1.1-1.44-2.41-2.74-3.46-4.19L170,69.17l.62.56c.81.73,1.8,1.59,2.84,2.55l2.94,3.38,2.41,3,.82,1.2s.19.31.25.39c1.75,2.19,2.33,2.13,1.24-.7a11.65,11.65,0,0,0-1.33-2.41A.61.61,0,0,0,179.91,77.09Zm-1.06,6.75c.21.29.48.6.77.94l-.06-.12-.06-.16-.08-.22-.41-.75-.41-.73-2-2.51-1.3-1.55-3.94-4.12Zm-10.23-22c-.08,0-.07.11,0,.2C168.7,62,168.72,61.78,168.62,61.84Z"/><polygon class="cls-6" points="254.94 61.83 256.52 76.94 183.31 76.83 182.93 93.53 155.05 69.35 182.92 45.41 184.01 60.74 254.94 61.83"/><ellipse class="cls-1" cx="353.47" cy="33.37" rx="66.74" ry="12.6"/><path class="cls-7" d="M423.31,135.24v37.39h-.11c-2.11,8.22-33.36,14.78-71.63,14.78s-69.52-6.56-71.62-14.78h-.12V135.24c0,8.66,32.13,15.65,71.74,15.65S423.31,143.9,423.31,135.24Z"/><path class="cls-8" d="M423.31,135.23a2.61,2.61,0,0,1-.12.85,3.64,3.64,0,0,1-.46,1.14,4.23,4.23,0,0,1-.33.53c-.17.21-.35.41-.55.64l-.56.56c-.38.32-.79.67-1.25,1l-1.09.67a19.11,19.11,0,0,1-2.72,1.4c-.5.24-1,.47-1.58.68a82.22,82.22,0,0,1-14.83,4.15c-1.7.32-3.48.64-5.33.94l-2.81.44c-1.9.29-3.89.55-5.91.79-3.07.38-6.23.67-9.54.93-1.17.09-2.34.18-3.51.24-6.7.49-13.78.73-21.15.73s-14.45-.24-21.15-.73c-1.17-.06-2.34-.15-3.51-.24-3.31-.26-6.47-.55-9.54-.93-2-.24-4-.5-5.91-.79l-2.81-.44c-1.84-.3-3.63-.62-5.33-.94a82.22,82.22,0,0,1-14.83-4.15c-.56-.21-1.08-.44-1.58-.68a19.66,19.66,0,0,1-2.72-1.4c-.38-.24-.73-.44-1.08-.67s-.88-.68-1.26-1l-.56-.56c-.2-.23-.38-.43-.55-.64a4.23,4.23,0,0,1-.33-.53,3.64,3.64,0,0,1-.46-1.14,2.61,2.61,0,0,1-.12-.85c0-2.92,3.63-5.64,10-8,12.49,4.59,35.46,7.69,61.76,7.69s49.27-3.1,61.76-7.69C419.68,129.59,423.31,132.31,423.31,135.23Z"/><path class="cls-9" d="M423.31,135.61a2.22,2.22,0,0,1-.12.77,3.21,3.21,0,0,1-.46,1c-.09.15-.21.31-.33.47s-.35.37-.55.58l-.56.5c-.38.29-.79.61-1.25.9l-1.09.61a19.27,19.27,0,0,1-2.72,1.26,16.23,16.23,0,0,1-1.58.61,89.16,89.16,0,0,1-14.83,3.75c-1.7.29-3.48.58-5.33.84-.9.14-1.84.27-2.81.4-1.9.26-3.89.5-5.91.71-3.07.35-6.23.61-9.54.85-1.17.08-2.34.16-3.51.21-6.7.45-13.78.66-21.15.66s-14.45-.21-21.15-.66c-1.17,0-2.34-.13-3.51-.21-3.31-.24-6.47-.5-9.54-.85-2-.21-4-.45-5.91-.71-1-.13-1.9-.26-2.81-.4-1.84-.26-3.63-.55-5.33-.84a89.16,89.16,0,0,1-14.83-3.75,16.23,16.23,0,0,1-1.58-.61,19.81,19.81,0,0,1-2.72-1.26c-.38-.21-.73-.4-1.08-.61a15.27,15.27,0,0,1-1.26-.9l-.56-.5c-.2-.21-.38-.39-.55-.58s-.24-.32-.33-.47a3.21,3.21,0,0,1-.46-1,2.22,2.22,0,0,1-.12-.77c0-2.64,3.63-5.09,10-7.2,12.49,4.14,35.46,6.94,61.76,6.94s49.27-2.8,61.76-6.94C419.68,130.52,423.31,133,423.31,135.61Z"/><path class="cls-10" d="M420.24,131.77a2.37,2.37,0,0,1-.11.76,3.44,3.44,0,0,1-.45,1c-.09.16-.2.32-.31.48l-.54.58-.53.5c-.37.29-.76.61-1.21.9s-.68.39-1,.6a18.3,18.3,0,0,1-2.62,1.27c-.47.21-1,.42-1.52.61a84,84,0,0,1-14.28,3.75c-1.63.29-3.35.58-5.12.84l-2.71.4c-1.83.26-3.74.5-5.69.71-3,.34-6,.61-9.18.84-1.13.08-2.25.16-3.38.22-6.45.44-13.27.66-20.36.66s-13.92-.22-20.37-.66c-1.12-.06-2.25-.14-3.38-.22-3.18-.23-6.22-.5-9.18-.84-1.94-.21-3.86-.45-5.69-.71l-2.7-.4c-1.78-.26-3.5-.55-5.13-.84a84.29,84.29,0,0,1-14.28-3.75c-.54-.19-1-.4-1.52-.61a18.3,18.3,0,0,1-2.62-1.27c-.37-.21-.71-.39-1-.6a14.1,14.1,0,0,1-1.21-.9l-.54-.5L283,134a5.55,5.55,0,0,1-.77-1.51,2.37,2.37,0,0,1-.11-.76c0-2.64-.8-12.15,5.31-14.27,12,4.15,38.43,14,63.76,14s52.61-7,64.64-11.18C421.93,122.43,420.24,129.13,420.24,131.77Z"/><path class="cls-11" d="M423.31,82.76v37.39h-.11c-2.11,8.23-33.36,14.78-71.63,14.78s-69.52-6.55-71.62-14.78h-.12V82.76c0,8.66,32.13,15.66,71.74,15.66S423.31,91.42,423.31,82.76Z"/><path class="cls-9" d="M423.31,82.76a4.2,4.2,0,0,1-.06.61,1,1,0,0,1-.05.24.89.89,0,0,1-.09.26,1.86,1.86,0,0,1-.18.47c-.06.12-.11.26-.2.41s-.21.35-.32.53-.36.4-.56.64l-.56.56-.29.26c-.29.23-.58.44-.91.67,0,0,0,.06,0,.06l-1.09.67a19.1,19.1,0,0,1-2.72,1.41c-.5.23-1,.47-1.58.67a59.41,59.41,0,0,1-7.72,2.52c-2.2.58-4.57,1.14-7.11,1.63-1.7.33-3.48.65-5.33.94l-2.81.44c-1.9.29-3.89.56-5.91.79-3.07.38-6.23.67-9.53.94-1.17.08-2.34.17-3.52.23s-2.19.15-3.33.2l-3.37.18c-4.65.23-9.48.35-14.45.35s-9.8-.12-14.45-.35l-3.37-.18c-1.14,0-2.22-.11-3.33-.2s-2.34-.15-3.51-.23c-3.31-.27-6.47-.56-9.54-.94-2-.23-4-.5-5.91-.79l-2.81-.44c-1.84-.29-3.63-.61-5.33-.94-2.54-.49-4.91-1.05-7.11-1.63a59.41,59.41,0,0,1-7.72-2.52c-.56-.2-1.08-.44-1.58-.67a19.66,19.66,0,0,1-2.72-1.41c-.38-.23-.73-.44-1.08-.67,0,0,0,0-.06-.06-.32-.23-.62-.44-.91-.67l-.29-.26-.56-.56-.55-.64c-.12-.18-.24-.36-.33-.53s-.14-.29-.2-.41a1.86,1.86,0,0,1-.18-.47,1.29,1.29,0,0,1-.08-.26.71.71,0,0,1-.06-.24,4.2,4.2,0,0,1-.06-.61,5.24,5.24,0,0,1,2.28-3.92v0a26.34,26.34,0,0,1,7.7-4c12.49,4.59,35.46,7.7,61.76,7.7s49.27-3.11,61.77-7.7a29.83,29.83,0,0,1,6.87,3.39v0C422.23,79.63,423.31,81.15,423.31,82.76Z"/><path class="cls-7" d="M423.31,82.76a4.2,4.2,0,0,1-.06.61,1,1,0,0,1-.05.24.89.89,0,0,1-.09.26,1.86,1.86,0,0,1-.18.47c-.06.12-.11.26-.2.41s-.21.35-.32.53-.36.4-.56.64l-.56.56-.29.26c-.29.23-.58.44-.91.67,0,0,0,.06,0,.06l-1.09.67a19.1,19.1,0,0,1-2.72,1.41c-.5.23-1,.47-1.58.67a59.41,59.41,0,0,1-7.72,2.52c-2.2.58-4.57,1.14-7.11,1.63-1.7.33-3.48.65-5.33.94l-2.81.44c-1.9.29-3.89.56-5.91.79-3.07.38-6.23.67-9.53.94-1.17.08-2.34.17-3.52.23s-2.19.15-3.33.2l-3.37.18c-4.65.23-9.48.35-14.45.35s-9.8-.12-14.45-.35l-3.37-.18c-1.14,0-2.22-.11-3.33-.2s-2.34-.15-3.51-.23c-3.31-.27-6.47-.56-9.54-.94-2-.23-4-.5-5.91-.79l-2.81-.44c-1.84-.29-3.63-.61-5.33-.94-2.54-.49-4.91-1.05-7.11-1.63a59.41,59.41,0,0,1-7.72-2.52c-.56-.2-1.08-.44-1.58-.67a19.66,19.66,0,0,1-2.72-1.41c-.38-.23-.73-.44-1.08-.67,0,0,0,0-.06-.06-.32-.23-.62-.44-.91-.67l-.29-.26-.56-.56-.55-.64c-.12-.18-.24-.36-.33-.53s-.14-.29-.2-.41a1.86,1.86,0,0,1-.18-.47,1.29,1.29,0,0,1-.08-.26.71.71,0,0,1-.06-.24,4.2,4.2,0,0,1-.06-.61,5.24,5.24,0,0,1,2.28-3.92v0a26.34,26.34,0,0,1,7.7-4c12.49,4.59,35.46,7.7,61.76,7.7s49.27-3.11,61.77-7.7a29.83,29.83,0,0,1,6.87,3.39v0C422.23,79.63,423.31,81.15,423.31,82.76Z"/><path class="cls-10" d="M419.35,68.39l.86,9.78v0c0,4.86-31.77,12.59-68.64,12.59s-69.46-7.09-69.46-11.94l0-10.45"/><path class="cls-8" d="M288.9,74.42l.91.35c12.49,4.59,35.46,7.7,61.76,7.7s49.27-3.11,61.77-7.7c.43-.17.87-.35,1.31-.5"/><path class="cls-12" d="M423.52,30.29V67.68h-.12c-2.11,8.22-33.35,14.77-71.62,14.77s-69.52-6.55-71.63-14.77H280V30.29c0,8.66,32.13,15.65,71.75,15.65S423.52,39,423.52,30.29Z"/><ellipse class="cls-13" cx="351.57" cy="30.29" rx="71.74" ry="15.68"/></svg>