<svg xmlns="http://www.w3.org/2000/svg" viewBox="0 0 216 153.14"><defs><style>.cls-1,.cls-10,.cls-11,.cls-12,.cls-13,.cls-14,.cls-15,.cls-2,.cls-3,.cls-6,.cls-7,.cls-8,.cls-9{fill:none;}.cls-1,.cls-10,.cls-11,.cls-12,.cls-13,.cls-14,.cls-15,.cls-2,.cls-3,.cls-6,.cls-7{stroke:#000;}.cls-1,.cls-10,.cls-15,.cls-2,.cls-3,.cls-6,.cls-7,.cls-8,.cls-9{stroke-miterlimit:10;}.cls-1{stroke-width:1.07px;}.cls-2{stroke-width:1.43px;}.cls-3{stroke-width:1.04px;}.cls-4{fill:#85d2fb;}.cls-5{fill:#2082d8;}.cls-6{stroke-width:0.45px;}.cls-8,.cls-9{stroke:#6e6e6e;}.cls-8{stroke-width:0.46px;}.cls-9{stroke-width:0.45px;}.cls-10{stroke-width:1.22px;}.cls-11,.cls-12,.cls-13,.cls-14{stroke-linecap:round;stroke-linejoin:round;}.cls-11{stroke-width:0.86px;}.cls-12{stroke-width:0.87px;}.cls-14{stroke-width:1.08px;}.cls-15{stroke-width:1.07px;}</style></defs><g id="Layer_1" data-name="Layer 1"><path class="cls-1" d="M196.1,109.7V97.29H173.88"/><polyline class="cls-2" points="45.53 97.51 22.31 97.51 22.31 109.07"/><line class="cls-3" x1="94.74" y1="96" x2="111.26" y2="96"/></g><g id="Pict_1"><polygon class="cls-4" points="154.28 88.21 171.6 87.43 174.81 91.25 163.37 89.34 154.28 88.21"/><rect class="cls-5" x="111.8" y="38.03" width="30.57" height="3.31"/><polygon class="cls-4" points="145.49 89.11 145.49 94.48 172.83 94.32 174.69 90.83 145.49 89.11"/><rect class="cls-5" x="111.8" y="77.8" width="30.57" height="3.31"/><rect class="cls-5" x="111.26" y="100.73" width="30.57" height="3.31"/><rect class="cls-6" x="111.53" y="105.3" width="11.92" height="17.98" rx="1.61"/><rect class="cls-4" x="113.59" y="107.52" width="7.8" height="3"/><rect class="cls-6" x="111.53" y="42.18" width="11.92" height="17.98" rx="1.61"/><rect class="cls-4" x="113.59" y="44.3" width="7.8" height="3.44"/><path class="cls-7" d="M135.1,27.81c.31,0,.06-7.64-.06-8.66-.2-1.68-1-2.22-2.62-2.28V14.46h-3.21v2.21c-.49.54-1.29.43-1.85.88a2.44,2.44,0,0,0-.75,1.59,46.83,46.83,0,0,0,0,9.47"/><rect class="cls-5" x="128.56" y="12.02" width="4.44" height="2.59" transform="translate(-0.68 13.25) rotate(-5.79)"/><path class="cls-7" d="M120.08,28c0-.27-.39-10.77-.39-10.77s.39-1.07,2.58-2.22V13.34h4v1.44s2.26.56,2.49,1.86"/><rect class="cls-5" x="121.8" y="10.62" width="5.06" height="2.72"/><polygon class="cls-5" points="45.89 110.52 57.38 112.76 57.38 121.21 45.89 118.57 45.89 110.52"/><polygon class="cls-4" points="65.07 114.67 86.18 111.17 86.18 124.57 65.07 128.06 65.07 114.67"/><path class="cls-8" d="M57.43,25.41a16.1,16.1,0,0,1-.74-10,3.63,3.63,0,0,1,.6-1.43,3,3,0,0,1,2.62-1,7.43,7.43,0,0,1,4.75,2.61,23.55,23.55,0,0,1,3.07,4.75l4.45,8.27"/><path class="cls-9" d="M73.66,26.67c.12-2.37,1.58-4.42,3.13-6.19,3.12-3.57,7.21-7.35,11.66-9.18A2.91,2.91,0,0,1,90,11c3.54.59,1.27,6,.07,7.64-2.54,3.41-6.3,4.61-9.76,6.76a40.74,40.74,0,0,0-4.42-12.79c-1.27-2.33-3.73-4.86-6.37-2.68-2.1,1.75-3.31,4.8-4,7.37A21,21,0,0,0,65,26.64"/><rect class="cls-5" x="85.24" y="61.65" width="8.97" height="6.87"/><polygon class="cls-5" points="64.26 56.71 46.05 58.49 45.66 55.72 64.26 53.41 64.26 56.71"/><polygon class="cls-5" points="64.44 90.91 46.17 89.82 46.22 87.02 64.95 87.66 64.44 90.91"/><polygon class="cls-5" points="63.7 111.51 45.89 107.55 45.91 106.01 64.17 109.81 63.7 111.51"/><polygon class="cls-5" points="64.11 75.65 45.81 75.31 45.75 72.51 64.5 72.38 64.11 75.65"/><polygon class="cls-5" points="64.26 48.56 46.05 50.35 45.66 47.58 64.26 45.27 64.26 48.56"/><polygon class="cls-4" points="55.03 94.64 64.07 95.7 85.24 94.64 85.24 104.01 64.13 105.2 55.03 103.62 55.03 94.64"/><polygon class="cls-7" points="45.66 107.58 45.66 120.24 63.87 124.46 73.76 124.46 73.76 122.35 83.26 121.82 83.26 123.28 93.16 122.48 93.16 120.77 94.74 120.37 94.74 109.69 63.87 111.4 45.66 107.58"/><path class="cls-6" d="M71,115.23a44.92,44.92,0,0,1,.1,5.8"/><path class="cls-6" d="M81.55,114.83l-.3,5.41"/><path class="cls-7" d="M64.18,111.8q-.54,6.51-.62,13.06"/><path class="cls-7" d="M64.08,108.89l30.49-1.71c.1-5.32.12-10.64.09-16L64,91.35q.25,8.76.12,17.54l-18.55-3.16V90.29c6.54,0,12.48.8,19,1.37"/><polygon class="cls-7" points="45.66 76.31 45.53 86.33 61.23 88.05 96.98 86.6 96.98 76.31 61.1 76.31 45.66 76.31"/><path class="cls-7" d="M45.53,72.88V59l18.34-1.45h16s3.56,4,6.2,4.08,7.26.45,8.71-1.57l-.07,12.8H45.53Z"/><rect class="cls-4" x="63.87" y="61.4" width="9.89" height="7.12"/><path class="cls-7" d="M94.74,60.08h0A7.07,7.07,0,0,0,96.06,56V48.47l-16.33.21L80,54l-16.4-.79-17.9,2.5v-5l18.21-2.24"/><path class="cls-7" d="M45.66,43.4l18.21-3.64,30.8,1.82s-.46,4.64-.46,4.51L63.87,44.77l-18.21,3Z"/><rect class="cls-5" x="83.39" y="49.79" width="10.82" height="4.49"/><rect class="cls-6" x="65.06" y="64.43" width="7.12" height="4.09"/><path class="cls-7" d="M64,53.61v3.56"/><path class="cls-7" d="M63.88,72.87,64,76.3"/><path class="cls-7" d="M64.26,88.18v3.43"/><path class="cls-10" d="M93.29,86.73v4.48"/><path class="cls-10" d="M92.7,73.26a19.3,19.3,0,0,0-.2,3.31"/><path class="cls-10" d="M92.89,46.22l-.15,2.24"/><path class="cls-7" d="M79.93,54.41c0,1.38,0,2.37,0,3.48"/><path class="cls-7" d="M63.47,48.68q8-.15,16,0"/><path class="cls-7" d="M63.47,74.46l28.76.08"/><path class="cls-7" d="M64.21,109a12.38,12.38,0,0,0-.07,2.51"/><path class="cls-6" d="M73.5,108.76v2"/><path class="cls-6" d="M73.37,88.05v3.16"/><path class="cls-6" d="M83.9,87.65l.23,3.26"/><path class="cls-6" d="M84.29,108.16a3,3,0,0,0-.19,1.72"/><path class="cls-11" d="M50.84,111.51a38.52,38.52,0,0,0-3.33,2.54"/><path class="cls-12" d="M54.1,112.05l-6.59,4.35"/><path class="cls-13" d="M56.05,113.34a75.75,75.75,0,0,1-8.15,5"/><path class="cls-14" d="M56.24,115.9a29.87,29.87,0,0,1-4.53,3.27"/><path class="cls-13" d="M56.43,118.33l-1.74,1.29"/><path class="cls-7" d="M53.59,41.52l-.23-5.38a7,7,0,0,1,.32-3.08A21.73,21.73,0,0,1,55.3,30.6c.58-1,.38-2,.66-3.28a7.62,7.62,0,0,1,3.42-.23c.25,1.24,0,2.15.63,3,.37.54.9,1,1.27,1.5A6.57,6.57,0,0,1,62,35.5l-.11,4.21"/><rect class="cls-5" x="55.51" y="25.38" width="4.72" height="2.56" transform="translate(3.49 -6.55) rotate(6.68)"/><path class="cls-7" d="M61.7,32.09a3.9,3.9,0,0,1,1.55-3.26,4.09,4.09,0,0,0,.73-.57,2.69,2.69,0,0,0,.32-2A8,8,0,0,1,67.37,26a3.85,3.85,0,0,0,1.3,2.85c.79.74,1.74,1.55,1.72,2.63,0,.91-.74,1.64-1,2.5a5.94,5.94,0,0,0-.22,2l0,3.81"/><path class="cls-7" d="M75.12,40.19a45,45,0,0,1-.43-5.43,4,4,0,0,1,.45-1.88c.27-.56.9-1.13.88-1.78,0-1-.76-1.23-.89-2.83a10.59,10.59,0,0,0-2.81.13,5.23,5.23,0,0,1-1.85,3.32"/><path class="cls-7" d="M84.17,41.16l.21-5.94a5.79,5.79,0,0,0-.48-3.15c-.57-1-1.66-1.55-2.2-2.53a5.84,5.84,0,0,1-.45-2.88.53.53,0,0,0-.15-.46.55.55,0,0,0-.38-.07l-1.82.1a1,1,0,0,0-.86.89,7.39,7.39,0,0,1-.57,1.74,9.62,9.62,0,0,1-1.38,2.21"/><polygon class="cls-5" points="67.94 26.5 63.74 26.57 63.74 23.94 67.94 23.94 67.94 26.5"/><polygon class="cls-5" points="75.62 28.69 71.78 28.92 71.78 26.44 75.62 26.3 75.62 28.69"/><polygon class="cls-5" points="81.81 27.39 77.53 27.39 77.53 24.41 81.64 24.6 81.81 27.39"/><path class="cls-7" d="M64.05,76.29q.14,6.52.17,13"/><path class="cls-7" d="M63.73,39.6c.11,5.64.07,11.87.08,17.52l0,16.7"/><rect class="cls-15" x="111.58" y="41.11" width="30.57" height="21.86"/><rect class="cls-15" x="111.58" y="28.5" width="30.57" height="10.61"/><rect class="cls-15" x="111.58" y="66.27" width="30.57" height="12.41"/><path class="cls-15" d="M111.58,125.33H125.9V124.1s16.78.1,16.68,0-.26-20.71-.43-20.61l-.17.1-30.4-.1Z"/><path class="cls-15" d="M111.58,80.46c-.11.3,0,21.92,0,21.92h14.13V101l16.87.1-.43-20.61Z"/><rect class="cls-6" x="111.53" y="81.98" width="11.92" height="17.98" rx="1.61"/><rect class="cls-6" x="111.53" y="68.13" width="11.92" height="8.54" rx="1.61"/><rect class="cls-15" x="144.69" y="95.06" width="29.19" height="28.12"/><path class="cls-5" d="M148.87,100h15.37a5.46,5.46,0,0,1,5.46,5.46v12.12a0,0,0,0,1,0,0H148.87a0,0,0,0,1,0,0V100A0,0,0,0,1,148.87,100Z"/><path class="cls-7" d="M149.67,99.37H165a5.46,5.46,0,0,1,5.46,5.46V117a0,0,0,0,1,0,0H149.67a0,0,0,0,1,0,0V99.37A0,0,0,0,1,149.67,99.37Z"/><path class="cls-15" d="M173.88,95.06c.09-1.88.58-3.68-.07-5.42-.39-1.07-2-1.77-2.93-2.39l-5.82-3.91H143.47a59.38,59.38,0,0,1,1.05,12.77"/><line class="cls-7" x1="144.69" y1="89.69" x2="173.81" y2="89.64"/><rect class="cls-6" x="128.08" y="87.42" width="6.35" height="8.01" rx="1.6"/><rect class="cls-6" x="128.08" y="110.28" width="6.35" height="8.01" rx="2.23"/><rect class="cls-4" x="113.59" y="70.03" width="7.8" height="4.74"/><rect class="cls-4" x="113.59" y="83.69" width="7.8" height="3.37"/><rect class="cls-4" x="113.23" y="35.15" width="26.53" height="2.04"/><rect class="cls-6" x="135.61" y="68.13" width="4.15" height="2.48"/><rect class="cls-6" x="135.61" y="83.34" width="4.15" height="2.03"/><circle class="cls-4" cx="137.82" cy="92.69" r="2.21"/><rect class="cls-5" x="111.58" y="62.96" width="30.57" height="3.31"/><line class="cls-6" x1="132.9" y1="44.23" x2="139.27" y2="44.36"/><circle class="cls-4" cx="137.69" cy="114.41" r="2.15"/><polyline class="cls-6" points="129.72 47.73 139.27 47.73 139.27 60.16"/><line class="cls-6" x1="126.5" y1="77.81" x2="126.5" y2="68.13"/><polyline class="cls-6" points="125.12 105.3 125.12 121.75 139.76 121.75"/></g></svg>