<svg xmlns="http://www.w3.org/2000/svg" viewBox="0 0 216 153.14"><defs><style>.cls-1,.cls-10,.cls-11,.cls-12,.cls-14,.cls-15,.cls-2,.cls-3,.cls-6,.cls-7,.cls-8,.cls-9{fill:none;}.cls-1,.cls-10,.cls-11,.cls-12,.cls-13,.cls-14,.cls-15,.cls-2,.cls-3,.cls-6,.cls-7,.cls-8,.cls-9{stroke:#000;stroke-miterlimit:10;}.cls-1{stroke-width:1.51px;}.cls-2{stroke-width:1.37px;}.cls-3{stroke-width:1.21px;}.cls-4{fill:#6ed4ff;}.cls-13,.cls-5{fill:#2082d8;}.cls-6{stroke-width:1.05px;}.cls-7{stroke-width:0.67px;}.cls-8{stroke-width:0.62px;}.cls-9{stroke-width:0.58px;}.cls-10{stroke-width:0.44px;}.cls-11{stroke-width:0.46px;}.cls-12{stroke-width:0.59px;}.cls-13{stroke-width:0.53px;}.cls-14{stroke-width:1.03px;}.cls-15{stroke-width:1.11px;}</style></defs><g id="Pict_1"><line class="cls-1" x1="143.53" y1="61.22" x2="154.89" y2="61.34"/><line class="cls-2" x1="80.09" y1="78.32" x2="98.36" y2="74.39"/><line class="cls-3" x1="42.48" y1="86.5" x2="70.23" y2="80.12"/><polyline class="cls-4" points="40.35 87 39.52 99.35 67.27 125.34"/><path class="cls-5" d="M52.87,91.15,137,66.9s10.44,6.52,9.78,5.92S124.93,82,124.93,82l11.18,2.5L87,101Z"/><polygon class="cls-5" points="42.48 86.5 170.77 91.7 70.45 114.23 42.48 86.5"/><polygon class="cls-4" points="68.7 126.57 71 117.19 172.74 91.7 170.35 104.23 68.7 126.57"/><path class="cls-6" d="M171.3,92a.28.28,0,0,1-.1.5L70.45,114.23Z"/><path class="cls-6" d="M43.38,86.32l-2.47.5a2.89,2.89,0,0,0-2.3,3.2c.4,3.11,1,8,.91,9.33-.11,2,29.18,27.22,29.18,27.22S154.44,108,170.35,104.24l2.26-10.82c.14-1.11-.48-1.29-2.41-2.74L142.07,69.87"/><line class="cls-6" x1="68.7" y1="126.57" x2="70.45" y2="114.23"/><line x1="46.82" y1="91.7" x2="143.63" y2="73.94"/><line x1="55.36" y1="100.19" x2="153.21" y2="80.21"/><line x1="65.17" y1="108" x2="162.67" y2="86.23"/><line x1="54.53" y1="84.5" x2="84.52" y2="109.72"/><line x1="73.09" y1="79.96" x2="101.07" y2="107.11"/><line x1="121.06" y1="71.69" x2="151.17" y2="96.22"/><line x1="103.02" y1="72.82" x2="135.35" y2="100.19"/><line x1="93.19" y1="77.51" x2="119.19" y2="101.56"/><path class="cls-5" d="M79.52,51.91s.76,6.1,0,6.31-3.31-.07-3.33-.53,0-5,0-5Z"/><path class="cls-4" d="M76.53,63.47s-.29,21.62.51,23.31a26.75,26.75,0,0,1,1,3,13.59,13.59,0,0,0,1.35-4.32v-21s.46-1.93-.68-1.73A9.91,9.91,0,0,0,76.53,63.47Z"/><path class="cls-7" d="M80.69,51.72l-.39,14c-.18,6.92,0,9.6-.44,16.51-.09,1.34-1.4,7.9-1.82,7.9-.66,0-1.55-6.74-1.6-8.17-.27-7.34-.11-11.21-.2-18.14,0-3.72-.09-7.44-.06-11.21"/><path class="cls-7" d="M76.19,57.69a3.29,3.29,0,0,0,4.22,0"/><path class="cls-7" d="M80.36,63.19c0,.92-4.12.66-4.12.66"/><path class="cls-5" d="M73.09,52.21s.7,5.66,0,5.86S70,58,70,57.57s0-4.68,0-4.68Z"/><path class="cls-4" d="M70.31,62.93S70,83,70.79,84.56a26,26,0,0,1,.94,2.82,12.6,12.6,0,0,0,1.25-4V63.89s.43-1.79-.63-1.6A9,9,0,0,0,70.31,62.93Z"/><path class="cls-8" d="M74.17,52l-.36,13c-.18,6.42,0,8.91-.41,15.31-.09,1.25-1.3,7.34-1.69,7.34-.61,0-1.43-6.26-1.48-7.58-.25-6.81-.11-10.4-.19-16.84,0-3.44-.08-6.89-.06-10.39"/><path class="cls-8" d="M70,57.57a3,3,0,0,0,3.9,0"/><path class="cls-8" d="M73.86,62.67c0,.86-3.82.61-3.82.61"/><path class="cls-5" d="M66.87,50.66s.65,5.25,0,5.44S64,56,64,55.64s0-4.35,0-4.35Z"/><path class="cls-4" d="M64.29,60.62s-.25,18.6.44,20.06a22.91,22.91,0,0,1,.88,2.61,11.62,11.62,0,0,0,1.16-3.72V61.5s.4-1.65-.59-1.48A8.42,8.42,0,0,0,64.29,60.62Z"/><path class="cls-9" d="M67.87,50.5l-.33,12.08c-.16,6,0,8.26-.38,14.2-.08,1.16-1.21,6.81-1.57,6.81-.56,0-1.33-5.81-1.37-7-.24-6.31-.1-9.64-.18-15.61,0-3.2-.07-6.4-.05-9.65"/><path class="cls-9" d="M64,55.64a2.83,2.83,0,0,0,3.63,0"/><path class="cls-9" d="M67.59,60.37c0,.8-3.55.57-3.55.57"/><path class="cls-5" d="M57.18,51.87s.49,4,0,4.12S55,55.94,55,55.64s0-3.29,0-3.29Z"/><path class="cls-4" d="M55.23,59.41S55,73.5,55.56,74.6a16.75,16.75,0,0,1,.66,2,8.86,8.86,0,0,0,.88-2.82V60.08s.3-1.26-.44-1.13A6.12,6.12,0,0,0,55.23,59.41Z"/><path class="cls-10" d="M57.93,51.75l-.25,9.14c-.12,4.51,0,6.26-.28,10.76-.07.87-.92,5.15-1.19,5.15-.43,0-1-4.39-1-5.33-.18-4.78-.08-7.3-.13-11.82,0-2.42-.06-4.84,0-7.3"/><path class="cls-10" d="M55,55.64a2.14,2.14,0,0,0,2.74,0"/><path class="cls-10" d="M57.72,59.22c0,.61-2.68.43-2.68.43"/><path class="cls-5" d="M61.46,54.7s.52,4.15,0,4.3-2.25,0-2.26-.36,0-3.44,0-3.44Z"/><path class="cls-4" d="M59.43,62.57s-.2,14.71.34,15.86a18.34,18.34,0,0,1,.69,2.06,9.1,9.1,0,0,0,.93-2.94V63.27s.31-1.31-.47-1.17A6.34,6.34,0,0,0,59.43,62.57Z"/><path class="cls-11" d="M62.25,54.58,62,64.12c-.13,4.71,0,6.53-.3,11.23-.07.91-.95,5.38-1.24,5.38-.45,0-1.05-4.59-1.09-5.56-.18-5-.07-7.63-.13-12.34,0-2.53-.06-5.06,0-7.63"/><path class="cls-11" d="M59.2,58.64a2.23,2.23,0,0,0,2.86,0"/><path class="cls-11" d="M62,62.38c0,.63-2.8.45-2.8.45"/><path class="cls-5" d="M112.76,46.54s.75,6.1,0,6.31-3.31-.07-3.33-.53,0-5,0-5Z"/><path class="cls-4" d="M109.77,58.1s-.3,21.62.51,23.31a28.23,28.23,0,0,1,1,3,13.51,13.51,0,0,0,1.36-4.33v-21s.45-1.93-.69-1.73A9.72,9.72,0,0,0,109.77,58.1Z"/><path class="cls-7" d="M113.92,46.35l-.38,14c-.19,6.91,0,9.6-.45,16.5-.09,1.35-1.4,7.91-1.82,7.91-.65,0-1.54-6.74-1.6-8.17-.27-7.34-.11-11.21-.2-18.14,0-3.72-.08-7.44-.06-11.21"/><path class="cls-7" d="M109.43,52.32a3.28,3.28,0,0,0,4.21,0"/><path class="cls-7" d="M113.59,57.82c0,.92-4.12.66-4.12.66"/><path class="cls-5" d="M106.53,47.79s.66,5.45,0,5.64-2.85-.07-2.86-.47,0-4.52,0-4.52Z"/><path class="cls-4" d="M104,58.12s-.25,19.31.44,20.82a26,26,0,0,1,.87,2.72,12.41,12.41,0,0,0,1.17-3.87V59s.39-1.72-.59-1.54A7.94,7.94,0,0,0,104,58.12Z"/><path class="cls-12" d="M107.54,47.62l-.33,12.53c-.17,6.18,0,8.58-.39,14.75-.08,1.2-1.2,7.06-1.56,7.06-.57,0-1.33-6-1.38-7.3-.23-6.56-.1-10-.17-16.2,0-3.32-.08-6.64-.06-10"/><path class="cls-12" d="M103.67,53a2.74,2.74,0,0,0,3.62,0"/><path class="cls-12" d="M107.25,57.87c0,.82-3.54.59-3.54.59"/><path class="cls-5" d="M100.79,46.8s.65,5.25,0,5.44-2.85-.07-2.87-.46,0-4.35,0-4.35Z"/><path class="cls-4" d="M98.22,56.76s-.26,18.6.43,20.06a22.91,22.91,0,0,1,.88,2.61,11.55,11.55,0,0,0,1.17-3.72V57.64s.39-1.65-.6-1.48A8.24,8.24,0,0,0,98.22,56.76Z"/><path class="cls-9" d="M101.79,46.64l-.33,12.08c-.16,6,0,8.26-.38,14.2-.08,1.16-1.21,6.81-1.57,6.81-.56,0-1.33-5.81-1.37-7-.24-6.31-.1-9.64-.18-15.61,0-3.2-.07-6.4,0-9.65"/><path class="cls-9" d="M97.92,51.78a2.83,2.83,0,0,0,3.63,0"/><path class="cls-9" d="M101.51,56.51c0,.8-3.55.57-3.55.57"/><path class="cls-5" d="M90.14,49.68s.5,4,0,4.12-2.16,0-2.17-.35,0-3.29,0-3.29Z"/><path class="cls-4" d="M88.19,57.22s-.19,14.09.34,15.19a18.94,18.94,0,0,1,.66,2,8.86,8.86,0,0,0,.88-2.82V57.89s.3-1.26-.45-1.13A6.33,6.33,0,0,0,88.19,57.22Z"/><path class="cls-10" d="M90.9,49.56l-.25,9.14c-.12,4.51,0,6.26-.29,10.76-.06.88-.91,5.15-1.19,5.15s-1-4.39-1-5.32C88,64.5,88.06,62,88,57.46c0-2.42,0-4.84,0-7.3"/><path class="cls-10" d="M88,53.45a2.14,2.14,0,0,0,2.75,0"/><path class="cls-10" d="M90.69,57c0,.61-2.69.43-2.69.43"/><path class="cls-5" d="M95.15,50.12s.51,4.15,0,4.3-2.26-.05-2.27-.36,0-3.44,0-3.44Z"/><path class="cls-4" d="M93.11,58s-.2,14.7.35,15.86a17.68,17.68,0,0,1,.69,2.06A9.16,9.16,0,0,0,95.07,73V58.69s.31-1.31-.46-1.18A6.84,6.84,0,0,0,93.11,58Z"/><path class="cls-11" d="M95.94,50l-.26,9.54c-.13,4.7,0,6.53-.3,11.23-.07.91-1,5.38-1.24,5.38-.45,0-1-4.59-1.09-5.57-.18-5-.08-7.62-.14-12.34,0-2.52-.06-5.05,0-7.62"/><path class="cls-11" d="M92.88,54.06a2.25,2.25,0,0,0,2.87,0"/><path class="cls-11" d="M95.72,57.79c0,.63-2.81.45-2.81.45"/><path class="cls-5" d="M142.84,40.41s.76,6.1,0,6.32-3.31-.08-3.33-.53,0-5.06,0-5.06Z"/><path class="cls-4" d="M139.85,52s-.29,21.63.51,23.32a27.56,27.56,0,0,1,1,3A13.42,13.42,0,0,0,142.73,74V53s.46-1.92-.69-1.72A10,10,0,0,0,139.85,52Z"/><path class="cls-7" d="M144,40.23l-.38,14c-.19,6.92,0,9.61-.44,16.51-.1,1.35-1.4,7.91-1.83,7.91-.65,0-1.54-6.75-1.59-8.18-.27-7.34-.12-11.21-.2-18.14-.05-3.71-.09-7.43-.07-11.21"/><path class="cls-7" d="M139.51,46.2a3.29,3.29,0,0,0,4.21,0"/><path class="cls-7" d="M143.68,51.69c0,.93-4.12.66-4.12.66"/><path class="cls-5" d="M137.06,41.29s.65,5.45,0,5.64-2.85-.07-2.87-.47,0-4.52,0-4.52Z"/><path class="cls-4" d="M134.48,51.62s-.25,19.31.44,20.82a24.42,24.42,0,0,1,.88,2.72A12.48,12.48,0,0,0,137,71.29V52.54s.39-1.72-.59-1.54A7.94,7.94,0,0,0,134.48,51.62Z"/><path class="cls-12" d="M138.06,41.12l-.33,12.54c-.17,6.17,0,8.57-.38,14.74-.09,1.2-1.21,7.06-1.57,7.06-.57,0-1.33-6-1.38-7.3-.23-6.55-.1-10-.17-16.2,0-3.32-.07-6.64,0-10"/><path class="cls-12" d="M134.19,46.46a2.74,2.74,0,0,0,3.62,0"/><path class="cls-12" d="M137.78,51.37c0,.82-3.55.59-3.55.59"/><path class="cls-5" d="M131.85,40.8s.65,5.25,0,5.43-2.85-.06-2.87-.45,0-4.35,0-4.35Z"/><path class="cls-4" d="M129.27,50.75s-.25,18.61.44,20.06a22.91,22.91,0,0,1,.88,2.61,11.62,11.62,0,0,0,1.16-3.72V51.64s.39-1.66-.59-1.49A8.42,8.42,0,0,0,129.27,50.75Z"/><path class="cls-9" d="M132.85,40.64l-.33,12.07c-.17,5.95,0,8.27-.38,14.21-.09,1.15-1.21,6.8-1.57,6.8-.57,0-1.33-5.8-1.38-7-.23-6.32-.1-9.65-.17-15.62,0-3.19-.07-6.39-.05-9.64"/><path class="cls-9" d="M129,45.78a2.82,2.82,0,0,0,3.62,0"/><path class="cls-9" d="M132.57,50.51c0,.79-3.55.56-3.55.56"/><path class="cls-5" d="M121.65,43.73s.49,4,0,4.12-2.16-.05-2.17-.35,0-3.29,0-3.29Z"/><path class="cls-4" d="M119.7,51.27s-.19,14.09.33,15.19a16.75,16.75,0,0,1,.66,2,8.79,8.79,0,0,0,.89-2.82V51.94s.29-1.25-.45-1.13A6.12,6.12,0,0,0,119.7,51.27Z"/><path class="cls-10" d="M122.41,43.61l-.25,9.14c-.13,4.51,0,6.26-.29,10.76-.07.88-.92,5.15-1.19,5.15-.43,0-1-4.39-1-5.32-.18-4.79-.08-7.31-.13-11.83,0-2.42-.06-4.84,0-7.3"/><path class="cls-10" d="M119.48,47.5a2.13,2.13,0,0,0,2.74,0"/><path class="cls-10" d="M122.19,51.08c0,.61-2.68.43-2.68.43"/><path class="cls-5" d="M126.12,44.54s.52,4.15,0,4.29-2.25,0-2.26-.36,0-3.44,0-3.44Z"/><path class="cls-4" d="M124.09,52.4s-.2,14.71.34,15.86a18.29,18.29,0,0,1,.69,2.07,9.19,9.19,0,0,0,.93-2.94V53.1s.31-1.31-.47-1.17A6.34,6.34,0,0,0,124.09,52.4Z"/><path class="cls-11" d="M126.91,44.41,126.65,54c-.13,4.71,0,6.54-.3,11.23-.07.92-.95,5.38-1.24,5.38S124.06,66,124,65c-.18-5-.07-7.62-.13-12.34,0-2.53-.06-5.06,0-7.63"/><path class="cls-11" d="M123.86,48.47a2.22,2.22,0,0,0,2.86,0"/><path class="cls-11" d="M126.69,52.21c0,.63-2.8.45-2.8.45"/><path class="cls-5" d="M173,36.6s.75,6.1,0,6.32-3.31-.08-3.33-.53,0-5.06,0-5.06Z"/><path class="cls-4" d="M170,48.17s-.3,21.62.51,23.31a27.5,27.5,0,0,1,1,3,13.51,13.51,0,0,0,1.36-4.33v-21s.45-1.93-.69-1.73A9.72,9.72,0,0,0,170,48.17Z"/><path class="cls-7" d="M174.15,36.42l-.38,14c-.19,6.91,0,9.6-.45,16.5-.09,1.35-1.4,7.91-1.82,7.91-.65,0-1.54-6.74-1.6-8.17-.27-7.34-.11-11.21-.2-18.15,0-3.71-.08-7.43-.06-11.21"/><path class="cls-7" d="M169.66,42.39a3.29,3.29,0,0,0,4.21,0"/><path class="cls-7" d="M173.82,47.88c0,.93-4.12.66-4.12.66"/><path class="cls-5" d="M167.2,37.48s.66,5.45,0,5.64-2.85-.06-2.86-.47,0-4.52,0-4.52Z"/><path class="cls-4" d="M164.63,47.81s-.25,19.31.44,20.83a26.06,26.06,0,0,1,.87,2.71,12.41,12.41,0,0,0,1.17-3.86V48.73s.39-1.72-.59-1.54A8.48,8.48,0,0,0,164.63,47.81Z"/><path class="cls-12" d="M168.2,37.32l-.33,12.53c-.16,6.18,0,8.58-.38,14.74-.08,1.2-1.2,7.07-1.57,7.07-.56,0-1.32-6-1.37-7.31-.23-6.55-.1-10-.17-16.2,0-3.32-.08-6.64-.06-10"/><path class="cls-12" d="M164.34,42.65a2.74,2.74,0,0,0,3.62,0"/><path class="cls-12" d="M167.92,47.56c0,.83-3.54.59-3.54.59"/><path class="cls-5" d="M162,37s.66,5.25,0,5.43-2.85-.06-2.86-.45,0-4.35,0-4.35Z"/><path class="cls-4" d="M159.42,46.94s-.25,18.61.44,20.06a24.33,24.33,0,0,1,.87,2.62,11.64,11.64,0,0,0,1.17-3.72V47.83s.39-1.66-.59-1.49A8.42,8.42,0,0,0,159.42,46.94Z"/><path class="cls-9" d="M163,36.83l-.33,12.07c-.16,6,0,8.27-.38,14.21-.08,1.16-1.2,6.8-1.57,6.8-.56,0-1.32-5.8-1.37-7-.23-6.32-.1-9.65-.17-15.61,0-3.2-.08-6.4-.06-9.65"/><path class="cls-9" d="M159.13,42a2.82,2.82,0,0,0,3.62,0"/><path class="cls-9" d="M162.71,46.7c0,.79-3.54.57-3.54.57"/><path class="cls-5" d="M151.79,38.1s.5,4,0,4.12-2.15,0-2.16-.35,0-3.29,0-3.29Z"/><path class="cls-4" d="M149.85,45.64s-.2,14.09.33,15.19a16.75,16.75,0,0,1,.66,2,8.86,8.86,0,0,0,.88-2.82V46.31s.3-1.26-.44-1.13A6.12,6.12,0,0,0,149.85,45.64Z"/><path class="cls-10" d="M152.55,38l-.25,9.14c-.12,4.51,0,6.26-.29,10.76-.06.87-.91,5.15-1.18,5.15-.43,0-1-4.39-1-5.33-.18-4.78-.08-7.3-.14-11.82,0-2.42-.05-4.84,0-7.3"/><path class="cls-10" d="M149.63,41.87a2.14,2.14,0,0,0,2.74,0"/><path class="cls-10" d="M152.34,45.45c0,.6-2.69.43-2.69.43"/><path class="cls-5" d="M156.72,38.83s.52,4.15,0,4.3-2.25-.05-2.26-.36,0-3.44,0-3.44Z"/><path class="cls-4" d="M154.69,46.7s-.2,14.71.34,15.86a19.09,19.09,0,0,1,.7,2.06,9.16,9.16,0,0,0,.92-2.94V47.4s.31-1.31-.47-1.18A6.65,6.65,0,0,0,154.69,46.7Z"/><path class="cls-11" d="M157.51,38.71l-.26,9.54c-.13,4.7,0,6.53-.3,11.23-.06.91-.95,5.38-1.24,5.38-.44,0-1.05-4.59-1.09-5.56-.18-5-.07-7.63-.13-12.35,0-2.52-.06-5.05-.05-7.62"/><path class="cls-11" d="M154.46,42.77a2.23,2.23,0,0,0,2.86,0"/><path class="cls-11" d="M157.29,46.51c0,.63-2.8.44-2.8.44"/><polyline class="cls-13" points="41.2 39.44 60.59 56.96 178.87 35.32"/><polyline class="cls-14" points="20.46 77.2 20.46 61.26 55.09 61.26"/><polyline class="cls-15" points="173.32 60.94 196.87 60.94 196.87 73.87"/><line x1="52.28" y1="96.22" x2="149.81" y2="76.8"/><line x1="60.52" y1="104.59" x2="158.91" y2="82.48"/><line class="cls-3" x1="73.4" y1="79.75" x2="76.17" y2="79.11"/><line class="cls-3" x1="100.94" y1="73.94" x2="103.65" y2="73.42"/><line class="cls-3" x1="106.95" y1="72.82" x2="109.55" y2="72.04"/><line class="cls-3" x1="113.38" y1="71.29" x2="124.43" y2="68.26"/><line class="cls-3" x1="126.05" y1="67.39" x2="129.19" y2="66.69"/><line class="cls-3" x1="132.2" y1="65.99" x2="134.17" y2="65.57"/><line class="cls-3" x1="57.68" y1="61.12" x2="59.18" y2="61.12"/><line class="cls-3" x1="80.69" y1="61.12" x2="87.96" y2="61.12"/><line class="cls-3" x1="113.64" y1="61.26" x2="119.48" y2="61.29"/></g></svg>