<svg xmlns="http://www.w3.org/2000/svg" viewBox="0 0 216 153.14"><defs><style>.cls-1,.cls-2{fill:none;}.cls-1{stroke:#85d2fb;stroke-linecap:round;stroke-linejoin:round;}.cls-2,.cls-3,.cls-4{stroke:#000;stroke-miterlimit:10;}.cls-2{stroke-width:1.42px;}.cls-3,.cls-4,.cls-5{fill:#2082d8;}.cls-4{stroke-width:0.21px;}.cls-6{font-size:13px;font-family:Nefelibata-SansCd, Nefelibata;}</style></defs><g id="Pict_1"><line class="cls-1" x1="26.48" y1="111.08" x2="172.91" y2="35.44"/><polyline class="cls-2" points="26.21 28.92 26.21 128.06 186.54 128.06"/><path class="cls-3" d="M23.34,28.92h5.82a.82.82,0,0,0,.72-1.23l-3-5.19a.63.63,0,0,0-1.1,0l-3.07,5.33A.73.73,0,0,0,23.34,28.92Z"/><path class="cls-3" d="M186.54,124v6.82a.49.49,0,0,0,.73.42l5.92-3.41a.49.49,0,0,0,0-.84l-5.92-3.41A.48.48,0,0,0,186.54,124Z"/><circle class="cls-4" cx="57.66" cy="103.83" r="2.28"/><circle class="cls-4" cx="77.12" cy="86.04" r="2.28"/><circle class="cls-4" cx="73.4" cy="92.69" r="2.28"/><circle class="cls-4" cx="78.22" cy="74.87" r="2.28"/><circle class="cls-5" cx="66.73" cy="95.56" r="2.28"/><circle class="cls-5" cx="43.69" cy="100.12" r="2.28"/><circle class="cls-5" cx="113.57" cy="72.57" r="2.28"/><circle class="cls-5" cx="115.4" cy="58.46" r="2.28"/><circle class="cls-5" cx="106.72" cy="68.01" r="2.28"/><circle class="cls-5" cx="104.44" cy="77.15" r="2.28"/><circle class="cls-4" cx="92.67" cy="80.5" r="2.28"/><circle class="cls-5" cx="90.39" cy="87.34" r="2.28"/><circle class="cls-4" cx="111.29" cy="78.22" r="2.28"/><circle class="cls-4" cx="122.64" cy="75.53" r="2.28"/><circle class="cls-5" cx="84.52" cy="84.36" r="2.28"/><circle class="cls-4" cx="86.8" cy="94.85" r="2.28"/><circle class="cls-5" cx="64.44" cy="75.53" r="2.28"/><circle class="cls-4" cx="153.87" cy="47.73" r="2.28"/><circle class="cls-5" cx="134" cy="60.16" r="2.28"/><circle class="cls-5" cx="127.16" cy="68.6" r="2.28"/><circle class="cls-5" cx="120.36" cy="62.96" r="2.28"/><circle class="cls-5" cx="144.55" cy="52.21" r="2.28"/><circle class="cls-5" cx="146.83" cy="43.78" r="2.28"/><circle class="cls-4" cx="96.53" cy="68.01" r="2.28"/><circle class="cls-5" cx="88.11" cy="77.15" r="2.28"/><circle class="cls-4" cx="127.16" cy="59.47" r="2.28"/><circle class="cls-4" cx="142.27" cy="59.47" r="2.28"/><circle class="cls-5" cx="99.7" cy="74.85" r="2.28"/><circle class="cls-4" cx="131.72" cy="51.72" r="2.28"/><circle class="cls-5" cx="72.56" cy="81.09" r="2.28"/><circle class="cls-4" cx="60.07" cy="91" r="2.22"/><text class="cls-6" transform="translate(15.66 79.45)">y</text><text class="cls-6" transform="translate(104.52 136.72)">x</text></g></svg>