<svg id="Layer_1" data-name="Layer 1" xmlns="http://www.w3.org/2000/svg" viewBox="0 0 1029.84 631.21"><defs><style>.cls-1{fill:#6ecdff;}.cls-10,.cls-11,.cls-12,.cls-13,.cls-14,.cls-17,.cls-19,.cls-2,.cls-22,.cls-24,.cls-5,.cls-6,.cls-8,.cls-9{fill:none;}.cls-10,.cls-11,.cls-12,.cls-13,.cls-14,.cls-15,.cls-16,.cls-17,.cls-18,.cls-19,.cls-2,.cls-20,.cls-21,.cls-22,.cls-24,.cls-3,.cls-5,.cls-6,.cls-7,.cls-8,.cls-9{stroke:#000;}.cls-10,.cls-15,.cls-16,.cls-17,.cls-19,.cls-2,.cls-20,.cls-5,.cls-9{stroke-miterlimit:10;}.cls-2,.cls-20{stroke-width:1.74px;}.cls-3,.cls-7{fill:#fffcfc;}.cls-11,.cls-12,.cls-13,.cls-14,.cls-18,.cls-21,.cls-22,.cls-24,.cls-3,.cls-6,.cls-7,.cls-8{stroke-linecap:round;stroke-linejoin:round;}.cls-21,.cls-3,.cls-8{stroke-width:1.74px;}.cls-4{fill:#5276c2;}.cls-5,.cls-6{stroke-width:1.64px;}.cls-7,.cls-9{stroke-width:1.74px;}.cls-10,.cls-14,.cls-15{stroke-width:1.15px;}.cls-11{stroke-width:1.94px;}.cls-12{stroke-width:1.94px;}.cls-13{stroke-width:1.15px;}.cls-15,.cls-16,.cls-18,.cls-20,.cls-21,.cls-23{fill:#fff;}.cls-16,.cls-17{stroke-width:1.21px;}.cls-18,.cls-22{stroke-width:1.81px;}.cls-19{stroke-width:1.62px;}.cls-24{stroke-width:1.8px;}</style></defs><polyline class="cls-1" points="903.74 295.7 918.01 283.35 988.07 312.37 982.41 330.42"/><path class="cls-1" d="M912.87,378.22c-1.26,4.19-5.34,7.16-11,8.66-6.88,1.8-16.16,1.48-25.75-1.41-11.66-3.53-20.83-9.93-24.82-16.56-2-3.34-2.74-6.74-1.81-9.84,2.82-9.3,19.28-12.55,36.78-7.25S915.67,368.92,912.87,378.22Z"/><path class="cls-1" d="M729.92,453.14l6-39.85,12.31-13.58,33.49,2,125.41,60,27.78,30.28-16.25,50.8L892,552.67,760.52,494Z"/><path class="cls-2" d="M728.24,447.84l6-39.85,12.31-13.58,33.48,2,125.42,60,27.78,30.28-16.26,50.79-26.6,9.94L758.84,488.71Z"/><polygon class="cls-3" points="790.01 424.88 782.46 456.13 707.64 534.4 716 499.03 786.07 422.75 790.01 424.88"/><polygon class="cls-4" points="789.15 423.59 759.34 455.54 718.5 499.31 706.52 494.7 761.14 437.85 779.39 418.85 789.05 423.54 789.15 423.59"/><polygon class="cls-4" points="860.4 329.4 889.54 297.81 969.98 331.27 939.91 369.09 860.4 329.4"/><path class="cls-1" d="M790.66,420.54C779,427.36,761.39,451,752.27,460.91c-10.73,11.67-23.16,21.79-32.83,34.42-.9,1.17-5.05,5.85-3.52,7.73,1.28,1.59,6.65-3.46,8.14-4.51C731.47,493.32,789.46,429.09,790.66,420.54Z"/><path class="cls-5" d="M786.07,422.75l-9.81-4.67-18.08,19.13,5-20.26a4.59,4.59,0,0,1,6.64-3Z"/><path class="cls-5" d="M774.76,464.18h0l2.82,1.42a4.6,4.6,0,0,0,6.51-3l8.19-32.55a4.63,4.63,0,0,0-2.28-5.18l-3.95-2.12L756.5,454.93"/><polyline class="cls-6" points="758.18 437.21 703.99 494.51 716.01 499.03 756.5 454.93"/><polygon class="cls-7" points="707.64 534.4 697.38 531.72 703.98 494.52 716 499.03 707.64 534.4"/><path class="cls-5" d="M855.54,488.6l3.13-20.67A4.57,4.57,0,0,1,865,464.4l16.87,7.17.11,0,4.13,1.76a4.61,4.61,0,0,1,2.75,4.95l-5.13,33.16a4.61,4.61,0,0,1-6.21,3.58l-3-1.15"/><polygon class="cls-3" points="881.98 471.6 819.27 554.04 814.23 590.02 874.56 513.9 881.49 505.18 886.11 473.36 881.98 471.6"/><path class="cls-1" d="M883.88,471.87C873,479.76,862.14,500.22,854,511c-9.58,12.62-21,23.87-29.44,37.36-.78,1.25-7.29,8.31-5.59,10.05,1.43,1.46,9.11-6.1,10.5-7.29C836.34,545.17,883.49,480.5,883.88,471.87Z"/><polygon class="cls-4" points="883.99 471.9 857.53 506.69 821.29 554.34 808.91 550.95 857.55 488.9 873.8 468.17 883.88 471.87 883.99 471.9"/><polygon class="cls-8" points="881.98 471.6 855.52 506.39 819.27 554.04 806.9 550.65 855.54 488.6 871.78 467.87 881.87 471.57 881.98 471.6"/><polygon class="cls-3" points="814.22 590.03 803.75 588.31 806.89 550.66 819.27 554.04 814.22 590.03"/><path class="cls-2" d="M746.51,394.41c5.73-8.05,76.59-84.53,76.59-84.53s58.73-24.18,60.39-25,105,45.58,105,45.58L905.41,456.36"/><polyline class="cls-2" points="988.5 330.5 1000.11 386.83 933.19 486.64"/><path class="cls-2" d="M916.33,539.32c1-1,70.78-113.74,70.78-113.74l13-38.75"/><polyline class="cls-2" points="904.11 293.22 918.38 280.87 988.44 309.89 982.78 327.94"/><path class="cls-2" d="M913.45,374.31c-1.26,4.2-5.34,7.16-11,8.67-6.88,1.8-16.16,1.48-25.74-1.41C865,378,855.84,371.63,851.85,365c-2-3.34-2.73-6.74-1.8-9.84,2.81-9.3,19.27-12.55,36.77-7.25S916.25,365,913.45,374.31Z"/><path class="cls-4" d="M902.85,384.76c-6.88,1.8-16.16,1.48-25.74-1.42-11.67-3.52-20.84-9.93-24.83-16.56,2.25-4.79,14.82-4.71,28.48.29C894,371.92,903.56,379.62,902.85,384.76Z"/><path class="cls-2" d="M903.1,383.08c-6.88,1.8-16.16,1.48-25.74-1.41-11.67-3.53-20.84-9.94-24.83-16.56,2.25-4.8,14.83-4.71,28.48.29C894.29,370.25,903.81,378,903.1,383.08Z"/><polygon class="cls-2" points="860.77 326.91 889.91 295.33 970.35 328.78 940.28 366.6 860.77 326.91"/><path class="cls-2" d="M866.3,320.92c26.69,13.23,51,24.57,78.35,36.49"/><path class="cls-2" d="M873.61,312.86a510.44,510.44,0,0,0,79.21,36.66"/><path class="cls-2" d="M880.1,305.43q37.88,19.31,76.62,36.85"/><path class="cls-2" d="M884.07,300q40.47,16.55,80.1,35.08"/><path class="cls-9" d="M936,285.71q19.1-27.4,39.71-53.71"/><path class="cls-9" d="M971.43,301.8q15.42-21.84,32.92-42.12"/><path class="cls-1" d="M173.46,370.33c3.09-3.13,13.08,3.23,15.92,6.59s3.61,11.15,5.2,15.25c4.21,10.94,12.92,19.44,21.37,27.56,10,9.61,20.48,19.52,33.69,23.75,4.83,1.56,10,2.31,14.52,4.57,8.39,4.17,27.73,28.92,7,21.82a149.7,149.7,0,0,1-39.71-21.28C207.4,430.87,184.08,398.32,173.46,370.33Z"/><polygon class="cls-1" points="206.59 322.06 123.88 354.29 189.38 376.92 271.98 328.78 206.59 322.06"/><polygon class="cls-4" points="206.59 322.06 142.46 348.8 195.94 367.21 256.62 331.97 206.59 322.06"/><path class="cls-1" d="M62.87,339.91l-1.13,19.88a16.26,16.26,0,0,0,10.91,15.36L109,387.84l-.23-33.29-45.15-13a1.38,1.38,0,0,1-.21-2.57l24-10.68a30.42,30.42,0,0,1,16.37-2.91l57,5.81"/><path class="cls-1" d="M266.75,436.79c3.44-9.38,8.18-22.23,11-29.89a19.18,19.18,0,0,1,8.43-10l80.42-46.18a19.14,19.14,0,0,1,18.27-.43L403.76,360a19.17,19.17,0,0,1,10,21l-6.68,31.56a19.12,19.12,0,0,1-8.7,12.35l-85.55,52.58a19.14,19.14,0,0,1-23.46-2.68L271.29,457A19.14,19.14,0,0,1,266.75,436.79Z"/><path class="cls-10" d="M262.59,435.58c3.44-9.37,8.18-22.23,11-29.89a19.11,19.11,0,0,1,8.43-10l80.42-46.18a19.14,19.14,0,0,1,18.27-.43l18.88,9.68a19.15,19.15,0,0,1,10,21l-6.68,31.57a19.16,19.16,0,0,1-8.71,12.35l-85.54,52.57a19.15,19.15,0,0,1-23.46-2.67l-18.07-17.8A19.13,19.13,0,0,1,262.59,435.58Z"/><polyline class="cls-11" points="368.02 347.04 196.59 313.3 109.24 351.56 273.59 405.69"/><polyline class="cls-11" points="109.24 351.56 109.24 402.16 158.53 416.93 289.85 476.96"/><path class="cls-11" d="M261,444.12s-51.17-6.53-70.82-66.49L276.29,329"/><polygon class="cls-12" points="200.84 322.03 136.71 348.77 190.19 367.18 250.87 331.94 200.84 322.03"/><path class="cls-12" d="M150.22,352.37c18-9.38,39.43-20.13,57.72-28.94"/><path class="cls-12" d="M165.12,357a378.71,378.71,0,0,1,53.55-31.4"/><path class="cls-12" d="M176.78,361.35c15.89-12.21,35.37-25.61,53.82-33.43"/><path class="cls-12" d="M185.9,364.45c15.82-13.89,35.49-27.16,55.07-34.91"/><path class="cls-13" d="M62.87,337.74l-1.13,19.88A16.26,16.26,0,0,0,72.65,373L109,385.66l-.23-33.29-45.15-13a1.38,1.38,0,0,1-.21-2.57l24-10.69a30.42,30.42,0,0,1,16.37-2.9l57,5.81"/><path class="cls-14" d="M107.24,324.92a24.52,24.52,0,0,0-10.67,5.39"/><path class="cls-13" d="M94.71,348a59.21,59.21,0,0,1,13.55-7.61"/><path class="cls-14" d="M132.91,328.17a60.67,60.67,0,0,0-11.34,6.69"/><path class="cls-14" d="M76.34,342.74A94.34,94.34,0,0,0,75.47,362"/><path class="cls-14" d="M87.85,378.09l-.58-15.52"/><path class="cls-13" d="M62,356.52c-12.81-3.24-28.88-6.76-40.88-12.32"/><path class="cls-13" d="M87.4,326.08c-14.89-1-47.17-2.16-61.53-4.65"/><path class="cls-15" d="M478,431.61A11.5,11.5,0,0,1,466,438.66l-41.3-17.42-49.72-21a6.56,6.56,0,0,1-3.34-3.06,14.31,14.31,0,0,1-1-10.73c1.89-6.43,5.81-11.13,9.66-10.43v0l.06,0h.15a4.37,4.37,0,0,1,1.5.7l51.1,21.83,44,18.79S482.14,421.78,478,431.61Z"/><path class="cls-16" d="M407,496.57c-4.74,7.92-14.16,6.07-14.41,5.78l-44.1-23.87-53.1-28.73a7.3,7.3,0,0,1-3.36-3.67,14.37,14.37,0,0,1,.29-11.41c2.94-6.5,7.92-10.91,12.15-9.66h0l.07,0a.9.9,0,0,0,.16,0,5,5,0,0,1,1.6.93l54.52,29.83,46.94,25.69S412.82,486.8,407,496.57Z"/><path class="cls-4" d="M403.43,496.33c-3.71,4.08-9.7,6.75-13.79,4.52L348.55,478.5c1.85-11.26,3.86-16.87,8.28-19.63l23.45,12.77L397,480.75c3.19,1.73,9.34,3.2,9.78,7.52C407.05,491,405.64,493.9,403.43,496.33Z"/><path class="cls-4" d="M474.86,431.87c-2.78,4.54-7.7,8-11.54,6.32L424.8,421.5c.33-11.41,1.44-17.24,5-20.56l22,9.54,15.67,6.8c3,1.3,8.53,1.93,9.42,6.16C477.41,426.08,476.52,429.17,474.86,431.87Z"/><path class="cls-17" d="M407.06,496.4c-4.74,7.92-14.16,6.07-14.41,5.78l-44.1-23.87c1.79-12.8,7.67-19.38,12.33-22.65l46.94,25.69S412.92,486.63,407.06,496.4Z"/><path class="cls-10" d="M478,431.61A11.5,11.5,0,0,1,466,438.66l-41.3-17.42c.22-12.2,4.7-19,8.46-22.63l44,18.79S482.14,421.78,478,431.61Z"/><path class="cls-1" d="M654,346.44c-42.88,22.76-107.57,26.43-127.23,27a47.26,47.26,0,0,1-13.54-1.57c-18.11-4.82-62.78-22.1-73.52-76.62-4.75-24.06,11.61-99.15,15.94-131.49s56.56-46.83,78.3-42.5c27.11,5.42,53.33-7.34,79.87-10.51,15.17-1.81,32-.13,45.92,6.36,22.44,10.44,26,38.15,32.39,59.3,7.16,23.79,14,47.69,20.65,71.62a51.2,51.2,0,0,1-1.36,31.9,131.73,131.73,0,0,1-18.64,33.69"/><path class="cls-1" d="M541.69,113c-2.63,2.65-6,2-9,1.36l-10.8-2.44a3.73,3.73,0,0,1-2.52-1.41c-.64-.9-25.18,7.07-25.44,5.75-2.25-11.17-8.59-33-10.84-44.22-1.68-8.35,10.69,6,24.1-27.68C519.29,65.86,532.51,87.7,541.69,113Z"/><path class="cls-4" d="M494,81.38l7.49,27.72a3.8,3.8,0,0,0,3.87,2.78l27.16,1.52L506.5,46,490.09,66.34"/><path class="cls-18" d="M615.16,247h5.17l-2.59-48.17,18.87,3.55a26.13,26.13,0,1,0,0-52.26l-43.41,4.38"/><polygon class="cls-4" points="565.13 156.4 585.15 205.41 587.65 245.37 565.13 186.67 565.13 156.4"/><path class="cls-2" d="M655.49,346.87l20.15-1.95a124,124,0,0,1-11.41,7.32c-45.72,26-117.85,30.07-139.41,30.72a50.21,50.21,0,0,1-14.48-1.67c-19.36-5.16-67.1-23.63-78.58-81.91-4.21-21.33,1.61-46.1,4.91-67.17,2.12-13.62,4.5-27.19,6.84-40.76s3.66-24.82,8.62-41.41c1.88-6.27,7.51-15,20-22.83,17.42-10.95,40-17.9,60.37-13.82,28.71,5.74,56.58-7.24,84.67-10.89,22.45-2.91,60.69,1.65,70.31,26.39,8.34,21.46,27.67,89.63,36.17,120A54.83,54.83,0,0,1,722.22,283,139.36,139.36,0,0,1,695.9,326.7l.35-6.11-7.88.57"/><path class="cls-19" d="M655.69,346.87c-42.87,22.76-107.56,26.42-127.23,27a46.89,46.89,0,0,1-13.53-1.58c-18.12-4.81-62.78-22.09-73.53-76.61-4.74-24.06,11.62-99.16,16-131.49s56.56-46.84,78.3-42.5c27.11,5.42,53.33-7.35,79.87-10.51,15.17-1.81,32-.13,45.92,6.36,22.44,10.44,26,38.15,32.39,59.3,7.16,23.79,13.95,47.69,20.65,71.61a51.23,51.23,0,0,1-1.36,31.91,131.66,131.66,0,0,1-18.65,33.69"/><path class="cls-2" d="M441.56,202.72s-.3-10.63-.51-34.73c-.14-15.77,0-39.93,1.22-46.36,3.1-16.27,21-39,47.82-55.29,0,0,15.45-16.27,17.07-22,1.29-4.49,38.06-5.44,53.48-5.64a16.87,16.87,0,0,1,11.57,4.4l21,19.17-57.13-.68a26.86,26.86,0,0,0-22.4,11.55L503.09,88.43a74.39,74.39,0,0,1-32.26,26.5c-12.29,5.13-25.18,16.11-29.81,48.5"/><line class="cls-2" x1="532.5" y1="113.4" x2="507.16" y2="44.38"/><path class="cls-2" d="M490.09,66.34C493.52,82.35,500,99,503.41,115"/><polyline class="cls-20" points="562.04 371.5 551.88 242.04 562.73 238.71 562.73 208.85 572.58 208.85"/><path class="cls-20" d="M547.32,123.77c.7,18,2.87,58.68,3.57,76.68a61.21,61.21,0,0,0-12.71,1.85,4.42,4.42,0,0,0-2.49,1.27,4.67,4.67,0,0,0-.6,3.24q2.13,33.23,4.24,66.43c-19.37,2.46-39.64,5.74-59,8.2,1,12.45,1.28,24,3.25,36.34L499,316"/><polygon class="cls-8" points="565.13 150.9 585.31 198.87 588.47 249.48 565.13 186.67 565.13 150.9"/><polygon class="cls-8" points="615.16 249.48 588.47 249.48 585.31 198.87 612.87 198.87 615.16 249.48"/><polyline class="cls-21" points="612.87 197.32 591.52 150.9 565.13 150.9"/><polygon class="cls-1" points="502.54 308.33 498.85 286.62 511.51 285.3 502.54 308.33"/><circle class="cls-4" cx="633.56" cy="178.07" r="15.01"/><polygon class="cls-18" points="565.13 282.82 568.26 329.59 610.48 323.76 607.28 278.31 565.13 282.82"/><line class="cls-20" x1="625.62" y1="358.66" x2="620.33" y2="248.12"/><polyline class="cls-22" points="566.84 308.33 597.51 303.95 595.7 279.55"/><path class="cls-2" d="M648.57,103.79s-19.32-37.19-27-39.25c-5.92-1.59-28.41-2.23-28.41-2.23"/><circle class="cls-8" cx="636.61" cy="176.69" r="15.01"/><polygon class="cls-4" points="595.24 303.39 567.54 307.18 565.54 283 593.83 280.57 595.24 303.39"/><path class="cls-23" d="M662.75,321.83c.29-.94,0-73.71,0-73.71L673.91,247l22.34,73.55Z"/><path class="cls-4" d="M636.61,249.48l2,27.85s13,68.77,13,68.08,0-21.65,0-21.65Z"/><polyline class="cls-24" points="675.64 344.92 695 343.03 695.9 326.7"/><polygon class="cls-23" points="688.37 321.16 689.01 342.24 673.91 342.88 663.05 323 688.37 321.16"/><path class="cls-22" d="M651.56,347.25c-.61-.86-12.94-69.92-12.94-69.92l-2-27.85,37.3-2.44,22.34,73.54"/><line class="cls-8" x1="651.62" y1="323.76" x2="636.61" y2="249.48"/><polyline class="cls-22" points="696.25 320.59 651.63 323.76 651.57 347.25 655.49 346.87"/><polygon class="cls-23" points="672.51 343.95 652.3 346.05 652.3 324.51 672.51 323.16 672.51 343.95"/><polygon class="cls-23" points="507.91 333.26 501.19 282.01 514.21 260.25 534.48 259.6 552.09 334.42 507.91 333.26"/><path class="cls-4" d="M497.1,259.66l.23,27.92s10.34,54.38,9.51,61.58c-.59,5.16.51-14.42.51-14.42Z"/><path class="cls-22" d="M508.43,358.19c-.56-.9-11.1-70.61-11.1-70.61l-.23-27.92,36.83-2.36,18.16,77.12"/><line class="cls-8" x1="507.35" y1="334.74" x2="497.1" y2="259.66"/><polygon class="cls-23" points="552.09 334.42 518.8 334.72 518.65 335.5 507.35 334.74 508.38 357.13 526.91 356.22 526.92 356.12 550.73 355.68 552.09 334.42"/><polyline class="cls-24" points="510.28 358.05 551.88 355.78 552 335.08"/><polyline class="cls-22" points="552.1 334.42 507.35 334.74 508.43 358.19 509.74 358.05"/><polygon class="cls-1" points="513.13 259.58 514.38 333.4 508.08 333.24 499.79 274.86 513.13 259.58"/></svg>